<?xml version="1.0" encoding="UTF-8" standalone="no"?>
<!-- Created with Inkscape (http://www.inkscape.org/) -->

<svg
   xmlns:dc="http://purl.org/dc/elements/1.1/"
   xmlns:cc="http://creativecommons.org/ns#"
   xmlns:rdf="http://www.w3.org/1999/02/22-rdf-syntax-ns#"
   xmlns:svg="http://www.w3.org/2000/svg"
   xmlns="http://www.w3.org/2000/svg"
   xmlns:xlink="http://www.w3.org/1999/xlink"
   xmlns:sodipodi="http://sodipodi.sourceforge.net/DTD/sodipodi-0.dtd"
   xmlns:inkscape="http://www.inkscape.org/namespaces/inkscape"
   width="210mm"
   height="297mm"
   viewBox="0 0 744.09448819 1052.3622047"
   id="svg2"
   version="1.1"
   inkscape:version="0.91 r13725"
   sodipodi:docname="Michaelis-Menten_schematic.svg"
   inkscape:export-filename="C:\Users\Thomas Woolley - Ad\Dropbox\ODE_course\Pictures\Michaelis-Menten_schematic.png"
   inkscape:export-xdpi="570.22302"
   inkscape:export-ydpi="570.22302">
  <sodipodi:namedview
     id="base"
     pagecolor="#ffffff"
     bordercolor="#666666"
     borderopacity="1.0"
     inkscape:pageopacity="0.0"
     inkscape:pageshadow="2"
     inkscape:zoom="1.4"
     inkscape:cx="301.09881"
     inkscape:cy="952.00733"
     inkscape:document-units="px"
     inkscape:current-layer="content"
     showgrid="false"
     inkscape:snap-global="true"
     inkscape:snap-bbox="true"
     inkscape:bbox-nodes="true"
     inkscape:bbox-paths="true"
     inkscape:snap-bbox-midpoints="true"
     inkscape:snap-bbox-edge-midpoints="true"
     inkscape:object-paths="true"
     inkscape:snap-intersection-paths="true"
     inkscape:object-nodes="true"
     inkscape:snap-smooth-nodes="true"
     inkscape:snap-midpoints="true"
     inkscape:window-width="1920"
     inkscape:window-height="1017"
     inkscape:window-x="-9"
     inkscape:window-y="-9"
     inkscape:window-maximized="1" />
  <defs
     id="defs4">
    <linearGradient
       id="linearGradient4171"
       inkscape:collect="always">
      <stop
         id="stop4173"
         offset="0"
         style="stop-color:#0000ff;stop-opacity:1;" />
      <stop
         id="stop4175"
         offset="1"
         style="stop-color:#0000ff;stop-opacity:0;" />
    </linearGradient>
    <linearGradient
       gradientTransform="translate(-16.785714,-0.71428572)"
       gradientUnits="userSpaceOnUse"
       y2="107.71935"
       x2="52.747356"
       y1="144.8622"
       x1="133.57143"
       id="linearGradient4177"
       xlink:href="#linearGradient4171"
       inkscape:collect="always" />
    <filter
       height="1.5"
       y="-0.25"
       id="filter4241"
       style="color-interpolation-filters:sRGB;"
       inkscape:menu-tooltip="Darkens the edge with an inner blur and adds a flexible glow"
       inkscape:menu="Shadows and Glows"
       inkscape:label="Dark And Glow">
      <feGaussianBlur
         id="feGaussianBlur4243"
         result="result0"
         in="SourceGraphic"
         stdDeviation="0.5" />
      <feTurbulence
         id="feTurbulence4245"
         type="turbulence"
         baseFrequency="0.095"
         seed="488"
         numOctaves="1"
         result="result1" />
      <feComposite
         id="feComposite4247"
         result="result2"
         operator="in"
         in2="result1"
         in="result0" />
      <feComposite
         id="feComposite4249"
         result="result91"
         k1="3"
         k3="1"
         in2="result2"
         in="result4"
         operator="arithmetic" />
      <feBlend
         id="feBlend4251"
         in2="result91"
         result="fbSourceGraphic"
         mode="multiply" />
      <feColorMatrix
         id="feColorMatrix4253"
         values="0 0 0 0 0 0 0 1 0 0 0 0 1 0 0 0 0 0 5 0"
         in="fbSourceGraphic"
         result="fbSourceGraphicAlpha" />
      <feGaussianBlur
         id="feGaussianBlur4255"
         stdDeviation="3"
         in="fbSourceGraphicAlpha"
         result="result0" />
      <feOffset
         id="feOffset4257"
         dx="2"
         dy="2"
         in="result0"
         result="result3" />
      <feSpecularLighting
         id="feSpecularLighting4259"
         in="result0"
         result="result1"
         lighting-color="rgb(111,236,253)"
         surfaceScale="2"
         specularConstant="1.1"
         specularExponent="30">
        <fePointLight
           id="fePointLight4261"
           x="-5000"
           y="-10000"
           z="20000" />
      </feSpecularLighting>
      <feComposite
         id="feComposite4263"
         in2="fbSourceGraphicAlpha"
         in="result1"
         result="result2"
         operator="in"
         k2="-1" />
      <feComposite
         id="feComposite4265"
         in2="result2"
         in="fbSourceGraphic"
         result="result4"
         operator="arithmetic"
         k2="3"
         k3="1" />
      <feBlend
         result="fbSourceGraphic"
         id="feBlend4267"
         in2="result4"
         mode="multiply" />
      <feColorMatrix
         id="feColorMatrix4365"
         values="0 0 0 -1 0 0 0 0 -1 0 0 0 0 -1 0 0 0 0 1 0"
         in="fbSourceGraphic"
         result="fbSourceGraphicAlpha" />
      <feGaussianBlur
         in="fbSourceGraphic"
         result="result6"
         stdDeviation="5"
         id="feGaussianBlur4367" />
      <feComposite
         operator="atop"
         in="fbSourceGraphic"
         result="result8"
         in2="result6"
         id="feComposite4369" />
      <feComposite
         in="result8"
         operator="over"
         result="result9"
         in2="fbSourceGraphicAlpha"
         id="feComposite4371" />
      <feColorMatrix
         result="result10"
         values="1 0 0 0 0 0 1 0 0 0 0 0 1 0 0 0 0 0 1 0 "
         id="feColorMatrix4373" />
      <feBlend
         mode="normal"
         in="result10"
         in2="result6"
         id="feBlend4375" />
    </filter>
    <filter
       height="1.5"
       y="-0.25"
       id="filter4301"
       style="color-interpolation-filters:sRGB;"
       inkscape:menu-tooltip="Darkens the edge with an inner blur and adds a flexible glow"
       inkscape:menu="Shadows and Glows"
       inkscape:label="Dark And Glow">
      <feGaussianBlur
         id="feGaussianBlur4303"
         result="result0"
         in="SourceGraphic"
         stdDeviation="0.5" />
      <feTurbulence
         id="feTurbulence4305"
         type="turbulence"
         baseFrequency="0.095"
         seed="488"
         numOctaves="1"
         result="result1" />
      <feComposite
         id="feComposite4307"
         result="result2"
         operator="in"
         in2="result1"
         in="result0" />
      <feComposite
         id="feComposite4309"
         result="result91"
         k1="3"
         k3="1"
         in2="result2"
         in="result4"
         operator="arithmetic" />
      <feBlend
         id="feBlend4311"
         in2="result91"
         result="fbSourceGraphic"
         mode="multiply" />
      <feColorMatrix
         id="feColorMatrix4313"
         values="0 0 0 0 0 0 0 1 0 0 0 0 1 0 0 0 0 0 5 0"
         in="fbSourceGraphic"
         result="fbSourceGraphicAlpha" />
      <feGaussianBlur
         id="feGaussianBlur4315"
         stdDeviation="3"
         in="fbSourceGraphicAlpha"
         result="result0" />
      <feOffset
         id="feOffset4317"
         dx="2"
         dy="2"
         in="result0"
         result="result3" />
      <feSpecularLighting
         id="feSpecularLighting4319"
         in="result0"
         result="result1"
         lighting-color="rgb(111,236,253)"
         surfaceScale="2"
         specularConstant="1.1"
         specularExponent="30">
        <fePointLight
           id="fePointLight4321"
           x="-5000"
           y="-10000"
           z="20000" />
      </feSpecularLighting>
      <feComposite
         id="feComposite4323"
         in2="fbSourceGraphicAlpha"
         in="result1"
         result="result2"
         operator="in"
         k2="-1" />
      <feComposite
         id="feComposite4325"
         in2="result2"
         in="fbSourceGraphic"
         result="result4"
         operator="arithmetic"
         k2="3"
         k3="1" />
      <feBlend
         result="fbSourceGraphic"
         id="feBlend4327"
         in2="result4"
         mode="multiply" />
      <feColorMatrix
         id="feColorMatrix4353"
         values="0 0 0 -1 0 0 0 0 -1 0 0 0 0 -1 0 0 0 0 1 0"
         in="fbSourceGraphic"
         result="fbSourceGraphicAlpha" />
      <feGaussianBlur
         in="fbSourceGraphic"
         result="result6"
         stdDeviation="5"
         id="feGaussianBlur4355" />
      <feComposite
         operator="atop"
         in="fbSourceGraphic"
         result="result8"
         in2="result6"
         id="feComposite4357" />
      <feComposite
         in="result8"
         operator="over"
         result="result9"
         in2="fbSourceGraphicAlpha"
         id="feComposite4359" />
      <feColorMatrix
         result="result10"
         values="1 0 0 0 0 0 1 0 0 0 0 0 1 0 0 0 0 0 1 0 "
         id="feColorMatrix4361" />
      <feBlend
         mode="normal"
         in="result10"
         in2="result6"
         id="feBlend4363" />
    </filter>
    <linearGradient
       y2="107.71935"
       x2="52.747356"
       y1="144.8622"
       x1="133.57143"
       gradientTransform="translate(195.35714,3.5714286)"
       gradientUnits="userSpaceOnUse"
       id="linearGradient4381"
       xlink:href="#linearGradient4171"
       inkscape:collect="always" />
    <linearGradient
       y2="107.71935"
       x2="52.747356"
       y1="144.8622"
       x1="133.57143"
       gradientTransform="translate(373.78182,-5.8571452)"
       gradientUnits="userSpaceOnUse"
       id="linearGradient4445"
       xlink:href="#linearGradient4171"
       inkscape:collect="always" />
  </defs>
  <metadata
     id="metadata7">
    <rdf:RDF>
      <cc:Work
         rdf:about="">
        <dc:format>image/svg+xml</dc:format>
        <dc:type
           rdf:resource="http://purl.org/dc/dcmitype/StillImage" />
        <dc:title />
      </cc:Work>
    </rdf:RDF>
  </metadata>
  <g
     id="layer1"
     inkscape:groupmode="layer"
     inkscape:label="Layer 1">
    <g
       id="g4459">
      <path
         style="opacity:0.481;fill:#008000;fill-opacity:1;stroke:#ff9700;stroke-width:0.1325963;stroke-linecap:square;stroke-linejoin:round;stroke-miterlimit:4;stroke-dasharray:none;stroke-dashoffset:0;stroke-opacity:1;filter:url(#filter4301)"
         d="m 138.84839,189.31284 c -3.91858,-5.03558 -5.57654,-7.88373 -5.97744,-10.26846 -0.11324,-0.67359 -0.24284,-2.22852 -0.28799,-3.45542 -0.0452,-1.2269 -0.12833,-2.37506 -0.1848,-2.55145 -0.10212,-0.319 -0.0984,-0.32127 0.69352,-0.42217 4.25111,-0.54171 8.6461,-3.48761 10.51132,-7.04562 0.73621,-1.40433 1.02551,-2.46391 1.13062,-4.14087 0.0887,-1.41502 0.0596,-1.59876 -0.46678,-2.94257 -0.30875,-0.78833 -1.29513,-3.04108 -2.19194,-5.00614 -3.15716,-6.91782 -3.94022,-9.65504 -3.83845,-13.41756 0.0595,-2.19822 0.30369,-2.83406 1.52303,-3.96523 0.73183,-0.67851 1.00308,-0.85085 1.61019,-1.021 2.13195,-0.59752 5.49079,0.44435 9.19392,2.85184 1.75581,1.14149 2.53103,1.47142 3.61693,1.53935 1.27233,0.0796 1.85441,-0.14591 2.92543,-1.13334 0.83251,-0.76768 0.97538,-0.96454 1.31077,-1.80688 0.72137,-1.812 0.64116,-3.90972 -0.21197,-5.54341 -0.35078,-0.67172 -0.64432,-1.03676 -1.42276,-1.76927 -0.88282,-0.83073 -1.02672,-1.02518 -1.44009,-1.9466 -1.89057,-4.2138 -1.66221,-9.31588 0.56436,-12.60923 0.62189,-0.91985 2.0603,-2.28951 2.98666,-2.84386 1.58077,-0.94604 3.84478,-0.82848 5.69352,0.29563 1.22625,0.74562 1.90318,1.31237 4.7459,3.97344 1.53656,1.43837 3.01871,2.75346 3.29368,2.92242 2.33587,1.43536 5.47758,0.8765 7.08834,-1.26092 1.21163,-1.6078 1.44708,-2.90059 1.02106,-5.60664 -0.75617,-4.80323 0.17026,-8.37051 2.80595,-10.80438 1.48079,-1.367414 4.98657,-3.156224 5.99293,-3.057894 1.06269,0.10385 3.48142,0.7256 4.88617,1.25603 2.83286,1.069684 5.45122,2.752344 8.10807,5.210604 3.54786,3.28264 5.34198,6.48501 5.22868,9.33277 -0.0843,2.1179 -0.9305,3.81699 -3.51746,7.0625 -1.96842,2.46952 -2.73077,3.52372 -3.44665,4.76612 -1.7096,2.967 -1.9954,5.76114 -0.95657,9.35213 0.98521,3.40566 2.17388,5.30528 6.3065,10.07843 5.216,6.02444 6.4245,8.31379 6.27564,11.88845 -0.10497,2.52085 -0.80204,4.41802 -3.42053,9.30941 -1.56295,2.91963 -2.07081,3.99282 -2.59523,5.48413 -0.93018,2.64514 -0.97621,4.5977 -0.22209,9.41906 0.99418,6.35612 0.89601,8.56762 -0.51042,11.49741 -1.45845,3.03821 -3.71072,4.94744 -6.33411,5.36941 -2.94495,0.47369 -5.16749,-0.0448 -12.67245,-2.95644 -5.09591,-1.97701 -7.08394,-2.53725 -9.40542,-2.65047 -2.28172,-0.1113 -4.11459,0.22987 -6.15633,1.14592 -1.50737,0.6763 -2.43476,1.26591 -5.34639,3.39907 -2.91022,2.13214 -4.26408,2.97551 -5.73499,3.57254 -2.48527,1.00878 -5.20014,1.11506 -7.29263,0.2855 -1.92733,-0.76407 -4.34166,-2.333 -6.84171,-4.44606 -0.91763,-0.77558 -6.28843,-6.37706 -7.03796,-7.34025 z"
         id="path4151"
         inkscape:connector-curvature="0" />
      <path
         style="opacity:0.481;fill:url(#linearGradient4177);fill-opacity:1;stroke:#ff9700;stroke-width:0.1325963;stroke-linecap:square;stroke-linejoin:round;stroke-miterlimit:4;stroke-dasharray:none;stroke-dashoffset:0;stroke-opacity:1;filter:url(#filter4241)"
         d="m 67.886632,200.11445 c -2.483073,-0.41163 -4.647934,-1.17988 -8.190394,-2.90658 -1.242677,-0.60571 -3.082,-1.49231 -4.087384,-1.9702 -3.975062,-1.8895 -6.569665,-4.18402 -7.916779,-7.00115 -0.580508,-1.21399 -0.832693,-2.18518 -1.136703,-4.37763 -0.284414,-2.05109 -0.20518,-3.6456 0.280678,-5.64855 0.431672,-1.77957 0.889397,-3.01718 2.498347,-6.75512 0.70753,-1.64374 1.539922,-3.74653 1.84976,-4.67286 0.550798,-1.64672 0.561161,-1.71436 0.465179,-3.03609 -0.431194,-5.93777 -2.939118,-10.84561 -8.943968,-17.50276 -1.787541,-1.98171 -2.562786,-3.09135 -3.712324,-5.31357 -3.295624,-6.37092 -3.863764,-14.11567 -1.605645,-21.88783 1.927678,-6.63482 6.507939,-13.25249 11.011747,-15.91002 10.502468,-6.197112 23.370001,-10.117882 37.2098,-11.337912 3.99403,-0.35209 11.43862,-0.65508 11.43824,-0.46553 -4e-5,0.0194 -0.13023,0.37774 -0.28931,0.79629 -0.55166,1.45146 -1.12288,4.12169 -1.12031,5.23705 0.009,3.722682 2.1818,7.155882 6.215954,9.819852 1.58308,1.0454 2.42118,1.9048 2.93478,3.00939 0.50209,1.07985 0.52894,2.84911 0.0589,3.88403 -0.67514,1.48668 -1.83126,2.46162 -3.35645,2.83046 -0.46342,0.11207 -2.431234,0.30917 -4.372924,0.438 -1.94169,0.12884 -4.11652,0.35168 -4.83295,0.49522 -3.92614,0.78658 -5.83106,2.98908 -5.8277,6.73809 0.004,5.06158 4.39982,10.24797 9.98334,11.78027 0.83706,0.22971 1.18287,0.25698 1.9521,0.15391 1.20951,-0.16205 2.174644,-0.002 3.287974,0.54644 2.80893,1.38283 4.16973,4.77877 2.73999,6.83778 -0.49903,0.71867 -1.55511,1.43113 -2.48399,1.67577 -5.024614,1.32334 -7.155694,2.26728 -8.840854,3.91596 -0.45971,0.44975 -0.98436,1.14973 -1.21721,1.62396 -0.34806,0.70885 -0.40922,1.00241 -0.40904,1.96319 2.8e-4,1.81479 0.28749,2.41289 1.97246,4.10834 2.7446,2.7617 5.51416,4.20338 12.289914,6.39744 1.70868,0.55329 3.9328,1.30719 4.94248,1.67532 1.7995,0.65612 1.85676,0.69028 2.89776,1.72845 1.17807,1.17488 1.87809,2.35943 2.42008,4.0952 0.29426,0.9424 0.32978,1.32362 0.32231,3.45973 -0.008,2.1928 -0.0413,2.50802 -0.38911,3.64107 -0.48983,1.59591 -1.03772,2.79598 -1.84921,4.05041 -0.57735,0.89249 -0.8193,1.11524 -2.16709,1.99507 -2.04637,1.33586 -6.1885,3.39134 -9.36166,4.64559 -1.43293,0.56639 -5.210714,1.88278 -8.395084,2.92533 -10.66644,3.49211 -13.857423,4.68899 -17.716842,6.64524 -1.2785,0.64804 -2.771833,1.30513 -3.318518,1.46021 -1.283198,0.36399 -3.720073,0.46311 -5.230384,0.21274 z"
         id="path4153"
         inkscape:connector-curvature="0" />
    </g>
    <g
       transform="translate(40.514114,-3.8680044)"
       id="g4383">
      <path
         inkscape:connector-curvature="0"
         id="path4377"
         d="m 350.99125,193.59855 c -3.91858,-5.03558 -5.57654,-7.88373 -5.97744,-10.26846 -0.11324,-0.67359 -0.24284,-2.22852 -0.28799,-3.45542 -0.0452,-1.2269 -0.12833,-2.37506 -0.1848,-2.55145 -0.10212,-0.319 -0.0984,-0.32127 0.69352,-0.42217 4.25111,-0.54171 8.6461,-3.48761 10.51132,-7.04562 0.73621,-1.40433 1.02551,-2.46391 1.13062,-4.14087 0.0887,-1.41502 0.0596,-1.59876 -0.46678,-2.94257 -0.30875,-0.78833 -1.29513,-3.04108 -2.19194,-5.00614 -3.15716,-6.91782 -3.94022,-9.65504 -3.83845,-13.41756 0.0595,-2.19822 0.30369,-2.83406 1.52303,-3.96523 0.73183,-0.67851 1.00308,-0.85085 1.61019,-1.021 2.13195,-0.59752 5.49079,0.44435 9.19392,2.85184 1.75581,1.14149 2.53103,1.47142 3.61693,1.53935 1.27233,0.0796 1.85441,-0.14591 2.92543,-1.13334 0.83251,-0.76768 0.97538,-0.96454 1.31077,-1.80688 0.72137,-1.812 0.64116,-3.90972 -0.21197,-5.54341 -0.35078,-0.67172 -0.64432,-1.03676 -1.42276,-1.76927 -0.88282,-0.83073 -1.02672,-1.02518 -1.44009,-1.9466 -1.89057,-4.2138 -1.66221,-9.31588 0.56436,-12.60923 0.62189,-0.91985 2.0603,-2.28951 2.98666,-2.84386 1.58077,-0.94604 3.84478,-0.82848 5.69352,0.29563 1.22625,0.74562 1.90318,1.31237 4.7459,3.97344 1.53656,1.43837 3.01871,2.75346 3.29368,2.92242 2.33587,1.43536 5.47758,0.8765 7.08834,-1.26092 1.21163,-1.6078 1.44708,-2.90059 1.02106,-5.60664 -0.75617,-4.80323 0.17026,-8.37051 2.80595,-10.80438 1.48079,-1.36741 4.98657,-3.15622 5.99293,-3.05789 1.06269,0.10385 3.48142,0.7256 4.88617,1.25603 2.83286,1.06968 5.45122,2.75234 8.10807,5.2106 3.54786,3.28264 5.34198,6.48501 5.22868,9.33277 -0.0843,2.1179 -0.9305,3.81699 -3.51746,7.0625 -1.96842,2.46952 -2.73077,3.52372 -3.44665,4.76612 -1.7096,2.967 -1.9954,5.76114 -0.95657,9.35213 0.98521,3.40566 2.17388,5.30528 6.3065,10.07843 5.216,6.02444 6.4245,8.31379 6.27564,11.88845 -0.10497,2.52085 -0.80204,4.41802 -3.42053,9.30941 -1.56295,2.91963 -2.07081,3.99282 -2.59523,5.48413 -0.93018,2.64514 -0.97621,4.5977 -0.22209,9.41906 0.99418,6.35612 0.89601,8.56762 -0.51042,11.49741 -1.45845,3.03821 -3.71072,4.94744 -6.33411,5.36941 -2.94495,0.47369 -5.16749,-0.0448 -12.67245,-2.95644 -5.09591,-1.97701 -7.08394,-2.53725 -9.40542,-2.65047 -2.28172,-0.1113 -4.11459,0.22987 -6.15633,1.14592 -1.50737,0.6763 -2.43476,1.26591 -5.34639,3.39907 -2.91022,2.13214 -4.26408,2.97551 -5.73499,3.57254 -2.48527,1.00878 -5.20014,1.11506 -7.29263,0.2855 -1.92733,-0.76407 -4.34166,-2.333 -6.84171,-4.44606 -0.91763,-0.77558 -6.28843,-6.37706 -7.03796,-7.34025 z"
         style="opacity:0.481;fill:#008000;fill-opacity:1;stroke:#ff9700;stroke-width:0.1325963;stroke-linecap:square;stroke-linejoin:round;stroke-miterlimit:4;stroke-dasharray:none;stroke-dashoffset:0;stroke-opacity:1;filter:url(#filter4301)"
         transform="matrix(0.65391714,-0.75656617,0.75656617,0.65391714,-29.665968,332.10692)" />
      <path
         inkscape:connector-curvature="0"
         id="path4379"
         d="m 280.02949,204.40016 c -2.48307,-0.41163 -4.64793,-1.17988 -8.19039,-2.90658 -1.24268,-0.60571 -3.082,-1.49231 -4.08739,-1.9702 -3.97506,-1.8895 -6.56966,-4.18402 -7.91678,-7.00115 -0.58051,-1.21399 -0.83269,-2.18518 -1.1367,-4.37763 -0.28441,-2.05109 -0.20518,-3.6456 0.28068,-5.64855 0.43167,-1.77957 0.88939,-3.01718 2.49834,-6.75512 0.70753,-1.64374 1.53993,-3.74653 1.84976,-4.67286 0.5508,-1.64672 0.56117,-1.71436 0.46518,-3.03609 -0.43119,-5.93777 -2.93911,-10.84561 -8.94396,-17.50276 -1.78755,-1.98171 -2.56279,-3.09135 -3.71233,-5.31357 -3.29562,-6.37092 -3.86376,-14.11567 -1.60564,-21.88783 1.92767,-6.63482 6.50794,-13.25249 11.01174,-15.91002 10.50247,-6.19711 23.37,-10.117878 37.2098,-11.337908 3.99403,-0.35209 11.43862,-0.65508 11.43824,-0.46553 -4e-5,0.0194 -0.13023,0.37774 -0.28931,0.79629 -0.55166,1.45146 -1.12288,4.121688 -1.12031,5.237048 0.009,3.72268 2.1818,7.15588 6.21596,9.81985 1.58308,1.0454 2.42118,1.9048 2.93478,3.00939 0.50209,1.07985 0.52894,2.84911 0.0589,3.88403 -0.67514,1.48668 -1.83126,2.46162 -3.35645,2.83046 -0.46342,0.11207 -2.43124,0.30917 -4.37293,0.438 -1.94169,0.12884 -4.11652,0.35168 -4.83295,0.49522 -3.92614,0.78658 -5.83106,2.98908 -5.8277,6.73809 0.004,5.06158 4.39982,10.24797 9.98334,11.78027 0.83706,0.22971 1.18287,0.25698 1.9521,0.15391 1.20951,-0.16205 2.17465,-0.002 3.28798,0.54644 2.80893,1.38283 4.16973,4.77877 2.73999,6.83778 -0.49903,0.71867 -1.55511,1.43113 -2.48399,1.67577 -5.02462,1.32334 -7.1557,2.26728 -8.84086,3.91596 -0.45971,0.44975 -0.98436,1.14973 -1.21721,1.62396 -0.34806,0.70885 -0.40922,1.00241 -0.40904,1.96319 2.8e-4,1.81479 0.28749,2.41289 1.97246,4.10834 2.7446,2.7617 5.51416,4.20338 12.28992,6.39744 1.70868,0.55329 3.9328,1.30719 4.94248,1.67532 1.7995,0.65612 1.85676,0.69028 2.89776,1.72845 1.17807,1.17488 1.87809,2.35943 2.42008,4.0952 0.29426,0.9424 0.32978,1.32362 0.32231,3.45973 -0.008,2.1928 -0.0413,2.50802 -0.38911,3.64107 -0.48983,1.59591 -1.03772,2.79598 -1.84921,4.05041 -0.57735,0.89249 -0.8193,1.11524 -2.16709,1.99507 -2.04637,1.33586 -6.1885,3.39134 -9.36166,4.64559 -1.43293,0.56639 -5.21072,1.88278 -8.39509,2.92533 -10.66644,3.49211 -13.85742,4.68899 -17.71684,6.64524 -1.2785,0.64804 -2.77183,1.30513 -3.31852,1.46021 -1.28319,0.36399 -3.72007,0.46311 -5.23038,0.21274 z"
         style="opacity:0.481;fill:url(#linearGradient4381);fill-opacity:1;stroke:#ff9700;stroke-width:0.1325963;stroke-linecap:square;stroke-linejoin:round;stroke-miterlimit:4;stroke-dasharray:none;stroke-dashoffset:0;stroke-opacity:1;filter:url(#filter4241)" />
    </g>
    <g
       transform="translate(70.205602,-0.50507627)"
       id="g4453">
      <path
         inkscape:connector-curvature="0"
         id="path4441"
         d="m 529.41592,184.16998 c -3.91858,-5.03558 -5.57654,-7.88373 -5.97744,-10.26846 -0.11324,-0.67359 -0.24284,-2.22852 -0.28799,-3.45542 -0.0452,-1.2269 -0.12833,-2.37506 -0.1848,-2.55145 -0.10212,-0.319 -0.0984,-0.32127 0.69352,-0.42217 4.25111,-0.54171 8.6461,-3.48761 10.51132,-7.04562 0.73621,-1.40433 1.02551,-2.46391 1.13062,-4.14087 0.0887,-1.41502 0.0596,-1.59876 -0.46678,-2.94257 -0.30875,-0.78833 -1.29513,-3.04108 -2.19194,-5.00614 -3.15716,-6.91782 -3.94022,-9.65504 -3.83845,-13.41756 0.0595,-2.19822 0.30369,-2.83406 1.52303,-3.96523 0.73183,-0.67851 1.00308,-0.85085 1.61019,-1.021 2.13195,-0.59752 5.49079,0.44435 9.19392,2.85184 1.75581,1.14149 2.53103,1.47142 3.61693,1.53935 1.27233,0.0796 1.85441,-0.14591 2.92543,-1.13334 0.83251,-0.76768 0.97538,-0.96454 1.31077,-1.80688 0.72137,-1.812 0.64116,-3.90972 -0.21197,-5.54341 -0.35078,-0.67172 -0.64432,-1.03676 -1.42276,-1.76927 -0.88282,-0.83073 -1.02672,-1.02518 -1.44009,-1.9466 -1.89057,-4.2138 -1.66221,-9.31588 0.56436,-12.60923 0.62189,-0.91985 2.0603,-2.28951 2.98666,-2.84386 1.58077,-0.94604 3.84478,-0.82848 5.69352,0.29563 1.22625,0.74562 1.90318,1.31237 4.7459,3.97344 1.53656,1.43837 3.01871,2.75346 3.29368,2.92242 2.33587,1.43536 5.47758,0.8765 7.08834,-1.26092 1.21163,-1.6078 1.44708,-2.90059 1.02106,-5.60664 -0.75617,-4.80323 0.17026,-8.370509 2.80595,-10.804379 1.48079,-1.367414 4.98657,-3.156224 5.99293,-3.057894 1.06269,0.10385 3.48142,0.7256 4.88617,1.25603 2.83286,1.069684 5.45122,2.752344 8.10807,5.210604 3.54786,3.282639 5.34198,6.485009 5.22868,9.332769 -0.0843,2.1179 -0.9305,3.81699 -3.51746,7.0625 -1.96842,2.46952 -2.73077,3.52372 -3.44665,4.76612 -1.7096,2.967 -1.9954,5.76114 -0.95657,9.35213 0.98521,3.40566 2.17388,5.30528 6.3065,10.07843 5.216,6.02444 6.4245,8.31379 6.27564,11.88845 -0.10497,2.52085 -0.80204,4.41802 -3.42053,9.30941 -1.56295,2.91963 -2.07081,3.99282 -2.59523,5.48413 -0.93018,2.64514 -0.97621,4.5977 -0.22209,9.41906 0.99418,6.35612 0.89601,8.56762 -0.51042,11.49741 -1.45845,3.03821 -3.71072,4.94744 -6.33411,5.36941 -2.94495,0.47369 -5.16749,-0.0448 -12.67245,-2.95644 -5.09591,-1.97701 -7.08394,-2.53725 -9.40542,-2.65047 -2.28172,-0.1113 -4.11459,0.22987 -6.15633,1.14592 -1.50737,0.6763 -2.43476,1.26591 -5.34639,3.39907 -2.91022,2.13214 -4.26408,2.97551 -5.73499,3.57254 -2.48527,1.00878 -5.20014,1.11506 -7.29263,0.2855 -1.92733,-0.76407 -4.34166,-2.333 -6.84171,-4.44606 -0.91763,-0.77558 -6.28843,-6.37706 -7.03796,-7.34025 z"
         style="opacity:0.481;fill:#008000;fill-opacity:1;stroke:#ff9700;stroke-width:0.1325963;stroke-linecap:square;stroke-linejoin:round;stroke-miterlimit:4;stroke-dasharray:none;stroke-dashoffset:0;stroke-opacity:1;filter:url(#filter4301)" />
      <path
         inkscape:connector-curvature="0"
         id="path4443"
         d="m 458.45416,194.97159 c -2.48307,-0.41163 -4.64793,-1.17988 -8.19039,-2.90658 -1.24268,-0.60571 -3.082,-1.49231 -4.08739,-1.9702 -3.97506,-1.8895 -6.56966,-4.18402 -7.91677,-7.00115 -0.58051,-1.21399 -0.8327,-2.18518 -1.13671,-4.37763 -0.28441,-2.05109 -0.20518,-3.6456 0.28068,-5.64855 0.43167,-1.77957 0.8894,-3.01718 2.49835,-6.75512 0.70753,-1.64374 1.53992,-3.74653 1.84976,-4.67286 0.5508,-1.64672 0.56116,-1.71436 0.46518,-3.03609 -0.4312,-5.93777 -2.93912,-10.84561 -8.94397,-17.50276 -1.78754,-1.98171 -2.56279,-3.09135 -3.71233,-5.31357 -3.29562,-6.37092 -3.86376,-14.11567 -1.60564,-21.88783 1.92768,-6.63482 6.50794,-13.25249 11.01175,-15.910019 10.50246,-6.197112 23.37,-10.117882 37.2098,-11.337912 3.99403,-0.35209 11.43862,-0.65508 11.43824,-0.46553 -4e-5,0.0194 -0.13023,0.37774 -0.28931,0.79629 -0.55166,1.45146 -1.12288,4.12169 -1.12031,5.23705 0.009,3.722682 2.1818,7.155882 6.21595,9.819851 1.58308,1.0454 2.42118,1.9048 2.93478,3.00939 0.50209,1.07985 0.52894,2.84911 0.0589,3.88403 -0.67514,1.48668 -1.83126,2.46162 -3.35645,2.83046 -0.46342,0.11207 -2.43123,0.30917 -4.37292,0.438 -1.94169,0.12884 -4.11652,0.35168 -4.83295,0.49522 -3.92614,0.78658 -5.83106,2.98908 -5.8277,6.73809 0.004,5.06158 4.39982,10.24797 9.98334,11.78027 0.83706,0.22971 1.18287,0.25698 1.9521,0.15391 1.20951,-0.16205 2.17464,-0.002 3.28797,0.54644 2.80893,1.38283 4.16973,4.77877 2.73999,6.83778 -0.49903,0.71867 -1.55511,1.43113 -2.48399,1.67577 -5.02461,1.32334 -7.15569,2.26728 -8.84085,3.91596 -0.45971,0.44975 -0.98436,1.14973 -1.21721,1.62396 -0.34806,0.70885 -0.40922,1.00241 -0.40904,1.96319 2.8e-4,1.81479 0.28749,2.41289 1.97246,4.10834 2.7446,2.7617 5.51416,4.20338 12.28991,6.39744 1.70868,0.55329 3.9328,1.30719 4.94248,1.67532 1.7995,0.65612 1.85676,0.69028 2.89776,1.72845 1.17807,1.17488 1.87809,2.35943 2.42008,4.0952 0.29426,0.9424 0.32978,1.32362 0.32231,3.45973 -0.008,2.1928 -0.0413,2.50802 -0.38911,3.64107 -0.48983,1.59591 -1.03772,2.79598 -1.84921,4.05041 -0.57735,0.89249 -0.8193,1.11524 -2.16709,1.99507 -2.04637,1.33586 -6.1885,3.39134 -9.36166,4.64559 -1.43293,0.56639 -5.21071,1.88278 -8.39508,2.92533 -10.66644,3.49211 -13.85743,4.68899 -17.71685,6.64524 -1.2785,0.64804 -2.77183,1.30513 -3.31851,1.46021 -1.2832,0.36399 -3.72008,0.46311 -5.23039,0.21274 z"
         style="opacity:0.481;fill:url(#linearGradient4445);fill-opacity:1;stroke:#ff9700;stroke-width:0.1325963;stroke-linecap:square;stroke-linejoin:round;stroke-miterlimit:4;stroke-dasharray:none;stroke-dashoffset:0;stroke-opacity:1;filter:url(#filter4241)" />
      <path
         style="opacity:0.481;fill:#008000;fill-opacity:1;stroke:#ff9700;stroke-width:0.1325963;stroke-linecap:square;stroke-linejoin:round;stroke-miterlimit:4;stroke-dasharray:none;stroke-dashoffset:0;stroke-opacity:1;filter:url(#filter4301)"
         d="m 529.41592,184.16998 c -3.91858,-5.03558 -5.57654,-7.88373 -5.97744,-10.26846 -0.11324,-0.67359 -0.24284,-2.22852 -0.28799,-3.45542 -0.0452,-1.2269 -0.12833,-2.37506 -0.1848,-2.55145 -0.10212,-0.319 -0.0984,-0.32127 0.69352,-0.42217 4.25111,-0.54171 8.6461,-3.48761 10.51132,-7.04562 0.73621,-1.40433 1.02551,-2.46391 1.13062,-4.14087 0.0887,-1.41502 0.0596,-1.59876 -0.46678,-2.94257 -0.30875,-0.78833 -1.29513,-3.04108 -2.19194,-5.00614 -3.15716,-6.91782 -3.94022,-9.65504 -3.83845,-13.41756 0.0595,-2.19822 0.30369,-2.83406 1.52303,-3.96523 0.73183,-0.67851 1.00308,-0.85085 1.61019,-1.021 2.13195,-0.59752 5.49079,0.44435 9.19392,2.85184 1.75581,1.14149 2.53103,1.47142 3.61693,1.53935 1.27233,0.0796 1.85441,-0.14591 2.92543,-1.13334 0.83251,-0.76768 0.97538,-0.96454 1.31077,-1.80688 0.72137,-1.812 0.64116,-3.90972 -0.21197,-5.54341 -0.35078,-0.67172 -0.64432,-1.03676 -1.42276,-1.76927 -0.88282,-0.83073 -1.02672,-1.02518 -1.44009,-1.9466 -1.89057,-4.2138 -1.66221,-9.31588 0.56436,-12.60923 0.62189,-0.91985 2.0603,-2.28951 2.98666,-2.84386 1.58077,-0.94604 3.84478,-0.82848 5.69352,0.29563 1.22625,0.74562 1.90318,1.31237 4.7459,3.97344 1.53656,1.43837 3.01871,2.75346 3.29368,2.92242 2.33587,1.43536 5.47758,0.8765 7.08834,-1.26092 1.21163,-1.6078 1.44708,-2.90059 1.02106,-5.60664 -0.75617,-4.80323 0.17026,-8.370509 2.80595,-10.804379 1.48079,-1.367414 4.98657,-3.156224 5.99293,-3.057894 1.06269,0.10385 3.48142,0.7256 4.88617,1.25603 2.83286,1.069684 5.45122,2.752344 8.10807,5.210604 3.54786,3.282639 5.34198,6.485009 5.22868,9.332769 -0.0843,2.1179 -0.9305,3.81699 -3.51746,7.0625 -1.96842,2.46952 -2.73077,3.52372 -3.44665,4.76612 -1.7096,2.967 -1.9954,5.76114 -0.95657,9.35213 0.98521,3.40566 2.17388,5.30528 6.3065,10.07843 5.216,6.02444 6.4245,8.31379 6.27564,11.88845 -0.10497,2.52085 -0.80204,4.41802 -3.42053,9.30941 -1.56295,2.91963 -2.07081,3.99282 -2.59523,5.48413 -0.93018,2.64514 -0.97621,4.5977 -0.22209,9.41906 0.99418,6.35612 0.89601,8.56762 -0.51042,11.49741 -1.45845,3.03821 -3.71072,4.94744 -6.33411,5.36941 -2.94495,0.47369 -5.16749,-0.0448 -12.67245,-2.95644 -5.09591,-1.97701 -7.08394,-2.53725 -9.40542,-2.65047 -2.28172,-0.1113 -4.11459,0.22987 -6.15633,1.14592 -1.50737,0.6763 -2.43476,1.26591 -5.34639,3.39907 -2.91022,2.13214 -4.26408,2.97551 -5.73499,3.57254 -2.48527,1.00878 -5.20014,1.11506 -7.29263,0.2855 -1.92733,-0.76407 -4.34166,-2.333 -6.84171,-4.44606 -0.91763,-0.77558 -6.28843,-6.37706 -7.03796,-7.34025 z"
         id="path4447"
         inkscape:connector-curvature="0" />
      <path
         inkscape:connector-curvature="0"
         id="path4449"
         d="m 529.41592,184.16998 c -3.91858,-5.03558 -5.57654,-7.88373 -5.97744,-10.26846 -0.11324,-0.67359 -0.24284,-2.22852 -0.28799,-3.45542 -0.0452,-1.2269 -0.12833,-2.37506 -0.1848,-2.55145 -0.10212,-0.319 -0.0984,-0.32127 0.69352,-0.42217 4.25111,-0.54171 8.6461,-3.48761 10.51132,-7.04562 0.73621,-1.40433 1.02551,-2.46391 1.13062,-4.14087 0.0887,-1.41502 0.0596,-1.59876 -0.46678,-2.94257 -0.30875,-0.78833 -1.29513,-3.04108 -2.19194,-5.00614 -3.15716,-6.91782 -3.94022,-9.65504 -3.83845,-13.41756 0.0595,-2.19822 0.30369,-2.83406 1.52303,-3.96523 0.73183,-0.67851 1.00308,-0.85085 1.61019,-1.021 2.13195,-0.59752 5.49079,0.44435 9.19392,2.85184 1.75581,1.14149 2.53103,1.47142 3.61693,1.53935 1.27233,0.0796 1.85441,-0.14591 2.92543,-1.13334 0.83251,-0.76768 0.97538,-0.96454 1.31077,-1.80688 0.72137,-1.812 0.64116,-3.90972 -0.21197,-5.54341 -0.35078,-0.67172 -0.64432,-1.03676 -1.42276,-1.76927 -0.88282,-0.83073 -1.02672,-1.02518 -1.44009,-1.9466 -1.89057,-4.2138 -1.66221,-9.31588 0.56436,-12.60923 0.62189,-0.91985 2.0603,-2.28951 2.98666,-2.84386 1.58077,-0.94604 3.84478,-0.82848 5.69352,0.29563 1.22625,0.74562 1.90318,1.31237 4.7459,3.97344 1.53656,1.43837 3.01871,2.75346 3.29368,2.92242 2.33587,1.43536 5.47758,0.8765 7.08834,-1.26092 1.21163,-1.6078 1.44708,-2.90059 1.02106,-5.60664 -0.75617,-4.80323 0.17026,-8.370509 2.80595,-10.804379 1.48079,-1.367414 4.98657,-3.156224 5.99293,-3.057894 1.06269,0.10385 3.48142,0.7256 4.88617,1.25603 2.83286,1.069684 5.45122,2.752344 8.10807,5.210604 3.54786,3.282639 5.34198,6.485009 5.22868,9.332769 -0.0843,2.1179 -0.9305,3.81699 -3.51746,7.0625 -1.96842,2.46952 -2.73077,3.52372 -3.44665,4.76612 -1.7096,2.967 -1.9954,5.76114 -0.95657,9.35213 0.98521,3.40566 2.17388,5.30528 6.3065,10.07843 5.216,6.02444 6.4245,8.31379 6.27564,11.88845 -0.10497,2.52085 -0.80204,4.41802 -3.42053,9.30941 -1.56295,2.91963 -2.07081,3.99282 -2.59523,5.48413 -0.93018,2.64514 -0.97621,4.5977 -0.22209,9.41906 0.99418,6.35612 0.89601,8.56762 -0.51042,11.49741 -1.45845,3.03821 -3.71072,4.94744 -6.33411,5.36941 -2.94495,0.47369 -5.16749,-0.0448 -12.67245,-2.95644 -5.09591,-1.97701 -7.08394,-2.53725 -9.40542,-2.65047 -2.28172,-0.1113 -4.11459,0.22987 -6.15633,1.14592 -1.50737,0.6763 -2.43476,1.26591 -5.34639,3.39907 -2.91022,2.13214 -4.26408,2.97551 -5.73499,3.57254 -2.48527,1.00878 -5.20014,1.11506 -7.29263,0.2855 -1.92733,-0.76407 -4.34166,-2.333 -6.84171,-4.44606 -0.91763,-0.77558 -6.28843,-6.37706 -7.03796,-7.34025 z"
         style="opacity:0.481;fill:#ffff50;fill-opacity:1;stroke:#ff9700;stroke-width:0.1325963;stroke-linecap:square;stroke-linejoin:round;stroke-miterlimit:4;stroke-dasharray:none;stroke-dashoffset:0;stroke-opacity:1;filter:url(#filter4301)" />
    </g>
    <g
       id="g4469">
      <path
         style="fill:none;fill-rule:evenodd;stroke:#000000;stroke-width:1px;stroke-linecap:butt;stroke-linejoin:miter;stroke-opacity:1"
         d="m 230.81986,158.88228 41.92133,0"
         id="path4465"
         inkscape:connector-curvature="0" />
      <path
         style="fill:none;fill-rule:evenodd;stroke:#000000;stroke-width:1px;stroke-linecap:butt;stroke-linejoin:miter;stroke-opacity:1"
         d="M 272.74119,158.88228 261.07143,148.43363"
         id="path4467"
         inkscape:connector-curvature="0" />
    </g>
    <g
       transform="matrix(-1,0,0,-1,504.25172,326.37197)"
       id="g4473">
      <path
         inkscape:connector-curvature="0"
         id="path4475"
         d="m 230.81986,158.88228 41.92133,0"
         style="fill:none;fill-rule:evenodd;stroke:#000000;stroke-width:1px;stroke-linecap:butt;stroke-linejoin:miter;stroke-opacity:1" />
      <path
         inkscape:connector-curvature="0"
         id="path4477"
         d="M 272.74119,158.88228 261.07143,148.43363"
         style="fill:none;fill-rule:evenodd;stroke:#000000;stroke-width:1px;stroke-linecap:butt;stroke-linejoin:miter;stroke-opacity:1" />
    </g>
    <g
       transform="translate(217.1335,-1.0714289)"
       id="g4479">
      <path
         inkscape:connector-curvature="0"
         id="path4481"
         d="m 230.81986,158.88228 41.92133,0"
         style="fill:none;fill-rule:evenodd;stroke:#000000;stroke-width:1px;stroke-linecap:butt;stroke-linejoin:miter;stroke-opacity:1" />
      <path
         inkscape:connector-curvature="0"
         id="path4483"
         d="M 272.74119,158.88228 261.07143,148.43363"
         style="fill:none;fill-rule:evenodd;stroke:#000000;stroke-width:1px;stroke-linecap:butt;stroke-linejoin:miter;stroke-opacity:1" />
    </g>
    <g
       id="g4491"
       transform="matrix(1,0,0,-1,217.1335,316.37197)">
      <path
         style="fill:none;fill-rule:evenodd;stroke:#000000;stroke-width:1px;stroke-linecap:butt;stroke-linejoin:miter;stroke-opacity:1"
         d="m 230.81986,158.88228 41.92133,0"
         id="path4493"
         inkscape:connector-curvature="0" />
      <path
         style="fill:none;fill-rule:evenodd;stroke:#000000;stroke-width:1px;stroke-linecap:butt;stroke-linejoin:miter;stroke-opacity:1"
         d="M 272.74119,158.88228 261.07143,148.43363"
         id="path4495"
         inkscape:connector-curvature="0" />
    </g>
    <g
       transform="matrix(0.41582641,0,0,0.41582641,-63.568438,94.371212)"
       id="g4571">
      <g
         style="font-style:normal;font-variant:normal;font-weight:normal;font-stretch:normal;letter-spacing:normal;word-spacing:normal;text-anchor:start;fill:none;fill-opacity:1;fill-rule:evenodd;stroke:#000000;stroke-linecap:butt;stroke-linejoin:miter;stroke-miterlimit:10.43299961;stroke-dasharray:none;stroke-dashoffset:0;stroke-opacity:1"
         word-spacing="normal"
         letter-spacing="normal"
         font-size-adjust="none"
         font-stretch="normal"
         font-weight="normal"
         font-variant="normal"
         font-style="normal"
         stroke-miterlimit="10.433"
         xml:space="preserve"
         transform="matrix(1.0629921,0,0,-1.0629921,-186.02362,789.27165)"
         id="content"><path
           style="fill:#000000;stroke-width:0"
           inkscape:connector-curvature="0"
           id="path4574"
           d="m 506.44683,438.88032 0.01,0.02 0.01,0.03 0.02,0.05 0.02,0.05 0.02,0.05 0.02,0.05 0.02,0.05 0.02,0.05 0.01,0.05 0.01,0.03 0.01,0.02 0.01,0.02 0.01,0.03 0,0.02 0.01,0.02 0.01,0.02 0,0.02 0.01,0.02 0,0.02 0.01,0.01 0,0.02 0,0.02 0,0.01 0,0.01 0.01,0.01 c 0,0.05 0,0.55 -0.6,0.55 -0.45,0 -0.55,-0.3 -0.64,-0.61 -3.25,-7.38 -5.08,-10.7 -13.61,-10.7 l -7.26,0 c -0.71,0 -0.8,0 -1.1,0.04 -0.5,0.05 -0.65,0.1 -0.65,0.5 0,0.14 0,0.25 0.25,1.14 l 3.39,13.61 4.93,0 c 4.24,0 4.24,-1.04 4.24,-2.29 0,-0.35 0,-0.96 -0.36,-2.44 -0.09,-0.25 -0.14,-0.41 -0.14,-0.55 0,-0.25 0.19,-0.55 0.64,-0.55 0.41,0 0.55,0.25 0.75,0.99 l 2.84,11.67 c 0,0.3 -0.25,0.55 -0.61,0.55 -0.43,0 -0.54,-0.3 -0.68,-0.91 -1.05,-3.78 -1.96,-4.92 -6.54,-4.92 l -4.68,0 3,12 c 0.43,1.75 0.5,1.94 2.68,1.94 l 7.02,0 c 6.08,0 7.58,-1.44 7.58,-5.53 0,-1.19 0,-1.29 -0.2,-2.64 0,-0.3 -0.05,-0.65 -0.05,-0.9 0,-0.25 0.15,-0.59 0.59,-0.59 0.56,0 0.61,0.3 0.71,1.25 l 1,8.61 c 0.14,1.34 -0.1,1.34 -1.35,1.34 l -25.15,0 c -1,0 -1.5,0 -1.5,-1 0,-0.54 0.45,-0.54 1.39,-0.54 1.84,0 3.23,0 3.23,-0.89 0,-0.21 0,-0.3 -0.25,-1.21 l -6.56,-26.34 c -0.5,-1.95 -0.61,-2.34 -4.55,-2.34 -0.84,0 -1.39,0 -1.39,-0.96 0,-0.59 0.45,-0.59 1.39,-0.59 l 25.86,0 c 1.16,0 1.2,0.05 1.55,0.84 z" /><path
           style="fill:#000000;stroke-width:0"
           inkscape:connector-curvature="0"
           id="path4576"
           d="m 723.59605,461.81032 0,0.02 0,0.02 -0.01,0.01 0,0.02 0,0.02 -0.01,0.02 0,0.02 -0.01,0.02 0,0.02 -0.01,0.02 -0.01,0.02 -0.01,0.02 -0.01,0.02 -0.01,0.02 -0.02,0.02 -0.01,0.02 -0.02,0.02 -0.02,0.02 -0.01,0.02 -0.02,0.02 -0.03,0.01 -0.02,0.02 -0.02,0.01 -0.03,0.02 -0.03,0.01 -0.03,0.01 -0.01,0.01 -0.02,0 -0.01,0.01 -0.02,0 -0.02,0 -0.01,0.01 -0.02,0 -0.02,0 -0.02,0 -0.02,0 -0.02,0 -0.02,0 c -0.25,0 -0.31,-0.04 -0.91,-0.75 l -2.39,-2.84 c -1.29,2.34 -3.89,3.59 -7.12,3.59 -6.33,0 -12.3,-5.73 -12.3,-11.76 0,-4.03 2.64,-6.33 5.17,-7.06 l 5.33,-1.41 c 1.85,-0.44 4.6,-1.19 4.6,-5.28 0,-4.49 -4.1,-9.16 -8.97,-9.16 -3.19,0 -8.72,1.1 -8.72,7.27 0,1.2 0.25,2.39 0.3,2.69 0.04,0.2 0.09,0.25 0.09,0.35 0,0.5 -0.34,0.55 -0.59,0.55 -0.25,0 -0.35,-0.05 -0.5,-0.2 -0.21,-0.2 -2.99,-11.56 -2.99,-11.7 0,-0.3 0.25,-0.5 0.55,-0.5 0.25,0 0.29,0.04 0.89,0.75 l 2.45,2.82 c 2.14,-2.89 5.52,-3.57 8.41,-3.57 6.78,0 12.65,6.62 12.65,12.79 0,3.44 -1.68,5.14 -2.43,5.83 -1.14,1.16 -1.89,1.34 -6.33,2.5 -1.1,0.3 -2.89,0.8 -3.35,0.89 -1.34,0.45 -3.03,1.89 -3.03,4.53 0,4.05 3.99,8.28 8.72,8.28 4.14,0 7.17,-2.14 7.17,-7.73 0,-1.59 -0.2,-2.49 -0.2,-2.78 0,-0.05 0,-0.5 0.61,-0.5 0.5,0 0.55,0.15 0.73,1 z" /><path
           style="fill:#000000;stroke-width:0"
           inkscape:connector-curvature="0"
           id="path4578"
           d="m 1136.8929,461.81032 0,0.02 0,0.02 -0.01,0.01 0,0.02 0,0.02 0,0.02 -0.01,0.02 0,0.02 -0.01,0.02 -0.01,0.02 -0.01,0.02 -0.01,0.02 -0.01,0.02 -0.01,0.02 -0.01,0.02 -0.02,0.02 -0.01,0.02 -0.02,0.02 -0.02,0.02 -0.02,0.02 -0.02,0.01 -0.02,0.02 -0.03,0.01 -0.02,0.02 -0.03,0.01 -0.02,0.01 -0.01,0 -0.02,0.01 -0.01,0 -0.02,0.01 -0.02,0 -0.01,0 -0.02,0.01 -0.02,0 -0.02,0 -0.02,0 -0.02,0 -0.02,0 -0.02,0 c -0.14,0 -0.2,-0.04 -0.75,-0.59 l -3.48,-3.84 c -0.44,0.7 -2.74,4.43 -8.27,4.43 -11.11,0 -22.33,-11.01 -22.33,-22.56 0,-8.23 5.89,-13.65 13.52,-13.65 4.33,0 8.11,1.98 10.75,4.28 4.64,4.09 5.48,8.62 5.48,8.76 0,0.5 -0.5,0.5 -0.59,0.5 -0.3,0 -0.55,-0.09 -0.66,-0.5 -0.43,-1.44 -1.59,-4.98 -5.03,-7.87 -3.44,-2.78 -6.58,-3.63 -9.15,-3.63 -4.49,0 -9.77,2.6 -9.77,10.36 0,2.85 1.05,10.91 6.02,16.74 3.04,3.54 7.73,6.03 12.15,6.03 5.1,0 8.03,-3.83 8.03,-9.61 0,-2 -0.15,-2.05 -0.15,-2.55 0,-0.5 0.54,-0.5 0.75,-0.5 0.64,0 0.64,0.11 0.89,1 z" /><path
           style="fill:#000000;stroke-width:0"
           inkscape:connector-curvature="0"
           id="path4580"
           d="m 1530.7896,438.88032 0.01,0.02 0.01,0.03 0.02,0.05 0.02,0.05 0.02,0.05 0.02,0.05 0.02,0.05 0.02,0.05 0.02,0.05 0,0.03 0.01,0.02 0.01,0.02 0.01,0.03 0.01,0.02 0,0.02 0.01,0.02 0,0.02 0.01,0.02 0,0.02 0.01,0.01 0,0.02 0,0.02 0.01,0.01 0,0.01 0,0.01 c 0,0.05 0,0.55 -0.6,0.55 -0.45,0 -0.54,-0.3 -0.64,-0.61 -3.25,-7.38 -5.08,-10.7 -13.61,-10.7 l -7.26,0 c -0.71,0 -0.8,0 -1.09,0.04 -0.5,0.05 -0.66,0.1 -0.66,0.5 0,0.14 0,0.25 0.25,1.14 l 3.39,13.61 4.94,0 c 4.23,0 4.23,-1.04 4.23,-2.29 0,-0.35 0,-0.96 -0.36,-2.44 -0.09,-0.25 -0.14,-0.41 -0.14,-0.55 0,-0.25 0.19,-0.55 0.64,-0.55 0.41,0 0.55,0.25 0.75,0.99 l 2.84,11.67 c 0,0.3 -0.25,0.55 -0.6,0.55 -0.44,0 -0.55,-0.3 -0.69,-0.91 -1.05,-3.78 -1.96,-4.92 -6.53,-4.92 l -4.69,0 3,12 c 0.44,1.75 0.5,1.94 2.69,1.94 l 7.01,0 c 6.08,0 7.58,-1.44 7.58,-5.53 0,-1.19 0,-1.29 -0.2,-2.64 0,-0.3 -0.05,-0.65 -0.05,-0.9 0,-0.25 0.16,-0.59 0.6,-0.59 0.56,0 0.6,0.3 0.7,1.25 l 1,8.61 c 0.14,1.34 -0.1,1.34 -1.35,1.34 l -25.15,0 c -1,0 -1.5,0 -1.5,-1 0,-0.54 0.45,-0.54 1.39,-0.54 1.84,0 3.23,0 3.23,-0.89 0,-0.21 0,-0.3 -0.25,-1.21 l -6.56,-26.34 c -0.5,-1.95 -0.61,-2.34 -4.55,-2.34 -0.84,0 -1.39,0 -1.39,-0.96 0,-0.59 0.46,-0.59 1.39,-0.59 l 25.86,0 c 1.16,0 1.21,0.05 1.55,0.84 z" /><path
           style="fill:#000000;stroke-width:0"
           inkscape:connector-curvature="0"
           id="path4582"
           d="m 1728.7766,442.94032 0.2,1.28 3.39,13.56 c 0.44,1.74 0.55,1.89 2.69,1.89 l 4.78,0 c 4.14,0 6.78,-1.34 6.78,-4.78 0,-1.95 -1,-6.23 -2.94,-8.03 -2.5,-2.23 -5.48,-2.64 -7.68,-2.64 l -7.02,0 -0.2,-1.28 8.47,0 c 7.07,0 14,5.17 14,10.75 0,3.84 -3.28,7.53 -9.82,7.53 l -16.14,0 c -0.95,0 -1.5,0 -1.5,-0.95 0,-0.6 0.46,-0.6 1.46,-0.6 0.64,0 1.54,-0.04 2.14,-0.09 0.79,-0.11 1.09,-0.25 1.09,-0.8 0,-0.2 -0.05,-0.36 -0.2,-0.95 l -6.68,-26.75 c -0.5,-1.95 -0.59,-2.34 -4.53,-2.34 -0.84,0 -1.39,0 -1.39,-0.96 0,-0.59 0.6,-0.59 0.74,-0.59 1.4,0 4.93,0.16 6.33,0.16 1.04,0 2.14,-0.07 3.18,-0.07 1.11,0 2.21,-0.09 3.25,-0.09 0.35,0 0.99,0 0.99,1 0,0.55 -0.44,0.55 -1.39,0.55 -1.85,0 -3.24,0 -3.24,0.89 0,0.29 0.1,0.54 0.14,0.84 z" /><path
           style="fill:#000000;stroke-width:0"
           inkscape:connector-curvature="0"
           id="path4584"
           d="m 879.92644,672.54084 0,0 0,0.01 0,0 0,0.01 0,0.02 -0.01,0.01 0,0.02 0,0.02 0,0.02 -0.01,0.02 0,0.02 -0.01,0.02 -0.01,0.02 -0.01,0.03 -0.01,0.02 -0.01,0.03 -0.01,0.02 -0.02,0.03 -0.02,0.02 -0.02,0.02 -0.02,0.03 -0.01,0.01 -0.01,0.01 -0.02,0.01 -0.01,0.01 -0.02,0.01 -0.01,0.01 -0.02,0.01 -0.01,0.01 -0.02,0.01 -0.02,0.01 -0.02,0 -0.02,0.01 -0.02,0.01 -0.02,0 -0.02,0.01 -0.02,0.01 -0.03,0 -0.02,0 -0.03,0.01 -0.02,0 -0.03,0 -0.03,0.01 -0.02,0 -0.03,0 c -1.16,0 -4.79,-0.41 -6.08,-0.5 -0.41,-0.05 -0.96,-0.1 -0.96,-1 0,-0.6 0.46,-0.6 1.21,-0.6 2.39,0 2.48,-0.34 2.48,-0.84 l -0.15,-1 -7.22,-28.7 c -0.21,-0.69 -0.21,-0.8 -0.21,-1.1 0,-1.14 1,-1.39 1.46,-1.39 0.64,0 1.39,0.46 1.68,1.05 0.25,0.45 2.5,9.66 2.8,10.91 1.69,-0.15 5.78,-0.94 5.78,-4.24 0,-0.34 0,-0.55 -0.15,-1.05 -0.1,-0.59 -0.21,-1.18 -0.21,-1.73 0,-2.95 2,-4.94 4.6,-4.94 1.48,0 2.83,0.8 3.93,2.64 1.24,2.19 1.79,4.94 1.79,5.03 0,0.5 -0.44,0.5 -0.6,0.5 -0.5,0 -0.54,-0.2 -0.7,-0.9 -0.99,-3.63 -2.14,-6.17 -4.33,-6.17 -0.94,0 -1.59,0.54 -1.59,2.34 0,0.84 0.2,1.98 0.4,2.78 0.19,0.86 0.19,1.05 0.19,1.55 0,3.25 -3.14,4.69 -7.37,5.23 1.54,0.91 3.14,2.5 4.29,3.69 2.39,2.64 4.67,4.78 7.13,4.78 0.29,0 0.34,0 0.44,-0.05 0.6,-0.09 0.65,-0.09 1.04,-0.39 0.11,-0.06 0.11,-0.11 0.21,-0.2 -2.4,-0.16 -2.85,-2.09 -2.85,-2.69 0,-0.79 0.55,-1.75 1.89,-1.75 1.3,0 2.75,1.1 2.75,3.03 0,1.5 -1.15,3.14 -3.39,3.14 -1.39,0 -3.69,-0.39 -7.28,-4.37 -1.69,-1.89 -3.62,-3.89 -5.52,-4.64 z" /><path
           style="fill:#000000;stroke-width:0"
           inkscape:connector-curvature="0"
           id="path4586"
           d="m 903.22644,653.23084 0,0.04 0,0.04 0,0.05 0,0.04 0,0.03 0,0.04 0,0.04 0,0.03 -0.01,0.04 0,0.03 0,0.03 0,0.03 0,0.03 -0.01,0.03 0,0.03 0,0.02 -0.01,0.03 0,0.02 -0.01,0.03 0,0.02 -0.02,0.04 -0.01,0.04 -0.02,0.03 -0.02,0.03 -0.02,0.03 -0.02,0.03 -0.03,0.02 -0.03,0.02 -0.03,0.02 -0.04,0.01 -0.04,0.01 -0.05,0.02 -0.02,0 -0.02,0 -0.03,0.01 -0.03,0 -0.02,0.01 -0.03,0 -0.03,0 -0.03,0 -0.04,0 -0.03,0.01 -0.03,0 -0.04,0 -0.03,0 -0.04,0 -0.04,0 -0.04,0 -0.04,0 -0.05,0 -0.04,0 -0.05,0 c -2.23,-2.2 -5.39,-2.23 -6.82,-2.23 l 0,-1.25 c 0.84,0 3.14,0 5.04,0.97 l 0,-17.77 c 0,-1.16 0,-1.61 -3.48,-1.61 l -1.31,0 0,-1.25 c 0.62,0.03 4.9,0.14 6.2,0.14 1.08,0 5.47,-0.11 6.23,-0.14 l 0,1.25 -1.32,0 c -3.49,0 -3.49,0.45 -3.49,1.61 z" /><path
           style="fill:#000000;stroke-width:0"
           inkscape:connector-curvature="0"
           id="path4588"
           d="m 871.93962,540.41935 0,0 0,0.01 0,0 0,0.01 0,0.02 0,0.01 0,0.02 0,0.02 -0.01,0.02 0,0.02 0,0.02 -0.01,0.02 -0.01,0.02 -0.01,0.03 -0.01,0.02 -0.01,0.03 -0.02,0.02 -0.01,0.03 -0.02,0.02 -0.02,0.02 -0.02,0.03 -0.01,0.01 -0.02,0.01 -0.01,0.01 -0.01,0.01 -0.02,0.01 -0.01,0.01 -0.02,0.01 -0.01,0.01 -0.02,0.01 -0.02,0.01 -0.02,0 -0.02,0.01 -0.02,0.01 -0.02,0 -0.02,0.01 -0.02,0.01 -0.03,0 -0.02,0 -0.03,0.01 -0.02,0 -0.03,0 -0.03,0.01 -0.03,0 -0.02,0 c -1.16,0 -4.79,-0.41 -6.08,-0.5 -0.41,-0.05 -0.96,-0.1 -0.96,-1 0,-0.6 0.46,-0.6 1.21,-0.6 2.39,0 2.48,-0.34 2.48,-0.84 l -0.15,-1 -7.22,-28.7 c -0.21,-0.69 -0.21,-0.8 -0.21,-1.1 0,-1.14 1,-1.39 1.46,-1.39 0.64,0 1.39,0.46 1.68,1.05 0.25,0.45 2.5,9.66 2.8,10.91 1.69,-0.15 5.78,-0.94 5.78,-4.24 0,-0.34 0,-0.55 -0.16,-1.05 -0.09,-0.59 -0.2,-1.18 -0.2,-1.73 0,-2.95 2,-4.94 4.6,-4.94 1.48,0 2.82,0.8 3.93,2.64 1.24,2.19 1.79,4.94 1.79,5.03 0,0.5 -0.44,0.5 -0.6,0.5 -0.5,0 -0.55,-0.2 -0.7,-0.9 -0.99,-3.63 -2.14,-6.17 -4.33,-6.17 -0.94,0 -1.59,0.54 -1.59,2.34 0,0.84 0.2,1.98 0.4,2.78 0.19,0.86 0.19,1.05 0.19,1.55 0,3.25 -3.14,4.69 -7.37,5.23 1.54,0.91 3.13,2.5 4.29,3.69 2.39,2.64 4.67,4.78 7.13,4.78 0.29,0 0.34,0 0.43,-0.05 0.61,-0.09 0.66,-0.09 1.05,-0.39 0.11,-0.06 0.11,-0.11 0.2,-0.2 -2.39,-0.16 -2.84,-2.09 -2.84,-2.69 0,-0.79 0.55,-1.75 1.89,-1.75 1.3,0 2.75,1.1 2.75,3.03 0,1.5 -1.15,3.14 -3.39,3.14 -1.39,0 -3.69,-0.39 -7.28,-4.37 -1.69,-1.89 -3.63,-3.89 -5.52,-4.64 z" /><path
           style="fill:#000000;stroke-width:0"
           inkscape:connector-curvature="0"
           id="path4590"
           d="m 909.48962,506.82935 0.06,0 0.05,0 0.11,0 0.12,0 0.06,0.01 0.06,0 0.06,0.01 0.05,0 0.06,0.01 0.06,0.01 0.06,0.01 0.05,0.02 0.06,0.01 0.05,0.02 0.05,0.02 0.05,0.03 0.05,0.02 0.04,0.03 0.04,0.04 0.04,0.03 0.04,0.04 0.02,0.02 0.01,0.02 0.02,0.03 0.02,0.02 0.01,0.02 0.01,0.03 0.02,0.03 0.01,0.02 0.01,0.03 0.01,0.03 0,0.03 0.01,0.03 0.01,0.04 0,0.03 0.01,0.04 0,0.03 0,0.04 0,0.04 c 0,0.86 -0.79,0.86 -1.39,0.86 l -20.76,0 c -0.57,0 -1.39,0 -1.39,-0.83 0,-0.87 0.79,-0.87 1.39,-0.87 z" /><path
           style="fill:#000000;stroke-width:0"
           inkscape:connector-curvature="0"
           id="path4592"
           d="m 926.31962,521.10935 0,0.04 0,0.04 0,0.05 0,0.04 0,0.03 0,0.04 0,0.04 0,0.03 -0.01,0.04 0,0.03 0,0.03 0,0.03 0,0.03 -0.01,0.03 0,0.03 -0.01,0.02 0,0.03 0,0.02 -0.01,0.03 0,0.02 -0.02,0.04 -0.01,0.04 -0.02,0.03 -0.02,0.03 -0.02,0.03 -0.02,0.03 -0.03,0.02 -0.03,0.02 -0.04,0.02 -0.03,0.01 -0.04,0.01 -0.05,0.02 -0.02,0 -0.03,0 -0.02,0.01 -0.03,0 -0.02,0.01 -0.03,0 -0.03,0 -0.03,0 -0.04,0 -0.03,0.01 -0.03,0 -0.04,0 -0.04,0 -0.03,0 -0.04,0 -0.04,0 -0.04,0 -0.05,0 -0.04,0 -0.05,0 c -2.23,-2.2 -5.39,-2.23 -6.83,-2.23 l 0,-1.25 c 0.85,0 3.15,0 5.05,0.97 l 0,-17.77 c 0,-1.16 0,-1.61 -3.48,-1.61 l -1.32,0 0,-1.25 c 0.63,0.03 4.91,0.14 6.21,0.14 1.08,0 5.47,-0.11 6.23,-0.14 l 0,1.25 -1.32,0 c -3.49,0 -3.49,0.45 -3.49,1.61 z" /><path
           style="fill:#000000;stroke-width:0"
           inkscape:connector-curvature="0"
           id="path4594"
           d="m 1358.5187,673.29096 0,0 0,0.01 0,0 0,0.01 0,0.02 -0.01,0.01 0,0.02 0,0.02 0,0.02 -0.01,0.02 0,0.02 -0.01,0.02 -0.01,0.02 -0.01,0.03 -0.01,0.02 -0.01,0.03 -0.01,0.02 -0.02,0.03 -0.02,0.02 -0.02,0.02 -0.02,0.03 -0.01,0.01 -0.01,0.01 -0.02,0.01 -0.01,0.01 -0.02,0.01 -0.01,0.01 -0.02,0.01 -0.01,0.01 -0.02,0.01 -0.02,0.01 -0.02,0 -0.02,0.01 -0.02,0.01 -0.02,0 -0.02,0.01 -0.02,0.01 -0.03,0 -0.02,0 -0.03,0.01 -0.02,0 -0.03,0 -0.03,0.01 -0.02,0 -0.03,0 c -1.16,0 -4.78,-0.41 -6.08,-0.5 -0.41,-0.05 -0.95,-0.1 -0.95,-1 0,-0.6 0.45,-0.6 1.2,-0.6 2.39,0 2.48,-0.34 2.48,-0.84 l -0.15,-1 -7.22,-28.7 c -0.21,-0.69 -0.21,-0.8 -0.21,-1.1 0,-1.14 1,-1.39 1.46,-1.39 0.64,0 1.39,0.46 1.69,1.05 0.25,0.45 2.5,9.66 2.79,10.91 1.69,-0.15 5.78,-0.94 5.78,-4.24 0,-0.34 0,-0.55 -0.15,-1.05 -0.1,-0.59 -0.21,-1.18 -0.21,-1.73 0,-2.95 2,-4.94 4.6,-4.94 1.48,0 2.83,0.8 3.94,2.64 1.23,2.19 1.78,4.94 1.78,5.03 0,0.5 -0.44,0.5 -0.6,0.5 -0.5,0 -0.54,-0.2 -0.7,-0.9 -0.98,-3.63 -2.14,-6.17 -4.33,-6.17 -0.94,0 -1.59,0.54 -1.59,2.34 0,0.84 0.2,1.98 0.4,2.78 0.19,0.86 0.19,1.05 0.19,1.55 0,3.25 -3.14,4.69 -7.37,5.23 1.54,0.91 3.14,2.5 4.29,3.69 2.39,2.64 4.68,4.78 7.13,4.78 0.3,0 0.34,0 0.44,-0.05 0.61,-0.09 0.65,-0.09 1.04,-0.39 0.11,-0.06 0.11,-0.11 0.21,-0.2 -2.39,-0.16 -2.85,-2.09 -2.85,-2.69 0,-0.79 0.55,-1.75 1.89,-1.75 1.3,0 2.75,1.1 2.75,3.03 0,1.5 -1.15,3.14 -3.39,3.14 -1.39,0 -3.69,-0.39 -7.28,-4.37 -1.69,-1.89 -3.62,-3.89 -5.51,-4.64 z" /><path
           style="fill:#000000;stroke-width:0"
           inkscape:connector-curvature="0"
           id="path4596"
           d="m 1387.7387,638.17096 -1.19,0 c -0.1,-0.77 -0.45,-2.83 -0.91,-3.18 -0.26,-0.2 -2.95,-0.2 -3.44,-0.2 l -6.42,0 c 3.66,3.23 4.88,4.2 6.97,5.84 2.58,2.07 4.99,4.22 4.99,7.54 0,4.21 -3.69,6.79 -8.16,6.79 -4.31,0 -7.25,-3.03 -7.25,-6.23 0,-1.78 1.5,-1.96 1.86,-1.96 0.83,0 1.84,0.6 1.84,1.85 0,0.62 -0.25,1.84 -2.06,1.84 1.08,2.47 3.45,3.24 5.09,3.24 3.49,0 5.3,-2.71 5.3,-5.53 0,-3.04 -2.16,-5.44 -3.28,-6.69 l -8.39,-8.3 c -0.36,-0.31 -0.36,-0.39 -0.36,-1.36 l 14.36,0 z" /></g>    </g>
  </g>
</svg>
