<?xml version="1.0" encoding="UTF-8" standalone="no"?>
<!-- Created with Inkscape (http://www.inkscape.org/) -->

<svg
   xmlns:ns0="http://www.iki.fi/pav/software/textext/"
   xmlns:dc="http://purl.org/dc/elements/1.1/"
   xmlns:cc="http://creativecommons.org/ns#"
   xmlns:rdf="http://www.w3.org/1999/02/22-rdf-syntax-ns#"
   xmlns:svg="http://www.w3.org/2000/svg"
   xmlns="http://www.w3.org/2000/svg"
   xmlns:sodipodi="http://sodipodi.sourceforge.net/DTD/sodipodi-0.dtd"
   xmlns:inkscape="http://www.inkscape.org/namespaces/inkscape"
   width="210mm"
   height="297mm"
   viewBox="0 0 210 297"
   version="1.1"
   id="svg8"
   inkscape:version="0.92.1 r15371"
   sodipodi:docname="Spring_pendulum.svg">
  <sodipodi:namedview
     id="base"
     pagecolor="#ffffff"
     bordercolor="#666666"
     borderopacity="1.0"
     inkscape:pageopacity="0.0"
     inkscape:pageshadow="2"
     inkscape:zoom="1.4"
     inkscape:cx="263.36594"
     inkscape:cy="781.4413"
     inkscape:document-units="mm"
     inkscape:current-layer="layer1"
     showgrid="false"
     inkscape:snap-global="true"
     inkscape:snap-midpoints="true"
     inkscape:window-width="1920"
     inkscape:window-height="1018"
     inkscape:window-x="-8"
     inkscape:window-y="-8"
     inkscape:window-maximized="1"
     inkscape:snap-object-midpoints="true"
     showguides="false" />
  <defs
     id="defs2">
    <marker
       inkscape:stockid="Arrow1Lend"
       orient="auto"
       refY="0.0"
       refX="0.0"
       id="marker6360"
       style="overflow:visible;"
       inkscape:isstock="true">
      <path
         id="path6358"
         d="M 0.0,0.0 L 5.0,-5.0 L -12.5,0.0 L 5.0,5.0 L 0.0,0.0 z "
         style="fill-rule:evenodd;stroke:#000000;stroke-width:1pt;stroke-opacity:1;fill:#000000;fill-opacity:1"
         transform="scale(0.8) rotate(180) translate(12.5,0)" />
    </marker>
    <marker
       inkscape:collect="always"
       inkscape:stockid="Arrow1Lend"
       orient="auto"
       refY="0.0"
       refX="0.0"
       id="marker5366"
       style="overflow:visible;"
       inkscape:isstock="true">
      <path
         id="path5364"
         d="M 0.0,0.0 L 5.0,-5.0 L -12.5,0.0 L 5.0,5.0 L 0.0,0.0 z "
         style="fill-rule:evenodd;stroke:#000000;stroke-width:1pt;stroke-opacity:1;fill:#000000;fill-opacity:1"
         transform="scale(0.8) rotate(180) translate(12.5,0)" />
    </marker>
    <marker
       inkscape:isstock="true"
       style="overflow:visible;"
       id="marker3691"
       refX="0.0"
       refY="0.0"
       orient="auto"
       inkscape:stockid="Arrow1Lend"
       inkscape:collect="always">
      <path
         transform="scale(0.8) rotate(180) translate(12.5,0)"
         style="fill-rule:evenodd;stroke:#000000;stroke-width:1pt;stroke-opacity:1;fill:#000000;fill-opacity:1"
         d="M 0.0,0.0 L 5.0,-5.0 L -12.5,0.0 L 5.0,5.0 L 0.0,0.0 z "
         id="path3689" />
    </marker>
    <marker
       inkscape:isstock="true"
       style="overflow:visible"
       id="marker3369"
       refX="0.0"
       refY="0.0"
       orient="auto"
       inkscape:stockid="Arrow2Lstart">
      <path
         transform="scale(1.1) translate(1,0)"
         d="M 8.7185878,4.0337352 L -2.2072895,0.016013256 L 8.7185884,-4.0017078 C 6.9730900,-1.6296469 6.9831476,1.6157441 8.7185878,4.0337352 z "
         style="fill-rule:evenodd;stroke-width:0.625;stroke-linejoin:round;stroke:#000000;stroke-opacity:1;fill:#000000;fill-opacity:1"
         id="path3367" />
    </marker>
    <marker
       inkscape:stockid="Arrow1Lend"
       orient="auto"
       refY="0.0"
       refX="0.0"
       id="Arrow1Lend"
       style="overflow:visible;"
       inkscape:isstock="true"
       inkscape:collect="always">
      <path
         id="path969"
         d="M 0.0,0.0 L 5.0,-5.0 L -12.5,0.0 L 5.0,5.0 L 0.0,0.0 z "
         style="fill-rule:evenodd;stroke:#000000;stroke-width:1pt;stroke-opacity:1;fill:#000000;fill-opacity:1"
         transform="scale(0.8) rotate(180) translate(12.5,0)" />
    </marker>
    <marker
       inkscape:stockid="Arrow2Lstart"
       orient="auto"
       refY="0.0"
       refX="0.0"
       id="Arrow2Lstart"
       style="overflow:visible"
       inkscape:isstock="true"
       inkscape:collect="always">
      <path
         id="path984"
         style="fill-rule:evenodd;stroke-width:0.625;stroke-linejoin:round;stroke:#000000;stroke-opacity:1;fill:#000000;fill-opacity:1"
         d="M 8.7185878,4.0337352 L -2.2072895,0.016013256 L 8.7185884,-4.0017078 C 6.9730900,-1.6296469 6.9831476,1.6157441 8.7185878,4.0337352 z "
         transform="scale(1.1) translate(1,0)" />
    </marker>
    <marker
       inkscape:stockid="Arrow2Lend"
       orient="auto"
       refY="0.0"
       refX="0.0"
       id="Arrow2Lend"
       style="overflow:visible;"
       inkscape:isstock="true">
      <path
         id="path987"
         style="fill-rule:evenodd;stroke-width:0.625;stroke-linejoin:round;stroke:#000000;stroke-opacity:1;fill:#000000;fill-opacity:1"
         d="M 8.7185878,4.0337352 L -2.2072895,0.016013256 L 8.7185884,-4.0017078 C 6.9730900,-1.6296469 6.9831476,1.6157441 8.7185878,4.0337352 z "
         transform="scale(1.1) rotate(180) translate(1,0)" />
    </marker>
    <filter
       inkscape:label="Button"
       inkscape:menu="Bevels"
       inkscape:menu-tooltip="Soft bevel, slightly depressed middle"
       style="color-interpolation-filters:sRGB;"
       id="filter3030">
      <feGaussianBlur
         stdDeviation="2.3"
         in="SourceAlpha"
         result="result0"
         id="feGaussianBlur3004" />
      <feMorphology
         in="SourceAlpha"
         radius="6.6"
         result="result1"
         id="feMorphology3006" />
      <feGaussianBlur
         stdDeviation="8.9"
         in="result1"
         id="feGaussianBlur3008" />
      <feColorMatrix
         values="1 0 0 0 0 0 1 0 0 0 0 0 1 0 0 0 0 0 0.3 0"
         result="result91"
         id="feColorMatrix3010" />
      <feComposite
         in="result0"
         operator="out"
         result="result2"
         in2="result91"
         id="feComposite3012" />
      <feGaussianBlur
         stdDeviation="1.7"
         result="result4"
         id="feGaussianBlur3014" />
      <feDiffuseLighting
         surfaceScale="10"
         id="feDiffuseLighting3018">
        <feDistantLight
           azimuth="225"
           elevation="45"
           id="feDistantLight3016" />
      </feDiffuseLighting>
      <feBlend
         in2="SourceGraphic"
         mode="multiply"
         id="feBlend3020" />
      <feComposite
         in2="SourceAlpha"
         operator="in"
         result="result3"
         id="feComposite3022" />
      <feSpecularLighting
         in="result4"
         surfaceScale="5"
         specularExponent="17.9"
         id="feSpecularLighting3026">
        <feDistantLight
           azimuth="225"
           elevation="45"
           id="feDistantLight3024" />
      </feSpecularLighting>
      <feComposite
         in2="result3"
         operator="atop"
         id="feComposite3028" />
    </filter>
    <filter
       inkscape:label="Button"
       inkscape:menu="Bevels"
       inkscape:menu-tooltip="Soft bevel, slightly depressed middle"
       style="color-interpolation-filters:sRGB"
       id="filter3030-6">
      <feGaussianBlur
         stdDeviation="2.3"
         in="SourceAlpha"
         result="result0"
         id="feGaussianBlur3004-7" />
      <feMorphology
         in="SourceAlpha"
         radius="6.6"
         result="result1"
         id="feMorphology3006-7" />
      <feGaussianBlur
         stdDeviation="8.9"
         in="result1"
         id="feGaussianBlur3008-8" />
      <feColorMatrix
         values="1 0 0 0 0 0 1 0 0 0 0 0 1 0 0 0 0 0 0.3 0"
         result="result91"
         id="feColorMatrix3010-6" />
      <feComposite
         in="result0"
         operator="out"
         result="result2"
         in2="result91"
         id="feComposite3012-7" />
      <feGaussianBlur
         stdDeviation="1.7"
         result="result4"
         id="feGaussianBlur3014-9" />
      <feDiffuseLighting
         surfaceScale="10"
         id="feDiffuseLighting3018-9">
        <feDistantLight
           azimuth="225"
           elevation="45"
           id="feDistantLight3016-4" />
      </feDiffuseLighting>
      <feBlend
         in2="SourceGraphic"
         mode="multiply"
         id="feBlend3020-9" />
      <feComposite
         in2="SourceAlpha"
         operator="in"
         result="result3"
         id="feComposite3022-1" />
      <feSpecularLighting
         in="result4"
         surfaceScale="5"
         specularExponent="17.89999962"
         id="feSpecularLighting3026-6">
        <feDistantLight
           azimuth="225"
           elevation="45"
           id="feDistantLight3024-0" />
      </feSpecularLighting>
      <feComposite
         in2="result3"
         operator="atop"
         id="feComposite3028-8" />
    </filter>
    <filter
       inkscape:label="Button"
       inkscape:menu="Bevels"
       inkscape:menu-tooltip="Soft bevel, slightly depressed middle"
       style="color-interpolation-filters:sRGB;"
       id="filter3183">
      <feGaussianBlur
         stdDeviation="2.3"
         in="SourceAlpha"
         result="result0"
         id="feGaussianBlur3157" />
      <feMorphology
         in="SourceAlpha"
         radius="6.6"
         result="result1"
         id="feMorphology3159" />
      <feGaussianBlur
         stdDeviation="8.9"
         in="result1"
         id="feGaussianBlur3161" />
      <feColorMatrix
         values="1 0 0 0 0 0 1 0 0 0 0 0 1 0 0 0 0 0 0.3 0"
         result="result91"
         id="feColorMatrix3163" />
      <feComposite
         in="result0"
         operator="out"
         result="result2"
         in2="result91"
         id="feComposite3165" />
      <feGaussianBlur
         stdDeviation="1.7"
         result="result4"
         id="feGaussianBlur3167" />
      <feDiffuseLighting
         surfaceScale="10"
         id="feDiffuseLighting3171">
        <feDistantLight
           azimuth="225"
           elevation="45"
           id="feDistantLight3169" />
      </feDiffuseLighting>
      <feBlend
         in2="SourceGraphic"
         mode="multiply"
         id="feBlend3173" />
      <feComposite
         in2="SourceAlpha"
         operator="in"
         result="result3"
         id="feComposite3175" />
      <feSpecularLighting
         in="result4"
         surfaceScale="5"
         specularExponent="17.9"
         id="feSpecularLighting3179">
        <feDistantLight
           azimuth="225"
           elevation="45"
           id="feDistantLight3177" />
      </feSpecularLighting>
      <feComposite
         in2="result3"
         operator="atop"
         id="feComposite3181" />
    </filter>
    <filter
       inkscape:label="Blur"
       inkscape:menu="Bevels"
       inkscape:menu-tooltip="Soft bevel, slightly depressed middle"
       style="color-interpolation-filters:sRGB;"
       id="filter3030-3">
      <feGaussianBlur
         stdDeviation="2.3"
         in="SourceAlpha"
         result="result0"
         id="feGaussianBlur3004-79" />
      <feMorphology
         in="SourceAlpha"
         radius="6.6"
         result="result1"
         id="feMorphology3006-4" />
      <feGaussianBlur
         stdDeviation="8.9"
         in="result1"
         id="feGaussianBlur3008-5" />
      <feColorMatrix
         values="1 0 0 0 0 0 1 0 0 0 0 0 1 0 0 0 0 0 0.3 0"
         result="result91"
         id="feColorMatrix3010-9" />
      <feComposite
         in="result0"
         operator="out"
         result="result2"
         in2="result91"
         id="feComposite3012-2" />
      <feGaussianBlur
         stdDeviation="1.7"
         result="result4"
         id="feGaussianBlur3014-0" />
      <feDiffuseLighting
         surfaceScale="10"
         id="feDiffuseLighting3018-4">
        <feDistantLight
           azimuth="225"
           elevation="45"
           id="feDistantLight3016-44" />
      </feDiffuseLighting>
      <feBlend
         in2="SourceGraphic"
         mode="multiply"
         id="feBlend3020-2" />
      <feComposite
         in2="SourceAlpha"
         operator="in"
         result="result3"
         id="feComposite3022-7" />
      <feSpecularLighting
         in="result4"
         surfaceScale="5"
         specularExponent="17.89999962"
         id="feSpecularLighting3026-5">
        <feDistantLight
           azimuth="225"
           elevation="45"
           id="feDistantLight3024-7" />
      </feSpecularLighting>
      <feComposite
         in2="result3"
         operator="atop"
         id="feComposite3028-5"
         result="fbSourceGraphic" />
      <feColorMatrix
         result="fbSourceGraphicAlpha"
         in="fbSourceGraphic"
         values="0 0 0 -1 0 0 0 0 -1 0 0 0 0 -1 0 0 0 0 1 0"
         id="feColorMatrix7460" />
      <feGaussianBlur
         id="feGaussianBlur7462"
         stdDeviation="0.01 0.93"
         result="blur"
         in="fbSourceGraphic" />
    </filter>
    <filter
       style="color-interpolation-filters:sRGB;"
       inkscape:label="Blur"
       id="filter7498">
      <feGaussianBlur
         stdDeviation="0.01 0.41"
         result="blur"
         id="feGaussianBlur7496" />
    </filter>
    <filter
       inkscape:label="Blur"
       inkscape:menu="Bevels"
       inkscape:menu-tooltip="Soft bevel, slightly depressed middle"
       style="color-interpolation-filters:sRGB;"
       id="filter3183-6">
      <feGaussianBlur
         stdDeviation="2.3"
         in="SourceAlpha"
         result="result0"
         id="feGaussianBlur3157-7" />
      <feMorphology
         in="SourceAlpha"
         radius="6.6"
         result="result1"
         id="feMorphology3159-4" />
      <feGaussianBlur
         stdDeviation="8.9"
         in="result1"
         id="feGaussianBlur3161-7" />
      <feColorMatrix
         values="1 0 0 0 0 0 1 0 0 0 0 0 1 0 0 0 0 0 0.3 0"
         result="result91"
         id="feColorMatrix3163-1" />
      <feComposite
         in="result0"
         operator="out"
         result="result2"
         in2="result91"
         id="feComposite3165-2" />
      <feGaussianBlur
         stdDeviation="1.7"
         result="result4"
         id="feGaussianBlur3167-8" />
      <feDiffuseLighting
         surfaceScale="10"
         id="feDiffuseLighting3171-2">
        <feDistantLight
           azimuth="225"
           elevation="45"
           id="feDistantLight3169-1" />
      </feDiffuseLighting>
      <feBlend
         in2="SourceGraphic"
         mode="multiply"
         id="feBlend3173-7" />
      <feComposite
         in2="SourceAlpha"
         operator="in"
         result="result3"
         id="feComposite3175-6" />
      <feSpecularLighting
         in="result4"
         surfaceScale="5"
         specularExponent="17.89999962"
         id="feSpecularLighting3179-4">
        <feDistantLight
           azimuth="225"
           elevation="45"
           id="feDistantLight3177-1" />
      </feSpecularLighting>
      <feComposite
         in2="result3"
         operator="atop"
         id="feComposite3181-9"
         result="fbSourceGraphic" />
      <feColorMatrix
         result="fbSourceGraphicAlpha"
         in="fbSourceGraphic"
         values="0 0 0 -1 0 0 0 0 -1 0 0 0 0 -1 0 0 0 0 1 0"
         id="feColorMatrix7621" />
      <feGaussianBlur
         id="feGaussianBlur7623"
         stdDeviation="0.97 0.01"
         result="blur"
         in="fbSourceGraphic" />
    </filter>
    <filter
       style="color-interpolation-filters:sRGB;"
       inkscape:label="Blur"
       id="filter7657">
      <feGaussianBlur
         stdDeviation="0.21 0.01"
         result="blur"
         id="feGaussianBlur7655" />
    </filter>
  </defs>
  <metadata
     id="metadata5">
    <rdf:RDF>
      <cc:Work
         rdf:about="">
        <dc:format>image/svg+xml</dc:format>
        <dc:type
           rdf:resource="http://purl.org/dc/dcmitype/StillImage" />
        <dc:title />
      </cc:Work>
    </rdf:RDF>
  </metadata>
  <g
     inkscape:label="Layer 1"
     inkscape:groupmode="layer"
     id="layer1">
    <g
       style="font-style:normal;font-variant:normal;font-weight:normal;font-stretch:normal;letter-spacing:normal;word-spacing:normal;text-anchor:start;fill:#000000;fill-opacity:1;fill-rule:evenodd;stroke:#000000;stroke-linecap:butt;stroke-linejoin:miter;stroke-miterlimit:10.43299961;stroke-dasharray:none;stroke-dashoffset:0;stroke-opacity:1"
       id="content"
       transform="matrix(0.8,0,0,-0.8,-66.094334,716.188)"
       xml:space="preserve"
       stroke-miterlimit="10.433"
       font-style="normal"
       font-variant="normal"
       font-weight="normal"
       font-stretch="normal"
       font-size-adjust="none"
       letter-spacing="normal"
       word-spacing="normal"
       ns0:text="$\\theta$ $mg\\sin(\\theta)$ $mg\\cos(\\theta)$ $mg$ $y$ $0$"
       ns0:preamble="C:\\Users\\smatw1\\AppData\\Roaming\\inkscape\\extensions\\default_packages.tex"><path
         style="fill:#000000;stroke-width:0"
         inkscape:connector-curvature="0"
         d="m 275.51581,830.52381 v 0.07 0.06 l -0.01,0.07 v 0.08 l -0.01,0.07 v 0.08 l -0.01,0.08 -0.01,0.09 -0.02,0.08 -0.01,0.08 -0.02,0.09 -0.02,0.08 -0.02,0.09 -0.03,0.08 -0.03,0.08 -0.03,0.09 -0.03,0.07 -0.04,0.08 -0.04,0.08 -0.04,0.07 -0.05,0.06 -0.05,0.07 -0.05,0.06 -0.06,0.05 -0.06,0.05 -0.03,0.02 -0.04,0.03 -0.03,0.02 -0.04,0.01 -0.03,0.02 -0.04,0.02 -0.04,0.01 -0.04,0.01 -0.04,0.01 -0.04,0.01 -0.05,0.01 h -0.04 l -0.05,0.01 h -0.05 v -0.22 c 0.48,0 0.54,-0.64 0.54,-1.2 0,-0.49 -0.08,-1 -0.32,-1.98 h -2.08 c 0.17,0.64 0.37,1.43 0.77,2.14 0.27,0.48 0.64,1.04 1.09,1.04 v 0.22 c -1.38,0 -2.91,-2.8 -2.91,-5.08 0,-0.93 0.29,-2.03 1.19,-2.03 v 0.21 c -0.33,0 -0.53,0.29 -0.53,1.22 0,0.41 0.06,0.99 0.31,1.96 h 2.07 c -0.1,-0.45 -0.31,-1.3 -0.69,-2.01 -0.35,-0.68 -0.73,-1.17 -1.16,-1.17 v -0.21 c 1.41,0 2.92,2.85 2.92,5.07 z"
         id="path6123" /><path
         style="fill:#000000;stroke-width:0"
         inkscape:connector-curvature="0"
         d="m 278.53476,745.30564 10e-4,-0.007 -0.004,-0.0148 10e-4,-0.007 0.003,-0.0135 -0.003,-0.0214 -0.003,-0.0214 0.004,-0.0201 -0.002,-0.0281 -0.003,-0.0214 -0.003,-0.0214 0.001,-0.007 0.003,-0.0135 -0.006,-0.008 0.003,-0.0135 10e-4,-0.007 10e-4,-0.007 -0.004,-0.0147 10e-4,-0.007 0.001,-0.007 10e-4,-0.007 10e-4,-0.007 -0.006,-0.008 10e-4,-0.007 v 0 l 0.001,-0.007 10e-4,-0.007 c 0.0226,-0.12091 0.12665,-0.1571 0.22737,-0.13832 0.0806,0.015 0.19276,0.0846 0.21472,0.22774 0.004,0.0148 0.0259,0.34542 0.0349,0.52088 l 0.0363,0.6254 c 0.0127,0.1553 0.0255,0.3106 0.0303,0.47137 -10e-4,0.11795 0.0163,0.32278 0.018,0.3509 0.0632,0.22031 0.30517,0.898 0.94331,1.01703 0.29556,0.0551 0.40238,-0.18214 0.44373,-0.40381 0.0313,-0.16793 0.0182,-0.35807 0.002,-0.56961 l -0.0373,-0.80633 -0.0391,-0.53557 c -0.002,-0.13935 -0.0196,-0.37902 -0.0134,-0.41261 0.0226,-0.1209 0.12666,-0.1571 0.22067,-0.13956 0.20824,0.0388 0.21847,0.20758 0.23212,0.43255 0.0239,0.39372 0.0907,1.41409 0.10233,1.68733 0.005,0.0844 0.21078,0.95686 0.93625,1.09218 0.28885,0.0539 0.40533,-0.16074 0.45044,-0.40256 0.0702,-0.37617 -0.0691,-1.19456 -0.13832,-1.56893 -0.0304,-0.17249 -0.0434,-0.25139 -0.0184,-0.38573 0.0589,-0.31571 0.3366,-0.50025 0.65231,-0.44136 0.62472,0.11652 0.69159,1.13689 0.68156,1.19064 -0.0125,0.0671 -0.073,0.0559 -0.0931,0.0521 -0.0671,-0.0125 -0.0621,-0.0394 -0.0782,-0.13971 -0.0344,-0.37481 -0.15364,-0.89058 -0.52308,-0.95949 -0.1142,-0.0213 -0.17375,0.0371 -0.20257,0.1916 -0.0313,0.16793 -9.4e-4,0.34043 0.0319,0.49948 0.0637,0.36639 0.20678,1.16463 0.13661,1.54081 -0.0814,0.43663 -0.40275,0.66863 -0.90655,0.57466 -0.5038,-0.094 -0.78454,-0.45218 -0.96667,-0.85456 -0.0232,0.086 -0.0857,0.31071 -0.30392,0.43684 -0.19424,0.10974 -0.41546,0.10323 -0.57668,0.0732 -0.60455,-0.11277 -0.85352,-0.60407 -0.93889,-0.77986 -0.10504,0.37661 -0.41801,0.52676 -0.72028,0.47038 -0.309,-0.0576 -0.38777,-0.34341 -0.42567,-0.4756 -0.0771,-0.25766 -0.0917,-0.66356 -0.088,-0.6837 0.0125,-0.0671 0.0797,-0.0546 0.0931,-0.0521 0.0671,0.0125 0.0726,0.0207 0.0866,0.16908 0.0252,0.49824 0.0994,0.84572 0.34126,0.89083 0.10748,0.02 0.21827,-0.0149 0.26588,-0.27015 0.0263,-0.14107 0.0199,-0.21872 -0.003,-0.57759 z"
         id="path6125" /><path
         style="fill:#000000;stroke-width:0"
         inkscape:connector-curvature="0"
         d="m 286.57579,749.00202 -10e-4,0.007 -0.001,0.007 -10e-4,0.007 0.006,0.008 -0.003,0.0135 -0.003,0.0135 0.006,0.008 -0.001,0.007 -10e-4,0.007 -0.001,0.007 -10e-4,0.007 0.006,0.008 -10e-4,0.007 v 0 l -10e-4,0.007 -0.001,0.007 v 0 l -10e-4,0.007 c -0.0213,0.1142 -0.11444,0.16633 -0.22864,0.14503 -0.0671,-0.0125 -0.23977,-0.0933 -0.22153,-0.34022 -0.16727,0.22599 -0.43495,0.35679 -0.69693,0.30792 l 0.0344,-0.14649 c 0.43663,0.0814 0.63216,-0.44513 0.63843,-0.47871 0.006,-0.0336 3.2e-4,-0.0764 -0.001,-0.10452 l -0.0789,-1.32846 c -0.008,-0.18217 -0.13091,-0.37892 -0.25488,-0.53411 -0.11851,-0.14723 -0.30419,-0.30698 -0.49899,-0.34332 -0.33587,-0.0626 -0.50178,0.26786 -0.5519,0.53655 -0.0589,0.31572 -0.0119,1.1447 0.10679,1.5144 0.11996,0.36297 0.35869,0.68554 0.64082,0.73817 l -0.0344,0.14649 c -0.76577,-0.14283 -1.41784,-1.23065 -1.23742,-2.19795 0.12279,-0.65829 0.60522,-0.97147 1.08215,-0.88251 0.39632,0.0739 0.6544,0.44181 0.70779,0.52823 l 0.008,-0.006 c -0.0308,-0.61744 -0.0601,-0.90789 -0.0575,-0.92132 -0.0156,-0.0655 -0.12119,-0.76636 -0.83322,-0.89917 -0.12092,-0.0226 -0.34388,-0.057 -0.54321,-0.0318 0.19025,0.0981 0.23282,0.27977 0.21152,0.39396 -0.02,0.10747 -0.11777,0.22131 -0.29912,0.18749 -0.14778,-0.0276 -0.34018,-0.18857 -0.29006,-0.45726 0.0501,-0.2687 0.32372,-0.35668 0.96859,-0.2364 0.83294,0.15537 1.2134,0.76156 1.23898,1.18339 z"
         id="path6127" /><path
         style="fill:#000000;stroke-width:0"
         inkscape:connector-curvature="0"
         d="m 289.59152,748.29944 0.0202,0.004 0.0147,-0.004 0.0202,0.004 0.0214,-0.003 0.0214,-0.003 0.0281,-0.002 0.0281,-0.002 0.0281,-0.002 0.0281,-0.002 0.0281,-0.002 0.0294,-0.008 0.0361,-0.007 0.0281,-0.002 0.0306,-0.0152 0.0361,-0.007 0.0294,-0.008 0.0374,-0.0139 0.0306,-0.0151 0.0306,-0.0151 0.0306,-0.0152 0.0306,-0.0151 0.0252,-0.0231 0.0318,-0.0218 0.0252,-0.0231 0.0264,-0.0299 0.009,-0.0122 0.0106,-0.0189 0.009,-0.0122 0.0106,-0.0189 0.009,-0.0122 0.0106,-0.0189 0.0106,-0.0189 0.009,-0.0122 0.004,-0.0201 0.0106,-0.0189 0.004,-0.0202 0.0119,-0.0256 0.004,-0.0202 0.004,-0.0201 c 0.0639,-0.34259 -0.12108,-0.65513 -0.64504,-0.75286 -0.55754,-0.104 -0.87078,0.23378 -1.10491,0.78095 -0.0352,0.0768 -0.0469,0.10247 -0.11412,0.0899 -0.0873,-0.0163 -0.0785,-0.0633 -0.0572,-0.1775 l 0.16539,-0.88669 c 0.02,-0.10748 0.0288,-0.1545 0.10274,-0.14071 0.0336,0.006 0.039,0.0144 0.14413,0.15895 0.011,0.016 0.008,0.0294 0.10552,0.17956 0.34693,-0.22028 0.64375,-0.17187 0.78482,-0.14555 0.77248,0.14409 0.99879,0.64507 0.90858,1.12871 -0.0652,0.3493 -0.30426,0.51324 -0.39991,0.57881 -0.26177,0.1736 -0.53376,0.17848 -0.82592,0.17959 -0.38324,0.005 -0.84832,0.002 -0.92099,0.39125 -0.0439,0.2351 0.0794,0.54309 0.65039,0.64959 0.73891,0.13783 0.88526,-0.46047 0.93753,-0.6662 0.0182,-0.0592 0.0784,-0.0479 0.0919,-0.0454 0.0873,0.0163 0.0798,0.0566 0.0572,0.17749 l -0.12654,0.67845 c -0.0213,0.1142 -0.0301,0.16122 -0.104,0.14743 -0.0336,-0.006 -0.047,-0.009 -0.11932,-0.10567 -0.0151,-0.0306 -0.071,-0.10357 -0.0941,-0.12877 -0.29034,0.14047 -0.56575,0.0891 -0.66651,0.0703 -0.8128,-0.15161 -0.98411,-0.64928 -0.91395,-1.02545 0.0426,-0.22839 0.18516,-0.39643 0.3941,-0.51038 0.24753,-0.13456 0.44313,-0.13978 0.93761,-0.14486 z"
         id="path6129" /><path
         style="fill:#000000;stroke-width:0"
         inkscape:connector-curvature="0"
         d="m 291.71371,750.41219 -0.91992,-0.24809 0.0388,-0.20824 c 0.43662,0.0814 0.50459,0.0524 0.56599,-0.27674 l 0.33453,-1.79353 c 0.0564,-0.30227 -0.0175,-0.31606 -0.46757,-0.4 l 0.0376,-0.20152 c 0.21368,0.047 0.57394,0.12791 0.73515,0.15798 0.22839,0.0426 0.46601,0.073 0.69564,0.1089 l -0.0376,0.20152 c -0.44335,-0.0827 -0.47648,-0.0541 -0.52534,0.20785 z"
         id="path6131" /><path
         style="fill:#000000;stroke-width:0"
         inkscape:connector-curvature="0"
         d="m 291.52507,751.57258 -0.004,0.0202 -0.004,0.0201 -0.004,0.0202 -0.0106,0.0189 -0.003,0.0135 -0.0106,0.0189 -0.0106,0.0189 -0.009,0.0122 -0.009,0.0122 -0.0106,0.0189 -0.016,0.0109 -0.009,0.0122 -0.009,0.0122 -0.016,0.011 -0.016,0.0109 -0.016,0.011 -0.008,0.006 -0.016,0.0109 -0.0147,0.004 -0.016,0.011 -0.0214,0.003 -0.0148,0.004 -0.0147,0.004 -0.0148,0.004 -0.0214,0.003 -0.0148,0.004 -0.0214,0.003 -0.0135,-0.003 -0.0214,0.003 -0.0135,-0.003 -0.0202,-0.004 -0.0135,-0.003 c -0.20824,-0.0388 -0.32219,-0.24778 -0.28962,-0.42243 0.0326,-0.17464 0.21294,-0.32174 0.42118,-0.2829 0.18808,0.0351 0.32298,0.20622 0.28414,0.41446 z"
         id="path6133" /><path
         style="fill:#000000;stroke-width:0"
         inkscape:connector-curvature="0"
         d="m 293.24714,750.01701 0.33329,-1.78681 c 0.0564,-0.30228 -0.0108,-0.3148 -0.46086,-0.39876 l 0.0376,-0.20151 c 0.23382,0.0507 0.57394,0.12791 0.74858,0.16048 0.17465,0.0326 0.52647,0.0843 0.7561,0.12018 l -0.0376,0.20151 c -0.45006,-0.0839 -0.52394,-0.0977 -0.58033,0.20455 l -0.22929,1.22928 c -0.12905,0.69188 0.27771,1.15701 0.7009,1.23594 0.42319,0.0789 0.56474,-0.27001 0.63491,-0.64618 l 0.29069,-1.55843 c 0.0564,-0.30227 -0.0176,-0.31606 -0.46086,-0.39875 l 0.0376,-0.20151 c 0.2271,0.0495 0.56721,0.12665 0.74858,0.16048 0.17465,0.0326 0.51974,0.083 0.74938,0.11892 l -0.0376,0.20152 c -0.34258,-0.0639 -0.51051,-0.0952 -0.55482,0.10505 l -0.23806,1.27628 c -0.1065,0.57098 -0.14534,0.77921 -0.39868,0.98219 -0.11538,0.0966 -0.36208,0.18966 -0.74496,0.11824 -0.49037,-0.0915 -0.7522,-0.43919 -0.86261,-0.89075 l -0.13156,0.70531 -0.92664,-0.24934 0.0388,-0.20824 c 0.47021,0.0877 0.52601,0.0495 0.58741,-0.27969 z"
         id="path6135" /><path
         style="fill:#000000;stroke-width:0"
         inkscape:connector-curvature="0"
         d="m 299.17306,747.09074 -0.001,0.007 v 0 0 l -10e-4,0.007 v 0 0 l -0.001,0.007 -0.007,-0.001 v 0 l -10e-4,0.007 v 0 l -0.008,0.006 v 0 l -0.001,0.007 -0.007,-10e-4 -10e-4,0.007 -0.008,0.006 v 0 l -0.008,0.006 v 0 l -10e-4,0.007 -0.007,-0.001 v 0 l -10e-4,0.007 -0.007,-10e-4 -0.001,0.007 -0.007,-10e-4 -10e-4,0.007 -0.007,-10e-4 -10e-4,0.007 -0.007,-0.001 -0.001,0.007 -0.008,0.006 v 0 l -0.008,0.006 -0.008,0.006 v 0 l -0.008,0.006 -0.008,0.006 v 0 l -0.008,0.006 -0.008,0.006 c -0.98957,0.6843 -1.44008,1.90706 -1.63053,2.92809 -0.21676,1.1621 -0.17826,2.37182 0.48589,3.35763 0.0723,0.0969 0.0697,0.11036 0.066,0.13047 -0.009,0.047 -0.0394,0.0621 -0.0797,0.0546 -0.0671,-0.0125 -0.58654,-0.58208 -0.81827,-1.50114 -0.20601,-0.79609 -0.14755,-1.55674 -0.0435,-2.11429 0.0977,-0.52394 0.32201,-1.31624 0.83176,-1.99967 0.55591,-0.74433 1.20832,-1.07446 1.27549,-1.06193 0.0403,0.008 0.0634,0.0327 0.0546,0.0797 z"
         id="path6137" /><path
         style="fill:#000000;stroke-width:0"
         inkscape:connector-curvature="0"
         d="m 301.6847,752.66824 -0.009,0.047 -0.0144,0.039 -0.009,0.047 -0.01,0.0538 -0.0156,0.0457 -0.0169,0.0525 -0.0169,0.0525 -0.0181,0.0592 -0.0169,0.0525 -0.0235,0.0513 -0.0182,0.0592 -0.0235,0.0513 -0.0314,0.0567 -0.0235,0.0513 -0.0302,0.05 -0.0314,0.0567 -0.0289,0.0432 -0.0369,0.0488 -0.0369,0.0488 -0.0356,0.042 -0.0411,0.034 -0.0424,0.0407 -0.0411,0.034 -0.0466,0.0261 -0.0466,0.0261 -0.0294,0.008 -0.0239,0.0164 -0.0227,0.01 -0.0281,0.002 -0.0294,0.008 -0.0227,0.01 -0.0281,0.002 -0.0281,0.002 -0.0281,0.002 -0.0349,6.1e-4 -0.0281,0.002 -0.0268,-0.005 -0.0349,6.1e-4 -0.0336,-0.006 0.0207,-0.14907 c 0.32916,0.0614 0.44965,-0.36099 0.51982,-0.73716 0.0614,-0.32916 0.0715,-0.68177 0.0331,-1.37013 l -1.3972,-0.26061 c 0.034,0.4512 0.0694,1.00694 0.2491,1.53398 0.12122,0.35626 0.2996,0.77879 0.59516,0.83392 l -0.0207,0.14907 c -0.92699,-0.17291 -1.60391,-2.24546 -1.31824,-3.77701 0.11653,-0.62471 0.44915,-1.32728 1.05372,-1.21452 l -0.0263,0.14107 c -0.22167,-0.0414 -0.39908,0.12714 -0.5156,0.75185 -0.0514,0.27541 -0.0837,0.67253 -0.0306,1.35669 l 1.39048,0.25936 c -0.0175,-0.31606 -0.0521,-0.91334 -0.21164,-1.43663 -0.14992,-0.50064 -0.34378,-0.8774 -0.63262,-0.93127 l 0.0263,-0.14107 c 0.94713,0.17667 1.60436,2.28031 1.32621,3.77155 z"
         id="path6139" /><path
         style="fill:#000000;stroke-width:0"
         inkscape:connector-curvature="0"
         d="m 304.21214,751.41581 -0.009,0.047 -0.01,0.0538 -0.01,0.0538 -0.0169,0.0525 -0.0213,0.1142 -0.0348,0.11168 -0.0294,0.11963 -0.0373,0.12512 -0.0452,0.13058 -0.0452,0.1306 -0.0519,0.12933 -0.0599,0.1348 -0.0599,0.13479 -0.0666,0.13355 -0.0733,0.1323 -0.0801,0.13103 -0.0406,0.0689 -0.0474,0.0677 -0.0462,0.0609 -0.0474,0.0676 c -0.54918,0.7456 -1.20832,1.07447 -1.27549,1.06194 -0.0403,-0.008 -0.0621,-0.0394 -0.0546,-0.0797 0.004,-0.0202 0.006,-0.0336 0.15645,-0.13069 0.77562,-0.54348 1.35648,-1.5334 1.61584,-2.92389 0.213,-1.14195 0.18372,-2.36383 -0.48589,-3.35761 -0.0723,-0.0969 -0.0697,-0.11036 -0.066,-0.13049 0.008,-0.0403 0.0394,-0.0621 0.0797,-0.0546 0.0671,0.0125 0.58653,0.58207 0.81826,1.50113 0.20602,0.79609 0.1488,1.55003 0.0435,2.11428 z"
         id="path6141" /><path
         inkscape:transform-center-y="-8.8769075"
         inkscape:transform-center-x="-3.3703878"
         style="fill:#000000;stroke-width:0"
         inkscape:connector-curvature="0"
         d="m 298.35015,782.41621 -0.007,-0.002 -0.0132,-0.004 -0.007,-0.002 -0.015,0.003 -0.0198,-0.005 -0.0216,10e-4 -0.0216,0.001 -0.0282,-3e-4 -0.0198,-0.005 -0.0216,10e-4 -0.007,-0.002 -0.0151,0.003 -0.007,-0.002 -0.0132,-0.004 -0.009,0.005 -0.007,-0.002 -0.0132,-0.004 -0.009,0.005 -0.007,-0.002 -0.007,-0.002 -0.007,-0.002 -0.007,-0.002 -0.007,-0.002 v 0 l -0.007,-0.002 -0.009,0.005 c -0.11881,-0.0318 -0.14684,-0.13842 -0.12032,-0.23739 0.0212,-0.0792 0.0992,-0.18564 0.24364,-0.19646 0.015,-0.003 0.3464,8.8e-4 0.52203,0.005 l 0.62634,0.0122 c 0.15582,-7e-4 0.31164,-10e-4 0.47229,0.006 0.11927,0.004 0.32483,0.002 0.35299,0.003 0.22454,-0.0459 0.91891,-0.23482 1.08516,-0.85525 0.0796,-0.29701 -0.14872,-0.42185 -0.36652,-0.48022 -0.16501,-0.0442 -0.3556,-0.0458 -0.56776,-0.046 l -0.80856,-0.0186 -0.537,-0.002 c -0.13907,-0.009 -0.3794,-0.01 -0.41241,-0.0186 -0.1188,-0.0318 -0.14683,-0.13842 -0.12031,-0.23739 0.0548,-0.20461 0.22384,-0.20177 0.4492,-0.19798 0.39438,0.007 1.4151,0.0255 1.68843,0.035 0.0845,10e-4 0.97028,-0.13618 1.16306,-0.85562 0.0743,-0.27721 -0.13068,-0.40995 -0.36829,-0.47362 -0.36962,-0.099 -1.19634,-0.0234 -1.57317,0.01 -0.17433,0.017 -0.25399,0.0239 -0.38599,-0.0115 -0.31022,-0.0831 -0.47273,-0.37427 -0.39138,-0.67789 0.16624,-0.62043 1.18873,-0.60821 1.24154,-0.59406 0.066,0.0177 0.05,0.0771 0.0448,0.0969 -0.0177,0.066 -0.0441,0.0589 -0.14534,0.0672 -0.37635,0.005 -0.90156,0.0909 -0.99883,0.45393 -0.0301,0.11221 0.0235,0.17609 0.17536,0.21677 0.16501,0.0442 0.33934,0.0273 0.50046,0.007 0.37022,-0.0352 1.17713,-0.11611 1.54676,-0.0171 0.42902,0.11496 0.63549,0.45325 0.50462,0.94167 -0.13264,0.49503 -0.51326,0.75383 -0.92851,0.90431 0.084,0.0297 0.30315,0.10949 0.4138,0.33018 0.0944,0.20215 0.0708,0.4222 0.0266,0.58721 -0.15918,0.59404 -0.66648,0.79766 -0.84836,0.86919 0.36736,0.13384 0.49111,0.46408 0.41152,0.7611 -0.0814,0.30361 -0.3706,0.35345 -0.50532,0.38102 -0.26285,0.0569 -0.66866,0.0401 -0.68847,0.0348 -0.066,-0.0177 -0.0483,-0.0836 -0.0447,-0.0969 0.0177,-0.066 0.0262,-0.0708 0.17527,-0.0733 0.49869,0.0134 0.84911,-0.0272 0.91278,-0.26477 0.0283,-0.1056 0.002,-0.21876 -0.2488,-0.28596 -0.1386,-0.0371 -0.21651,-0.0368 -0.57612,-0.0412 z"
         id="path6143" /><path
         inkscape:transform-center-y="-5.2148563"
         inkscape:transform-center-x="-3.8873724"
         style="fill:#000000;stroke-width:0"
         inkscape:connector-curvature="0"
         d="m 302.65716,774.68504 0.007,0.002 0.009,-0.005 0.007,0.002 0.007,0.002 0.015,-0.003 0.0132,0.004 0.007,0.002 0.007,0.002 0.009,-0.005 0.007,0.002 0.007,0.002 0.007,0.002 0.007,0.002 v 0 l 0.007,0.002 0.007,0.002 v 0 l 0.007,0.002 c 0.1122,0.0301 0.15699,0.12696 0.12693,0.23916 -0.0177,0.066 -0.10984,0.22524 -0.35457,0.18797 0.21239,0.18424 0.32209,0.46123 0.25135,0.72525 l -0.14339,-0.0457 c 0.11672,-0.43563 -0.39315,-0.67129 -0.42614,-0.68013 -0.033,-0.009 -0.0762,-0.006 -0.10432,-0.007 l -1.33235,-0.0174 c -0.18223,-0.006 -0.38791,0.10121 -0.55223,0.21281 -0.15594,0.10678 -0.32957,0.27955 -0.37909,0.46436 -0.0884,0.33002 0.22826,0.52099 0.49227,0.59173 0.31022,0.0831 1.14035,0.10041 1.51812,0.0106 0.36939,-0.0849 0.70946,-0.29802 0.78374,-0.57523 l 0.14339,0.0457 c -0.19985,0.74584 -1.33659,1.31845 -2.28705,1.06378 -0.64683,-0.17332 -0.92177,-0.67852 -0.79443,-1.15375 0.10257,-0.38281 0.48931,-0.61167 0.5796,-0.65822 l -0.005,-0.009 c -0.61797,-0.017 -0.90981,-0.0103 -0.92301,-0.0139 -0.0665,0.0104 -0.77345,0.0616 -0.95914,0.75461 -0.0336,0.1254 -0.0852,0.34503 -0.0755,0.54571 0.11247,-0.1821 0.29692,-0.21049 0.40913,-0.18042 0.1056,0.0283 0.21155,0.13454 0.16381,0.31271 -0.0389,0.14521 -0.21432,0.32458 -0.47832,0.25384 -0.26402,-0.0707 -0.33059,-0.35033 -0.16081,-0.98396 0.2193,-0.81844 0.85487,-1.15749 1.27741,-1.15037 z"
         id="path6145" /><path
         inkscape:transform-center-y="-1.7674666"
         inkscape:transform-center-x="-5.3896029"
         style="fill:#000000;stroke-width:0"
         inkscape:connector-curvature="0"
         d="m 302.18909,772.26049 0.0528,0.0142 0.0462,0.0124 0.048,0.006 0.0462,0.0124 0.0462,0.0124 0.048,0.006 0.0414,0.004 0.0414,0.004 0.0414,0.004 0.0414,0.004 0.0414,0.004 0.0414,0.004 0.0779,-3.3e-4 0.0713,-0.002 0.0713,-0.002 0.0665,-0.0105 0.0647,-0.004 0.0617,-0.0189 0.0532,-0.014 0.055,-0.0207 0.0532,-0.014 0.0485,-0.0224 0.0437,-0.0308 0.0419,-0.0242 0.0419,-0.0242 0.037,-0.0325 0.0352,-0.026 0.0304,-0.0343 0.0286,-0.0277 0.0304,-0.0343 0.0238,-0.036 0.0221,-0.0295 0.0174,-0.0378 0.0221,-0.0295 0.0174,-0.0378 0.009,-0.033 0.0156,-0.0312 0.009,-0.033 c 0.0159,-0.0594 0.12057,-0.47703 -0.055,-0.77167 -0.0923,0.26531 -0.30093,0.25185 -0.38673,0.22886 -0.17162,-0.046 -0.26519,-0.19839 -0.21567,-0.3832 0.046,-0.17161 0.18696,-0.27532 0.38497,-0.22227 0.44882,0.12026 0.57183,0.69086 0.43565,1.1991 -0.2193,0.81843 -1.09484,1.23467 -1.90669,1.01714 -0.83824,-0.22461 -1.30999,-1.05137 -1.1066,-1.8104 0.23698,-0.88445 1.07725,-0.87861 1.14325,-0.86092 0.066,0.0177 0.0483,0.0837 0.0447,0.0969 -0.0159,0.0594 -0.0458,0.0656 -0.0889,0.0681 -0.66513,0.0269 -0.85929,0.43473 -0.92473,0.67895 -0.092,0.34321 0.0362,1.00009 1.09228,1.28306 z"
         id="path6147" /><path
         inkscape:transform-center-y="0.65937985"
         inkscape:transform-center-x="-6.0114109"
         style="fill:#000000;stroke-width:0"
         inkscape:connector-curvature="0"
         d="m 303.56869,767.00614 0.0792,0.0212 0.0774,0.028 0.0691,0.0327 0.0757,0.0344 0.0691,0.0327 0.0673,0.0393 0.0656,0.0458 0.0589,0.044 0.0589,0.044 0.0571,0.0507 0.0571,0.0507 0.0488,0.0555 0.0554,0.0573 0.0405,0.0603 0.047,0.0621 0.0405,0.0603 0.0387,0.067 0.0338,0.0585 0.0302,0.0718 0.0255,0.0634 0.0302,0.0718 0.0154,0.0748 0.0171,0.0683 0.0154,0.0748 0.009,0.073 0.009,0.073 0.002,0.0713 3.3e-4,0.0779 -0.006,0.0762 -0.0127,0.0744 -0.0127,0.0745 -0.0127,0.0744 -0.14702,-0.0321 c 0.0778,-0.29042 0.009,-0.61315 -0.23095,-0.8542 -0.23782,-0.24766 -0.61405,-0.34847 -0.86486,-0.41567 -0.23761,-0.0637 -0.58743,-0.1574 -0.91499,-0.0966 -0.33592,0.0656 -0.60515,0.30475 -0.69358,0.63477 v 0 c -0.0761,0.28382 -0.0153,0.61137 0.24238,0.86433 0.24621,0.24283 0.64223,0.34894 0.87983,0.41261 0.25742,0.069 0.60724,0.16271 0.9401,0.0821 0.35136,-0.0969 0.57133,-0.36334 0.64207,-0.62734 l 0.14702,0.0321 c -0.2193,0.81845 -1.1103,1.26591 -1.92873,1.04661 -0.84485,-0.22637 -1.28795,-1.08083 -1.0828,-1.84646 0.21223,-0.79205 1.03109,-1.28714 1.86273,-1.0643 z"
         id="path6149" /><path
         inkscape:transform-center-y="2.9985829"
         inkscape:transform-center-x="-6.6252886"
         style="fill:#000000;stroke-width:0"
         inkscape:connector-curvature="0"
         d="m 303.85406,765.41309 0.005,-0.0198 -0.003,-0.015 0.005,-0.0198 -0.001,-0.0216 -10e-4,-0.0216 3.1e-4,-0.0282 3e-4,-0.0282 3.1e-4,-0.0282 3e-4,-0.0282 3e-4,-0.0282 -0.006,-0.0299 -0.004,-0.0366 3e-4,-0.0282 -0.011,-0.0383 -0.006,-0.0299 -0.006,-0.0299 -0.011,-0.0383 -0.0127,-0.0317 -0.0127,-0.0317 -0.0127,-0.0317 -0.0127,-0.0317 -0.0211,-0.0269 -0.0193,-0.0334 -0.0211,-0.0269 -0.0277,-0.0286 -0.0114,-0.0103 -0.018,-0.0121 -0.0114,-0.0103 -0.018,-0.0121 -0.0114,-0.0103 -0.018,-0.0121 -0.018,-0.0121 -0.0114,-0.0103 -0.0198,-0.005 -0.018,-0.0121 -0.0198,-0.005 -0.0246,-0.0138 -0.0198,-0.005 -0.0198,-0.005 c -0.33661,-0.0902 -0.66252,0.0701 -0.80047,0.58491 -0.14679,0.54782 0.16576,0.88625 0.69319,1.16198 0.0739,0.041 0.0985,0.0547 0.0808,0.12074 -0.023,0.0858 -0.0692,0.0734 -0.1814,0.0433 l -0.87124,-0.23345 c -0.10561,-0.0283 -0.15181,-0.0407 -0.13235,-0.11332 0.009,-0.033 0.0174,-0.0378 0.16962,-0.1314 0.0168,-0.01 0.0299,-0.006 0.18718,-0.0913 -0.1928,-0.36293 -0.11981,-0.66172 -0.0844,-0.79372 0.20339,-0.75905 0.72036,-0.94593 1.19559,-0.81859 0.34321,0.092 0.48817,0.34302 0.54615,0.44345 0.15285,0.27441 0.13667,0.54597 0.1152,0.83733 -0.0246,0.38249 -0.064,0.84592 0.31887,0.9485 0.23101,0.0619 0.5476,-0.0372 0.69793,-0.59823 0.19454,-0.72604 -0.39065,-0.91821 -0.59173,-0.98623 -0.0576,-0.0227 -0.0417,-0.0819 -0.0382,-0.0951 0.023,-0.0858 0.0626,-0.0752 0.1814,-0.0433 l 0.66663,0.17863 c 0.11221,0.0301 0.15841,0.0425 0.13895,0.11508 -0.009,0.033 -0.0124,0.0462 -0.11458,0.11079 -0.0317,0.0127 -0.10876,0.0628 -0.13567,0.0839 0.11761,0.30033 0.0451,0.57094 0.0186,0.66995 -0.214,0.79864 -0.72342,0.93097 -1.09304,0.83193 -0.22442,-0.0601 -0.38093,-0.21527 -0.47839,-0.43238 -0.11501,-0.25719 -0.10509,-0.45261 -0.0719,-0.946 z"
         id="path6151" /><path
         inkscape:transform-center-y="5.3998945"
         inkscape:transform-center-x="-7.5430263"
         style="fill:#000000;stroke-width:0"
         inkscape:connector-curvature="0"
         d="m 301.92189,761.24506 0.007,0.002 v 0 0 l 0.007,0.002 v 0 l -0.002,0.007 0.007,0.002 v 0 0 l 0.007,0.002 v 0 l 0.005,0.009 v 0 l 0.007,0.002 -0.002,0.007 0.007,0.002 0.005,0.009 v 0 l 0.005,0.009 v 0 l 0.007,0.002 -0.002,0.007 v 0 l 0.005,0.009 v 0 l 0.007,0.002 -0.002,0.007 0.007,0.002 -0.002,0.007 0.007,0.002 -0.002,0.007 0.007,0.002 0.005,0.009 -0.002,0.007 0.007,0.002 0.005,0.009 -0.002,0.007 0.007,0.002 0.005,0.009 -0.002,0.007 0.007,0.002 0.005,0.009 c 0.60397,1.04611 1.79002,1.58321 2.79326,1.85203 1.14186,0.30596 2.34916,0.36771 3.38514,-0.22483 0.10219,-0.0645 0.11542,-0.061 0.13519,-0.0557 0.0462,0.0124 0.0589,0.044 0.0483,0.0837 -0.0177,0.066 -0.62567,0.53978 -1.55989,0.69975 -0.80964,0.14386 -1.5635,0.0267 -2.11133,-0.12004 -0.51483,-0.13795 -1.28741,-0.42281 -1.92938,-0.98387 -0.7009,-0.60519 -0.97782,-1.28778 -0.96014,-1.35379 0.0106,-0.0396 0.0375,-0.0607 0.0836,-0.0483 z"
         id="path6153" /><path
         inkscape:transform-center-y="7.2189225"
         inkscape:transform-center-x="-8.4922042"
         style="fill:#000000;stroke-width:0"
         inkscape:connector-curvature="0"
         d="m 307.67688,759.17217 0.0462,0.0124 0.0378,0.0174 0.0462,0.0124 0.0528,0.0142 0.0444,0.0191 0.051,0.0209 0.051,0.0209 0.0576,0.0227 0.051,0.0209 0.0493,0.0274 0.0576,0.0227 0.0493,0.0274 0.0541,0.0357 0.0493,0.0274 0.0475,0.034 0.0541,0.0357 0.0409,0.0322 0.0458,0.0405 0.0458,0.0405 0.0391,0.0387 0.0308,0.0436 0.0373,0.0454 0.029,0.0502 0.0242,0.0419 0.0207,0.055 0.008,0.0233 0.0145,0.0251 0.006,0.0299 0.001,0.0216 0.006,0.0299 0.006,0.0299 10e-4,0.0216 -3e-4,0.0282 -0.002,0.0349 -3.1e-4,0.0282 -3e-4,0.0282 -0.009,0.033 -3.1e-4,0.0282 -0.009,0.033 -0.14702,-0.0322 c 0.0867,-0.32342 -0.32515,-0.47621 -0.69477,-0.57525 -0.32342,-0.0867 -0.67419,-0.12402 -1.36346,-0.13896 l -0.36786,1.37287 c 0.45248,9.8e-4 1.00928,0.009 1.54865,-0.12976 0.36457,-0.0933 0.79786,-0.23189 0.87744,-0.5289 l 0.14702,0.0322 c -0.24406,0.91084 -2.36275,1.42549 -3.86763,1.02226 -0.61383,-0.16447 -1.28858,-0.55042 -1.1294,-1.14446 l 0.13861,0.0371 c -0.0584,0.21782 0.0959,0.40772 0.70973,0.57219 0.27061,0.0725 0.66405,0.13549 1.35027,0.13542 l 0.36608,-1.36626 c -0.31648,-0.007 -0.91464,-0.0187 -1.44869,0.0999 -0.51073,0.11076 -0.90135,0.27492 -0.97739,0.55872 l -0.13861,-0.0371 c 0.24759,-0.92404 2.39751,-1.42326 3.86279,-1.03064 z"
         id="path6155" /><path
         inkscape:transform-center-y="9.3031271"
         inkscape:transform-center-x="-8.4285445"
         style="fill:#000000;stroke-width:0"
         inkscape:connector-curvature="0"
         d="m 306.62361,756.55545 0.0462,0.0124 0.0528,0.0142 0.051,0.0209 0.0528,0.0142 0.11039,0.0368 0.1104,0.0368 0.117,0.0386 0.1201,0.0534 0.12846,0.0486 0.12669,0.0552 0.12495,0.0617 0.12975,0.0702 0.12976,0.0702 0.128,0.0767 0.12623,0.0833 0.12445,0.09 0.0638,0.0525 0.0656,0.0458 0.0571,0.0507 0.0638,0.0525 c 0.70089,0.60519 0.97781,1.28778 0.96013,1.35378 -0.0106,0.0396 -0.044,0.0589 -0.0836,0.0483 -0.0198,-0.005 -0.033,-0.009 -0.11821,-0.16608 -0.48188,-0.81532 -1.42393,-1.47097 -2.7902,-1.83706 -1.12206,-0.30066 -2.34256,-0.36594 -3.38513,0.22483 -0.10219,0.0646 -0.11542,0.061 -0.13519,0.0557 -0.0396,-0.0106 -0.0589,-0.044 -0.0483,-0.0836 0.0177,-0.066 0.62392,-0.53318 1.5599,-0.69975 0.80964,-0.14385 1.5569,-0.0285 2.11132,0.12004 z"
         id="path6157" /><path
         style="fill:#000000;stroke-width:0"
         inkscape:connector-curvature="0"
         d="m 279.90206,768.88316 v -0.007 -0.0137 l -0.007,-0.007 v -0.0137 l -0.007,-0.0205 v -0.0205 l -0.007,-0.0205 -0.007,-0.0273 -0.007,-0.0205 v -0.0205 l -0.007,-0.007 v -0.0137 -0.007 l -0.007,-0.0137 v -0.007 -0.007 -0.0137 l -0.007,-0.007 v -0.007 -0.007 -0.007 -0.007 -0.007 h -0.007 v -0.007 -0.007 c 0,-0.123 0.0957,-0.17767 0.19816,-0.17767 0.082,0 0.20499,0.0478 0.25283,0.1845 0.007,0.0137 0.0888,0.33482 0.12983,0.50565 l 0.15033,0.60816 c 0.041,0.15033 0.082,0.30066 0.11616,0.45782 0.0273,0.11616 0.082,0.31433 0.0888,0.34166 0.1025,0.20499 0.45782,0.82681 1.10698,0.82681 0.30749,0 0.36899,-0.25282 0.36899,-0.47832 0,-0.17083 -0.0478,-0.35532 -0.1025,-0.56032 l -0.19133,-0.78582 -0.13666,-0.51932 c -0.0273,-0.13666 -0.0888,-0.36899 -0.0888,-0.40315 0,-0.123 0.0957,-0.17767 0.19816,-0.17767 0.21183,0 0.25283,0.164 0.30749,0.38266 0.0957,0.38266 0.34166,1.37347 0.40316,1.63996 0.0205,0.082 0.38266,0.90198 1.12064,0.90198 0.29383,0 0.36899,-0.23232 0.36899,-0.47832 0,-0.38266 -0.28699,-1.16164 -0.41682,-1.51696 -0.0615,-0.164 -0.0888,-0.23917 -0.0888,-0.37583 0,-0.32116 0.23233,-0.55349 0.55349,-0.55349 0.64231,0 0.88831,0.99081 0.88831,1.04548 0,0.0683 -0.0547,0.0683 -0.0752,0.0683 -0.0683,0 -0.0683,-0.0273 -0.10249,-0.123 -0.1025,-0.36215 -0.32116,-0.84731 -0.69699,-0.84731 -0.11616,0 -0.16399,0.0683 -0.16399,0.22549 0,0.17083 0.0615,0.33483 0.12299,0.48516 0.12983,0.34849 0.41683,1.10698 0.41683,1.48963 0,0.44416 -0.27333,0.73115 -0.77899,0.73115 -0.51248,0 -0.86098,-0.30066 -1.1138,-0.66281 -0.007,0.0888 -0.0273,0.32116 -0.21183,0.48515 -0.17083,0.1435 -0.38949,0.17766 -0.56032,0.17766 -0.61499,0 -0.94298,-0.43732 -1.05915,-0.59448 -0.0342,0.38949 -0.32116,0.59448 -0.62865,0.59448 -0.31433,0 -0.44416,-0.26649 -0.49882,-0.38949 -0.123,-0.23916 -0.21183,-0.63548 -0.21183,-0.65598 0,-0.0683 0.0683,-0.0683 0.082,-0.0683 0.0683,0 0.0683,0.007 0.10933,0.15033 0.11616,0.48515 0.25283,0.81314 0.49882,0.81314 0.10933,0 0.21183,-0.0547 0.21183,-0.31432 0,-0.1435 -0.0205,-0.21866 -0.10933,-0.56716 z"
         id="path6159" /><path
         style="fill:#000000;stroke-width:0"
         inkscape:connector-curvature="0"
         d="m 288.48454,771.04245 v 0.007 l 0.007,0.007 v 0.007 0.007 0.0137 l 0.007,0.0137 v 0.007 0.007 0.007 l 0.007,0.007 v 0.007 0.007 0.007 0 0.007 0.007 0 0.007 c 0,0.11617 -0.082,0.1845 -0.19816,0.1845 -0.0683,0 -0.25283,-0.0478 -0.28016,-0.29383 -0.11617,0.25283 -0.35533,0.43049 -0.62866,0.43049 l 0.007,-0.15033 c 0.45099,0 0.54665,-0.55348 0.54665,-0.58765 0,-0.0342 -0.0137,-0.0752 -0.0205,-0.1025 l -0.32799,-1.29147 c -0.041,-0.17766 -0.19816,-0.34849 -0.34849,-0.47832 -0.1435,-0.123 -0.35533,-0.246 -0.55349,-0.246 -0.33483,0 -0.43732,0.35533 -0.43732,0.62866 0,0.32116 0.19816,1.12747 0.38265,1.46913 0.17767,0.33483 0.47149,0.60815 0.75849,0.60815 l -0.007,0.15033 c -0.77215,0 -1.61946,-0.94981 -1.61946,-1.93379 0,-0.66965 0.41682,-1.06597 0.90198,-1.06597 0.40316,0 0.72432,0.31432 0.79265,0.38949 l 0.007,-0.007 c -0.14349,-0.60132 -0.22549,-0.88148 -0.22549,-0.89515 -0.0273,-0.0615 -0.25966,-0.73115 -0.97715,-0.73115 -0.12983,0 -0.35532,0.007 -0.54665,0.0683 0.20499,0.0615 0.28016,0.23233 0.28016,0.34849 0,0.10933 -0.0752,0.23916 -0.25966,0.23916 -0.15033,0 -0.36899,-0.12299 -0.36899,-0.39632 0,-0.27333 0.25282,-0.40999 0.90881,-0.40999 0.84731,0 1.3393,0.52615 1.4418,0.93614 z"
         id="path6161" /><path
         style="fill:#000000;stroke-width:0"
         inkscape:connector-curvature="0"
         d="m 122.82332,814.47694 v 0.01 0 0.01 h 0.01 v 0.02 0.01 0.01 l 0.01,0.01 v 0.01 0 0.01 l 0.01,0.01 v 0.01 0.01 0 0.01 0 0.01 0.01 h 0.01 v 0.01 0 0.01 0.01 0.01 0.01 0.01 0.01 0 0.01 c 0,0.18 -0.14,0.27 -0.29,0.27 -0.1,0 -0.26,-0.06 -0.35,-0.21 -0.02,-0.05 -0.1,-0.36 -0.14,-0.54 -0.07,-0.26 -0.14,-0.52 -0.2,-0.79 l -0.44,-1.79 c -0.04,-0.15 -0.47,-0.85 -1.13,-0.85 -0.51,0 -0.62,0.44 -0.62,0.81 0,0.46 0.17,1.07 0.51,1.95 0.16,0.4 0.2,0.51 0.2,0.71 0,0.45 -0.32,0.82 -0.81,0.82 -0.95,0 -1.32,-1.44 -1.32,-1.53 0,-0.1 0.1,-0.1 0.12,-0.1 0.1,0 0.11,0.02 0.16,0.18 0.27,0.93 0.67,1.23 1.01,1.23 0.07,0 0.24,0 0.24,-0.32 0,-0.25 -0.09,-0.51 -0.17,-0.7 -0.39,-1.05 -0.57,-1.62 -0.57,-2.08 0,-0.89 0.63,-1.18 1.21,-1.18 0.39,0 0.73,0.16 1.01,0.44 -0.13,-0.51 -0.25,-1 -0.65,-1.53 -0.26,-0.34 -0.64,-0.62 -1.09,-0.62 -0.14,0 -0.59,0.03 -0.76,0.41 0.16,0 0.29,0 0.43,0.12 0.1,0.09 0.2,0.22 0.2,0.41 0,0.31 -0.27,0.35 -0.37,0.35 -0.23,0 -0.56,-0.16 -0.56,-0.65 0,-0.49 0.44,-0.86 1.06,-0.86 1.02,0 2.05,0.9 2.32,2.02 z"
         id="path6163" /><path
         style="fill:#000000;stroke-width:0"
         inkscape:connector-curvature="0"
         d="m 118.10393,780.12416 v 0.15 l -0.01,0.15 v 0.15 l -0.01,0.15 -0.01,0.15 -0.01,0.14 -0.01,0.15 -0.02,0.15 -0.03,0.14 -0.02,0.15 -0.04,0.14 -0.03,0.15 -0.05,0.14 -0.04,0.14 -0.06,0.14 -0.03,0.07 -0.03,0.07 c -0.46,0.95 -1.28,1.11 -1.69,1.11 -0.6,0 -1.33,-0.26 -1.73,-1.18 -0.32,-0.69 -0.37,-1.46 -0.37,-2.26 0,-0.74 0.04,-1.64 0.44,-2.39 0.43,-0.81 1.16,-1 1.65,-1 v 0.22 c -0.39,0 -0.98,0.24 -1.16,1.2 -0.11,0.59 -0.11,1.51 -0.11,2.09 0,0.64 0,1.29 0.08,1.83 0.19,1.18 0.94,1.27 1.19,1.27 0.32,0 0.98,-0.18 1.17,-1.16 0.1,-0.56 0.1,-1.31 0.1,-1.94 0,-0.74 0,-1.42 -0.11,-2.05 -0.15,-0.95 -0.72,-1.24 -1.16,-1.24 v 0 -0.22 c 0.53,0 1.29,0.2 1.73,1.15 0.32,0.68 0.37,1.46 0.37,2.24 z"
         id="path6165" /><path
         sodipodi:nodetypes="cc"
         inkscape:connector-curvature="0"
         id="path6282"
         d="m 268.87137,835.6881 c 3.33139,-1.03899 5.63226,-0.0169 7.18287,2.50565"
         style="fill:none;stroke:#000000;stroke-width:0.33072916px;stroke-linecap:butt;stroke-linejoin:miter;stroke-opacity:1" /></g>    <g
       id="g7709"
       inkscape:export-xdpi="300"
       inkscape:export-ydpi="300">
      <path
         inkscape:connector-curvature="0"
         id="path815"
         d="M 37.417734,24.652351 H 91.406177"
         style="fill:none;stroke:#000000;stroke-width:0.52916667;stroke-linecap:butt;stroke-linejoin:miter;stroke-opacity:1;stroke-miterlimit:4;stroke-dasharray:none" />
      <g
         id="g943"
         transform="matrix(0.99679376,0,0,1.2710733,0.20117202,-6.5531716)"
         style="opacity:0.3;stroke-width:0.47011545;stroke-miterlimit:4;stroke-dasharray:none;filter:url(#filter7498)">
        <path
           style="fill:none;stroke:#000000;stroke-width:0.47011545;stroke-linecap:butt;stroke-linejoin:miter;stroke-miterlimit:4;stroke-dasharray:none;stroke-opacity:1"
           d="m 50.459822,24.668154 24.568451,8.504465"
           id="path927"
           inkscape:connector-curvature="0" />
        <path
           inkscape:connector-curvature="0"
           id="path929"
           d="M 50.459822,41.677084 75.028273,33.172619"
           style="fill:none;stroke:#000000;stroke-width:0.47011545;stroke-linecap:butt;stroke-linejoin:miter;stroke-miterlimit:4;stroke-dasharray:none;stroke-opacity:1" />
        <path
           style="fill:none;stroke:#000000;stroke-width:0.47011545;stroke-linecap:butt;stroke-linejoin:miter;stroke-miterlimit:4;stroke-dasharray:none;stroke-opacity:1"
           d="M 75.028273,50.181549 50.459822,41.677084"
           id="path931"
           inkscape:connector-curvature="0" />
        <path
           inkscape:connector-curvature="0"
           id="path933"
           d="M 50.459822,75.694944 75.028273,67.190479"
           style="fill:none;stroke:#000000;stroke-width:0.47011545;stroke-linecap:butt;stroke-linejoin:miter;stroke-miterlimit:4;stroke-dasharray:none;stroke-opacity:1" />
        <path
           style="fill:none;stroke:#000000;stroke-width:0.47011545;stroke-linecap:butt;stroke-linejoin:miter;stroke-miterlimit:4;stroke-dasharray:none;stroke-opacity:1"
           d="m 50.459822,58.686014 24.568451,8.504465"
           id="path935"
           inkscape:connector-curvature="0" />
        <path
           inkscape:connector-curvature="0"
           id="path937"
           d="M 75.028273,50.181549 50.459822,58.686014"
           style="fill:none;stroke:#000000;stroke-width:0.47011545;stroke-linecap:butt;stroke-linejoin:miter;stroke-miterlimit:4;stroke-dasharray:none;stroke-opacity:1" />
        <path
           inkscape:connector-curvature="0"
           id="path939"
           d="m 50.459822,75.694944 12.284226,4.252233"
           style="fill:none;stroke:#000000;stroke-width:0.47011545;stroke-linecap:butt;stroke-linejoin:miter;stroke-miterlimit:4;stroke-dasharray:none;stroke-opacity:1" />
        <path
           sodipodi:nodetypes="cc"
           style="fill:none;stroke:#000000;stroke-width:0.47011545;stroke-linecap:butt;stroke-linejoin:miter;stroke-miterlimit:4;stroke-dasharray:none;stroke-opacity:1"
           d="m 62.744048,79.947176 0,8.689391"
           id="path941"
           inkscape:connector-curvature="0" />
      </g>
      <path
         sodipodi:nodetypes="cc"
         inkscape:connector-curvature="0"
         id="path964"
         d="M 35.718748,57.835568 V 126.43824"
         style="fill:none;stroke:#000000;stroke-width:0.26458332;stroke-linecap:butt;stroke-linejoin:miter;stroke-miterlimit:4;stroke-dasharray:2.11666654, 2.11666654;stroke-dashoffset:0;stroke-opacity:1;marker-start:url(#Arrow2Lstart);marker-end:url(#Arrow2Lend)" />
      <path
         sodipodi:nodetypes="cc"
         inkscape:connector-curvature="0"
         id="path2792"
         d="m 35.677,92.219195 h -4"
         style="fill:none;stroke:#000000;stroke-width:0.21862228px;stroke-linecap:butt;stroke-linejoin:miter;stroke-opacity:1" />
      <g
         id="g907">
        <path
           style="fill:none;stroke:#000000;stroke-width:0.5291667;stroke-linecap:butt;stroke-linejoin:miter;stroke-miterlimit:4;stroke-dasharray:none;stroke-opacity:1"
           d="m 50.459822,24.668154 24.568451,8.504465"
           id="path817"
           inkscape:connector-curvature="0" />
        <path
           inkscape:connector-curvature="0"
           id="path819"
           d="M 50.459822,41.677084 75.028273,33.172619"
           style="fill:none;stroke:#000000;stroke-width:0.5291667;stroke-linecap:butt;stroke-linejoin:miter;stroke-miterlimit:4;stroke-dasharray:none;stroke-opacity:1" />
        <path
           style="fill:none;stroke:#000000;stroke-width:0.5291667;stroke-linecap:butt;stroke-linejoin:miter;stroke-miterlimit:4;stroke-dasharray:none;stroke-opacity:1"
           d="M 75.028273,50.181549 50.459822,41.677084"
           id="path821"
           inkscape:connector-curvature="0" />
        <path
           inkscape:connector-curvature="0"
           id="path823"
           d="M 50.459822,75.694944 75.028273,67.190479"
           style="fill:none;stroke:#000000;stroke-width:0.5291667;stroke-linecap:butt;stroke-linejoin:miter;stroke-miterlimit:4;stroke-dasharray:none;stroke-opacity:1" />
        <path
           style="fill:none;stroke:#000000;stroke-width:0.5291667;stroke-linecap:butt;stroke-linejoin:miter;stroke-miterlimit:4;stroke-dasharray:none;stroke-opacity:1"
           d="m 50.459822,58.686014 24.568451,8.504465"
           id="path825"
           inkscape:connector-curvature="0" />
        <path
           inkscape:connector-curvature="0"
           id="path827"
           d="M 75.028273,50.181549 50.459822,58.686014"
           style="fill:none;stroke:#000000;stroke-width:0.5291667;stroke-linecap:butt;stroke-linejoin:miter;stroke-miterlimit:4;stroke-dasharray:none;stroke-opacity:1" />
        <path
           inkscape:connector-curvature="0"
           id="path829"
           d="m 50.459822,75.694944 12.284226,4.252233"
           style="fill:none;stroke:#000000;stroke-width:0.5291667;stroke-linecap:butt;stroke-linejoin:miter;stroke-miterlimit:4;stroke-dasharray:none;stroke-opacity:1" />
        <path
           style="fill:none;stroke:#000000;stroke-width:0.5291667;stroke-linecap:butt;stroke-linejoin:miter;stroke-miterlimit:4;stroke-dasharray:none;stroke-opacity:1"
           d="M 62.744048,79.947176 V 91.758928"
           id="path831"
           inkscape:connector-curvature="0" />
      </g>
      <rect
         ry="3.1182997"
         y="88.546127"
         x="53.105652"
         height="6.4255958"
         width="19.276787"
         id="rect837"
         style="fill:#00a2ff;fill-opacity:1;stroke:#000000;stroke-width:0.26458333;stroke-linecap:round;stroke-miterlimit:4;stroke-dasharray:none;stroke-opacity:1;filter:url(#filter3030)" />
      <rect
         ry="3.4509075"
         y="20.108768"
         x="23.546577"
         height="115.99498"
         width="75.102737"
         id="rect3185"
         style="opacity:0.05;fill:none;fill-opacity:1;stroke:#000000;stroke-width:0.52916664;stroke-linecap:round;stroke-miterlimit:4;stroke-dasharray:none;stroke-dashoffset:0;stroke-opacity:1" />
      <path
         inkscape:connector-curvature="0"
         id="path6356"
         d="M 77.788861,113.21201 V 96.641298"
         style="fill:none;stroke:#000000;stroke-width:0.26458332;stroke-linecap:butt;stroke-linejoin:miter;stroke-miterlimit:3.79999995;stroke-dasharray:2.11666654, 2.11666654;stroke-dashoffset:0;stroke-opacity:1;marker-end:url(#marker6360)" />
      <g
         style="font-style:normal;font-variant:normal;font-weight:normal;font-stretch:normal;letter-spacing:normal;word-spacing:normal;text-anchor:start;fill:#000000;fill-opacity:1;fill-rule:evenodd;stroke:#000000;stroke-linecap:butt;stroke-linejoin:miter;stroke-miterlimit:10.43299961;stroke-dasharray:none;stroke-dashoffset:0;stroke-opacity:1"
         id="g7039"
         transform="matrix(0,-0.61205606,-0.61205606,0,517.11195,220.73432)"
         xml:space="preserve"
         stroke-miterlimit="10.433"
         font-style="normal"
         font-variant="normal"
         font-weight="normal"
         font-stretch="normal"
         font-size-adjust="none"
         letter-spacing="normal"
         word-spacing="normal"
         ns0:text="Restorative spring force"
         ns0:preamble="C:\\Users\\smatw1\\AppData\\Roaming\\inkscape\\extensions\\default_packages.tex"><path
           style="fill:#000000;stroke-width:0"
           inkscape:connector-curvature="0"
           d="m 153.04,710.5 0.09,0.03 0.09,0.02 0.09,0.03 0.08,0.03 0.09,0.03 0.08,0.03 0.08,0.04 0.08,0.04 0.08,0.04 0.07,0.04 0.07,0.04 0.07,0.05 0.07,0.04 0.07,0.05 0.06,0.05 0.06,0.05 0.06,0.05 0.05,0.06 0.06,0.05 0.04,0.06 0.05,0.06 0.04,0.06 0.04,0.06 0.03,0.07 0.04,0.06 0.02,0.07 0.03,0.06 0.02,0.07 0.01,0.07 0.01,0.07 0.01,0.07 v 0.07 c 0,0.96 -1.13,1.79 -2.6,1.79 h -3.12 v -0.31 h 0.24 c 0.77,0 0.79,-0.11 0.79,-0.46 v -5.24 c 0,-0.36 -0.02,-0.47 -0.79,-0.47 h -0.24 v -0.3 c 0.36,0.03 1.07,0.03 1.45,0.03 0.39,0 1.1,0 1.45,-0.03 v 0.3 h -0.23 c -0.77,0 -0.79,0.11 -0.79,0.47 v 2.51 0.22 2.58 c 0,0.22 0,0.34 0.22,0.37 0.1,0.02 0.39,0.02 0.59,0.02 0.89,0 2.01,-0.04 2.01,-1.48 0,-0.68 -0.24,-1.49 -1.72,-1.49 h -1.1 v -0.22 h 1.15 c 0.15,0 0.57,0 0.92,-0.33 0.38,-0.36 0.38,-0.67 0.38,-1.34 0,-0.64 0,-1.04 0.41,-1.42 0.4,-0.35 0.95,-0.41 1.25,-0.41 0.78,0 0.94,0.81 0.94,1.09 0,0.06 0,0.17 -0.12,0.17 -0.11,0 -0.11,-0.09 -0.12,-0.16 -0.06,-0.71 -0.41,-0.88 -0.66,-0.88 -0.49,0 -0.57,0.5 -0.71,1.42 l -0.13,0.8 c -0.18,0.64 -0.66,0.96 -1.21,1.15 z"
           id="path6991" /><path
           style="fill:#000000;stroke-width:0"
           inkscape:connector-curvature="0"
           d="m 157.15,709.42 0.01,0.21 c 0.06,1.48 0.89,1.73 1.23,1.73 1.03,0 1.13,-1.34 1.13,-1.73 h -2.36 l -0.01,-0.21 h 2.78 c 0.22,0 0.24,0 0.24,0.21 0,0.98 -0.53,1.95 -1.78,1.95 -1.15,0 -2.07,-1.03 -2.07,-2.27 0,-1.33 1.05,-2.29 2.19,-2.29 1.22,0 1.66,1.1 1.66,1.29 0,0.1 -0.07,0.12 -0.13,0.12 -0.08,0 -0.1,-0.06 -0.12,-0.14 -0.35,-1.03 -1.25,-1.03 -1.35,-1.03 -0.5,0 -0.89,0.3 -1.12,0.67 -0.3,0.48 -0.3,1.13 -0.3,1.49 z"
           id="path6993" /><path
           style="fill:#000000;stroke-width:0"
           inkscape:connector-curvature="0"
           d="m 162.54,709.05 h 0.02 l 0.03,-0.01 h 0.03 l 0.03,-0.01 0.03,-0.01 0.04,-0.01 0.04,-0.01 0.04,-0.01 0.04,-0.01 0.04,-0.01 0.04,-0.02 0.05,-0.02 0.04,-0.01 0.04,-0.03 0.05,-0.02 0.04,-0.02 0.04,-0.03 0.05,-0.03 0.04,-0.03 0.04,-0.03 0.04,-0.03 0.03,-0.04 0.03,-0.04 0.04,-0.04 0.02,-0.05 0.02,-0.02 0.01,-0.03 0.01,-0.02 0.01,-0.03 0.01,-0.02 0.01,-0.03 0.01,-0.03 0.01,-0.02 v -0.03 l 0.01,-0.03 v -0.03 -0.04 l 0.01,-0.03 v -0.03 c 0,-0.51 -0.35,-0.91 -1.13,-0.91 -0.83,0 -1.19,0.57 -1.38,1.42 -0.03,0.12 -0.04,0.16 -0.14,0.16 -0.13,0 -0.13,-0.07 -0.13,-0.24 v -1.32 c 0,-0.16 0,-0.23 0.11,-0.23 0.05,0 0.06,0.01 0.25,0.19 0.02,0.02 0.02,0.04 0.2,0.23 0.44,-0.41 0.88,-0.42 1.09,-0.42 1.15,0 1.6,0.66 1.6,1.38 0,0.52 -0.29,0.82 -0.41,0.94 -0.33,0.32 -0.72,0.4 -1.14,0.48 -0.55,0.11 -1.22,0.23 -1.22,0.81 0,0.35 0.26,0.76 1.11,0.76 1.1,0 1.15,-0.9 1.17,-1.21 0.01,-0.09 0.1,-0.09 0.12,-0.09 0.13,0 0.13,0.06 0.13,0.24 v 1.01 c 0,0.17 0,0.24 -0.11,0.24 -0.05,0 -0.07,0 -0.2,-0.12 -0.03,-0.04 -0.13,-0.13 -0.17,-0.16 -0.38,0.28 -0.79,0.28 -0.94,0.28 -1.21,0 -1.59,-0.67 -1.59,-1.23 0,-0.34 0.16,-0.62 0.43,-0.84 0.32,-0.26 0.6,-0.32 1.31,-0.46 z"
           id="path6995" /><path
           style="fill:#000000;stroke-width:0"
           inkscape:connector-curvature="0"
           d="m 166.12,711.1 h 1.43 v 0.31 h -1.43 v 1.82 h -0.24 c -0.01,-0.81 -0.31,-1.87 -1.29,-1.91 v -0.22 h 0.85 v -2.74 c 0,-1.22 0.92,-1.34 1.28,-1.34 0.71,0 0.99,0.7 0.99,1.34 v 0.56 h -0.25 v -0.54 c 0,-0.74 -0.3,-1.12 -0.67,-1.12 -0.67,0 -0.67,0.91 -0.67,1.08 z"
           id="path6997" /><path
           style="fill:#000000;stroke-width:0"
           inkscape:connector-curvature="0"
           d="m 172.96,709.25 v 0.12 l -0.01,0.12 -0.01,0.11 -0.02,0.12 -0.03,0.11 -0.03,0.11 -0.03,0.11 -0.04,0.1 -0.05,0.1 -0.04,0.1 -0.06,0.1 -0.06,0.09 -0.06,0.1 -0.06,0.08 -0.07,0.09 -0.07,0.08 -0.08,0.08 -0.08,0.07 -0.08,0.07 -0.09,0.06 -0.09,0.07 -0.09,0.05 -0.1,0.05 -0.09,0.05 -0.1,0.04 -0.11,0.04 -0.1,0.03 -0.11,0.03 -0.1,0.02 -0.11,0.01 -0.11,0.01 -0.12,0.01 -0.01,-0.22 c 0.44,0 0.87,-0.22 1.13,-0.65 0.26,-0.43 0.26,-1 0.26,-1.38 0,-0.36 0,-0.89 -0.22,-1.33 -0.22,-0.45 -0.66,-0.74 -1.16,-0.74 v 0 c -0.42,0 -0.86,0.21 -1.13,0.67 -0.25,0.44 -0.25,1.04 -0.25,1.4 0,0.39 0,0.92 0.24,1.36 0.27,0.46 0.74,0.67 1.13,0.67 l 0.01,0.22 c -1.24,0 -2.21,-1.09 -2.21,-2.33 0,-1.28 1.04,-2.23 2.2,-2.23 1.21,0 2.21,0.97 2.21,2.23 z"
           id="path6999" /><path
           style="fill:#000000;stroke-width:0"
           inkscape:connector-curvature="0"
           d="m 174.92,710.42 v 1.1 l -1.38,-0.11 v -0.31 c 0.69,0 0.77,-0.07 0.77,-0.56 v -2.66 c 0,-0.45 -0.11,-0.45 -0.77,-0.45 v -0.3 c 0.38,0.01 0.85,0.03 1.13,0.03 0.4,0 0.87,0 1.26,-0.03 v 0.3 h -0.2 c -0.74,0 -0.76,0.11 -0.76,0.47 v 1.53 c 0,0.98 0.42,1.87 1.17,1.87 0.07,0 0.09,0 0.11,-0.01 -0.03,-0.01 -0.23,-0.13 -0.23,-0.39 0,-0.28 0.21,-0.43 0.43,-0.43 0.18,0 0.43,0.12 0.43,0.44 0,0.32 -0.31,0.61 -0.74,0.61 -0.72,0 -1.08,-0.67 -1.22,-1.1 z"
           id="path7001" /><path
           style="fill:#000000;stroke-width:0"
           inkscape:connector-curvature="0"
           d="m 180.47,707.88 0.01,-0.04 v -0.03 l 0.01,-0.04 0.01,-0.04 0.01,-0.04 0.01,-0.03 0.01,-0.04 0.02,-0.03 0.01,-0.04 0.02,-0.03 0.01,-0.04 0.02,-0.03 0.02,-0.03 0.02,-0.04 0.03,-0.03 0.02,-0.03 0.03,-0.02 0.02,-0.03 0.03,-0.03 0.03,-0.02 0.03,-0.02 0.03,-0.03 0.03,-0.02 0.04,-0.01 0.03,-0.02 0.04,-0.01 0.03,-0.02 0.04,-0.01 h 0.04 l 0.04,-0.01 h 0.05 0.04 c 0.21,0 0.82,0.13 0.82,0.94 v 0.56 h -0.25 v -0.56 c 0,-0.58 -0.25,-0.64 -0.36,-0.64 -0.33,0 -0.37,0.45 -0.37,0.5 v 1.99 c 0,0.41 0,0.8 -0.36,1.17 -0.39,0.39 -0.88,0.55 -1.36,0.55 -0.82,0 -1.5,-0.47 -1.5,-1.13 0,-0.29 0.2,-0.46 0.45,-0.46 0.28,0 0.46,0.19 0.46,0.45 0,0.12 -0.05,0.45 -0.51,0.46 0.27,0.35 0.76,0.46 1.08,0.46 0.49,0 1.05,-0.39 1.05,-1.27 v -0.37 -0.21 -0.99 c 0,-0.95 -0.71,-1.29 -1.16,-1.29 -0.49,0 -0.9,0.35 -0.9,0.85 0,0.55 0.42,1.37 2.06,1.43 v 0 0.21 c -0.5,-0.03 -1.2,-0.06 -1.83,-0.36 -0.74,-0.34 -0.99,-0.85 -0.99,-1.29 0,-0.81 0.96,-1.05 1.59,-1.05 0.66,0 1.11,0.39 1.3,0.86 z"
           id="path7003" /><path
           style="fill:#000000;stroke-width:0"
           inkscape:connector-curvature="0"
           d="m 183.86,711.1 h 1.43 v 0.31 h -1.43 v 1.82 h -0.25 c -0.01,-0.81 -0.31,-1.87 -1.28,-1.91 v -0.22 h 0.85 v -2.74 c 0,-1.22 0.92,-1.34 1.28,-1.34 0.71,0 0.99,0.7 0.99,1.34 v 0.56 h -0.25 v -0.54 c 0,-0.74 -0.3,-1.12 -0.67,-1.12 -0.67,0 -0.67,0.91 -0.67,1.08 z"
           id="path7005" /><path
           style="fill:#000000;stroke-width:0"
           inkscape:connector-curvature="0"
           d="m 187.78,711.52 -1.4,-0.11 v -0.31 c 0.65,0 0.74,-0.06 0.74,-0.55 v -2.67 c 0,-0.45 -0.11,-0.45 -0.78,-0.45 v -0.3 c 0.32,0.01 0.86,0.03 1.1,0.03 0.35,0 0.69,-0.02 1.03,-0.03 v 0.3 c -0.65,0 -0.69,0.05 -0.69,0.44 z"
           id="path7007" /><path
           style="fill:#000000;stroke-width:0"
           inkscape:connector-curvature="0"
           d="m 187.82,713.24 v 0.03 l -0.01,0.03 v 0.03 0.03 l -0.01,0.02 -0.01,0.03 -0.01,0.03 -0.01,0.02 -0.01,0.02 -0.01,0.03 -0.01,0.02 -0.02,0.02 -0.01,0.02 -0.02,0.02 -0.01,0.02 -0.02,0.02 -0.02,0.01 -0.02,0.02 -0.02,0.01 -0.02,0.02 -0.02,0.01 -0.02,0.01 -0.03,0.01 -0.02,0.01 -0.02,0.01 -0.03,0.01 -0.02,0.01 h -0.03 l -0.02,0.01 h -0.03 -0.02 -0.03 c -0.31,0 -0.53,-0.27 -0.53,-0.53 0,-0.26 0.22,-0.52 0.53,-0.52 0.28,0 0.53,0.21 0.53,0.52 z"
           id="path7009" /><path
           style="fill:#000000;stroke-width:0"
           inkscape:connector-curvature="0"
           d="m 192.92,710.43 0.01,0.02 0.01,0.03 0.01,0.02 0.01,0.03 0.01,0.02 0.01,0.03 0.02,0.02 0.01,0.03 0.02,0.03 0.01,0.03 0.02,0.02 0.02,0.03 0.02,0.03 0.02,0.03 0.02,0.02 0.03,0.03 0.02,0.02 0.03,0.03 0.03,0.02 0.03,0.02 0.04,0.03 0.03,0.02 0.04,0.02 0.04,0.01 0.04,0.02 0.05,0.01 0.04,0.02 0.05,0.01 0.06,0.01 h 0.02 0.03 0.03 l 0.03,0.01 h 0.03 0.03 v 0.31 c -0.23,-0.02 -0.52,-0.03 -0.75,-0.03 -0.24,0 -0.69,0.02 -0.86,0.03 v -0.31 c 0.36,-0.01 0.47,-0.24 0.47,-0.43 0,-0.09 -0.02,-0.13 -0.06,-0.24 l -1.01,-2.53 -1.12,2.77 c -0.05,0.13 -0.05,0.15 -0.05,0.17 0,0.26 0.38,0.26 0.56,0.26 v 0.31 c -0.3,-0.01 -0.85,-0.03 -1.08,-0.03 -0.27,0 -0.67,0.01 -0.97,0.03 v -0.31 c 0.63,0 0.67,-0.06 0.8,-0.37 l 1.43,-3.53 c 0.06,-0.13 0.08,-0.18 0.21,-0.18 0.13,0 0.17,0.08 0.21,0.18 z"
           id="path7011" /><path
           style="fill:#000000;stroke-width:0"
           inkscape:connector-curvature="0"
           d="m 194.87,709.42 0.01,0.21 c 0.06,1.48 0.89,1.73 1.23,1.73 1.03,0 1.13,-1.34 1.13,-1.73 h -2.36 l -0.01,-0.21 h 2.77 c 0.22,0 0.25,0 0.25,0.21 0,0.98 -0.54,1.95 -1.78,1.95 -1.15,0 -2.07,-1.03 -2.07,-2.27 0,-1.33 1.05,-2.29 2.19,-2.29 1.21,0 1.66,1.1 1.66,1.29 0,0.1 -0.08,0.12 -0.13,0.12 -0.09,0 -0.11,-0.06 -0.13,-0.14 -0.34,-1.03 -1.24,-1.03 -1.34,-1.03 -0.5,0 -0.9,0.3 -1.12,0.67 -0.3,0.48 -0.3,1.13 -0.3,1.49 z"
           id="path7013" /><path
           style="fill:#000000;stroke-width:0"
           inkscape:connector-curvature="0"
           d="m 203.59,709.05 h 0.02 l 0.02,-0.01 h 0.03 l 0.03,-0.01 0.04,-0.01 0.03,-0.01 0.04,-0.01 0.04,-0.01 0.04,-0.01 0.04,-0.01 0.05,-0.02 0.04,-0.02 0.04,-0.01 0.05,-0.03 0.04,-0.02 0.05,-0.02 0.04,-0.03 0.04,-0.03 0.04,-0.03 0.04,-0.03 0.04,-0.03 0.04,-0.04 0.03,-0.04 0.03,-0.04 0.03,-0.05 0.01,-0.02 0.02,-0.03 0.01,-0.02 0.01,-0.03 0.01,-0.02 0.01,-0.03 v -0.03 l 0.01,-0.02 0.01,-0.03 v -0.03 l 0.01,-0.03 v -0.04 -0.03 -0.03 c 0,-0.51 -0.35,-0.91 -1.12,-0.91 -0.84,0 -1.2,0.57 -1.38,1.42 -0.03,0.12 -0.05,0.16 -0.14,0.16 -0.13,0 -0.13,-0.07 -0.13,-0.24 v -1.32 c 0,-0.16 0,-0.23 0.11,-0.23 0.05,0 0.05,0.01 0.24,0.19 0.02,0.02 0.02,0.04 0.2,0.23 0.44,-0.41 0.89,-0.42 1.1,-0.42 1.14,0 1.6,0.66 1.6,1.38 0,0.52 -0.3,0.82 -0.42,0.94 -0.33,0.32 -0.72,0.4 -1.13,0.48 -0.56,0.11 -1.23,0.23 -1.23,0.81 0,0.35 0.26,0.76 1.12,0.76 1.09,0 1.14,-0.9 1.16,-1.21 0.01,-0.09 0.1,-0.09 0.12,-0.09 0.13,0 0.13,0.06 0.13,0.24 v 1.01 c 0,0.17 0,0.24 -0.11,0.24 -0.05,0 -0.07,0 -0.2,-0.12 -0.03,-0.04 -0.13,-0.13 -0.17,-0.16 -0.38,0.28 -0.78,0.28 -0.93,0.28 -1.22,0 -1.59,-0.67 -1.59,-1.23 0,-0.34 0.16,-0.62 0.42,-0.84 0.32,-0.26 0.6,-0.32 1.32,-0.46 z"
           id="path7015" /><path
           style="fill:#000000;stroke-width:0"
           inkscape:connector-curvature="0"
           d="m 207.16,710.86 v 0.66 l -1.43,-0.11 v -0.31 c 0.7,0 0.77,-0.06 0.77,-0.5 v -4.65 c 0,-0.44 -0.11,-0.44 -0.77,-0.44 v -0.31 c 0.33,0.01 0.85,0.03 1.11,0.03 0.27,0 0.78,-0.02 1.12,-0.03 v 0.31 c -0.66,0 -0.77,0 -0.77,0.44 v 1.67 0.09 l 0.14,0.13 c -0.14,0.21 -0.14,0.22 -0.14,0.42 v 0 2.21 c 0.29,0.51 0.77,0.8 1.28,0.8 0.73,0 1.33,-0.88 1.33,-2 0,-1.2 -0.69,-2.04 -1.43,-2.04 -0.4,0 -0.77,0.2 -1.04,0.61 l -0.14,-0.13 c 0.05,-0.16 0.47,-0.69 1.22,-0.69 1.19,0 2.22,0.97 2.22,2.25 0,1.26 -0.97,2.25 -2.08,2.25 -0.78,0 -1.19,-0.44 -1.39,-0.66 z"
           id="path7017" /><path
           style="fill:#000000;stroke-width:0"
           inkscape:connector-curvature="0"
           d="m 212.64,710.42 v 1.1 l -1.38,-0.11 v -0.31 c 0.7,0 0.78,-0.07 0.78,-0.56 v -2.66 c 0,-0.45 -0.11,-0.45 -0.78,-0.45 v -0.3 c 0.39,0.01 0.86,0.03 1.14,0.03 0.39,0 0.86,0 1.26,-0.03 v 0.3 h -0.21 c -0.74,0 -0.76,0.11 -0.76,0.47 v 1.53 c 0,0.98 0.42,1.87 1.18,1.87 0.07,0 0.09,0 0.11,-0.01 -0.03,-0.01 -0.23,-0.13 -0.23,-0.39 0,-0.28 0.21,-0.43 0.43,-0.43 0.17,0 0.42,0.12 0.42,0.44 0,0.32 -0.31,0.61 -0.73,0.61 -0.73,0 -1.09,-0.67 -1.23,-1.1 z"
           id="path7019" /><path
           style="fill:#000000;stroke-width:0"
           inkscape:connector-curvature="0"
           d="m 216.65,711.52 -1.4,-0.11 v -0.31 c 0.65,0 0.74,-0.06 0.74,-0.55 v -2.67 c 0,-0.45 -0.11,-0.45 -0.78,-0.45 v -0.3 c 0.32,0.01 0.86,0.03 1.1,0.03 0.34,0 0.69,-0.02 1.03,-0.03 v 0.3 c -0.66,0 -0.69,0.05 -0.69,0.44 z"
           id="path7021" /><path
           style="fill:#000000;stroke-width:0"
           inkscape:connector-curvature="0"
           d="m 216.68,713.24 v 0.03 0.03 0.03 l -0.01,0.03 v 0.02 l -0.01,0.03 -0.01,0.03 -0.01,0.02 -0.01,0.02 -0.01,0.03 -0.01,0.02 -0.02,0.02 -0.01,0.02 -0.02,0.02 -0.02,0.02 -0.01,0.02 -0.02,0.01 -0.02,0.02 -0.02,0.01 -0.02,0.02 -0.02,0.01 -0.03,0.01 -0.02,0.01 -0.02,0.01 -0.03,0.01 -0.02,0.01 -0.02,0.01 h -0.03 l -0.02,0.01 h -0.03 -0.03 -0.02 c -0.31,0 -0.53,-0.27 -0.53,-0.53 0,-0.26 0.22,-0.52 0.53,-0.52 0.28,0 0.52,0.21 0.52,0.52 z"
           id="path7023" /><path
           style="fill:#000000;stroke-width:0"
           inkscape:connector-curvature="0"
           d="m 218.75,710.54 v -2.66 c 0,-0.45 -0.11,-0.45 -0.78,-0.45 v -0.3 c 0.35,0.01 0.86,0.03 1.13,0.03 0.25,0 0.77,-0.02 1.11,-0.03 v 0.3 c -0.67,0 -0.78,0 -0.78,0.45 v 1.83 c 0,1.03 0.71,1.59 1.35,1.59 0.62,0 0.73,-0.54 0.73,-1.1 v -2.32 c 0,-0.45 -0.11,-0.45 -0.77,-0.45 v -0.3 c 0.34,0.01 0.85,0.03 1.12,0.03 0.26,0 0.78,-0.02 1.12,-0.03 v 0.3 c -0.52,0 -0.77,0 -0.78,0.3 v 1.9 c 0,0.85 0,1.16 -0.31,1.52 -0.14,0.17 -0.47,0.37 -1.04,0.37 -0.73,0 -1.2,-0.43 -1.48,-1.05 v 1.05 l -1.4,-0.11 v -0.31 c 0.7,0 0.78,-0.07 0.78,-0.56 z"
           id="path7025" /><path
           style="fill:#000000;stroke-width:0"
           inkscape:connector-curvature="0"
           d="m 224.24,708.45 v 0 0.01 0 0.01 0.01 0.01 0.01 0.01 l 0.01,0.01 v 0.01 0.02 0.01 0.01 l 0.01,0.02 v 0.01 0.02 l 0.01,0.02 v 0.01 l 0.01,0.02 v 0.02 l 0.01,0.02 0.01,0.01 v 0.02 l 0.01,0.02 0.01,0.02 0.01,0.02 0.01,0.02 0.02,0.02 0.01,0.02 0.01,0.02 0.02,0.01 0.01,0.02 c 0.39,-0.27 0.8,-0.31 0.99,-0.31 v 0.23 c -0.87,0 -0.87,1 -0.87,1.22 0,0.27 0.01,0.59 0.16,0.84 0.08,0.12 0.31,0.4 0.71,0.4 0.86,0 0.86,-1 0.86,-1.22 0,-0.27 -0.01,-0.59 -0.16,-0.84 -0.08,-0.12 -0.31,-0.4 -0.7,-0.4 v 0 -0.23 c 0.92,0 1.61,0.69 1.61,1.45 0,0.37 -0.16,0.74 -0.41,0.97 0.36,0.34 0.72,0.39 0.89,0.39 0.02,0 0.08,0 0.11,-0.01 -0.11,-0.04 -0.16,-0.15 -0.16,-0.27 0,-0.17 0.13,-0.29 0.28,-0.29 0.1,0 0.29,0.07 0.29,0.3 0,0.17 -0.12,0.49 -0.5,0.49 -0.2,0 -0.64,-0.06 -1.06,-0.47 -0.42,0.33 -0.83,0.36 -1.05,0.36 -0.93,0 -1.62,-0.69 -1.62,-1.45 0,-0.44 0.22,-0.82 0.47,-1.03 -0.13,-0.15 -0.31,-0.47 -0.31,-0.82 0,-0.31 0.13,-0.69 0.44,-0.89 -0.6,-0.17 -0.91,-0.59 -0.91,-0.99 0,-0.71 0.98,-1.26 2.19,-1.26 l 0.02,0.23 c -1.01,0 -1.7,0.5 -1.7,1.03 0,0.46 0.38,0.82 0.82,0.85 h 0.59 c 0.85,0 1.97,0 1.97,-0.85 0,-0.54 -0.71,-1.03 -1.68,-1.03 v 0 l -0.02,-0.23 c 1.18,0 2.21,0.51 2.21,1.28 0,0.35 -0.14,0.85 -0.64,1.13 -0.53,0.28 -1.11,0.28 -1.72,0.28 -0.24,0 -0.67,0 -0.74,0.01 -0.32,0.04 -0.53,0.35 -0.53,0.67 z"
           id="path7027" /><path
           style="fill:#000000;stroke-width:0"
           inkscape:connector-curvature="0"
           d="m 233.23,711.41 v 1.15 c 0,0.87 0.48,1.35 0.91,1.35 0.03,0 0.18,0 0.33,-0.07 -0.12,-0.04 -0.3,-0.17 -0.3,-0.42 0,-0.22 0.16,-0.42 0.43,-0.42 0.29,0 0.44,0.2 0.44,0.43 0,0.37 -0.37,0.7 -0.9,0.7 -0.69,0 -1.54,-0.53 -1.54,-1.58 v -1.14 h -0.79 v -0.31 h 0.79 v -3.22 c 0,-0.45 -0.11,-0.45 -0.78,-0.45 v -0.3 c 0.39,0.01 0.86,0.03 1.14,0.03 0.4,0 0.86,0 1.26,-0.03 v 0.3 h -0.21 c -0.73,0 -0.75,0.11 -0.75,0.47 v 3.2 h 1.13 v 0.31 z"
           id="path7029" /><path
           style="fill:#000000;stroke-width:0"
           inkscape:connector-curvature="0"
           d="m 239.22,709.25 -0.01,0.12 v 0.12 l -0.02,0.11 -0.02,0.12 -0.02,0.11 -0.03,0.11 -0.04,0.11 -0.04,0.1 -0.04,0.1 -0.05,0.1 -0.05,0.1 -0.06,0.09 -0.06,0.1 -0.07,0.08 -0.07,0.09 -0.07,0.08 -0.08,0.08 -0.08,0.07 -0.08,0.07 -0.09,0.06 -0.09,0.07 -0.09,0.05 -0.09,0.05 -0.1,0.05 -0.1,0.04 -0.1,0.04 -0.11,0.03 -0.1,0.03 -0.11,0.02 -0.11,0.01 -0.11,0.01 -0.11,0.01 -0.01,-0.22 c 0.44,0 0.86,-0.22 1.12,-0.65 0.26,-0.43 0.26,-1 0.26,-1.38 0,-0.36 0,-0.89 -0.22,-1.33 -0.22,-0.45 -0.66,-0.74 -1.15,-0.74 v 0 c -0.43,0 -0.87,0.21 -1.14,0.67 -0.25,0.44 -0.25,1.04 -0.25,1.4 0,0.39 0,0.92 0.24,1.36 0.27,0.46 0.74,0.67 1.14,0.67 l 0.01,0.22 c -1.25,0 -2.21,-1.09 -2.21,-2.33 0,-1.28 1.03,-2.23 2.2,-2.23 1.2,0 2.21,0.97 2.21,2.23 z"
           id="path7031" /><path
           style="fill:#000000;stroke-width:0"
           inkscape:connector-curvature="0"
           d="m 241.17,710.42 v 1.1 l -1.38,-0.11 v -0.31 c 0.7,0 0.78,-0.07 0.78,-0.56 v -2.66 c 0,-0.45 -0.11,-0.45 -0.78,-0.45 v -0.3 c 0.39,0.01 0.86,0.03 1.14,0.03 0.39,0 0.86,0 1.26,-0.03 v 0.3 h -0.21 c -0.74,0 -0.76,0.11 -0.76,0.47 v 1.53 c 0,0.98 0.42,1.87 1.18,1.87 0.07,0 0.09,0 0.11,-0.01 -0.03,-0.01 -0.23,-0.13 -0.23,-0.39 0,-0.28 0.21,-0.43 0.43,-0.43 0.17,0 0.42,0.12 0.42,0.44 0,0.32 -0.31,0.61 -0.73,0.61 -0.73,0 -1.09,-0.67 -1.23,-1.1 z"
           id="path7033" /><path
           style="fill:#000000;stroke-width:0"
           inkscape:connector-curvature="0"
           d="m 244.58,709.29 v 0.08 0.07 0.07 l 0.01,0.07 v 0.07 l 0.01,0.07 0.01,0.06 v 0.06 l 0.01,0.06 0.01,0.06 0.01,0.06 0.02,0.06 0.02,0.11 0.03,0.1 0.04,0.1 0.03,0.09 0.04,0.09 0.04,0.08 0.05,0.07 0.04,0.07 0.05,0.07 0.05,0.06 0.05,0.05 0.06,0.05 0.05,0.05 0.05,0.04 0.06,0.04 0.06,0.03 0.05,0.03 0.06,0.03 0.06,0.02 0.05,0.02 0.06,0.01 0.05,0.02 0.06,0.01 h 0.05 l 0.05,0.01 h 0.05 c 0.09,0 0.72,-0.01 1.07,-0.37 -0.41,-0.03 -0.47,-0.33 -0.47,-0.46 0,-0.26 0.18,-0.45 0.46,-0.45 0.26,0 0.45,0.16 0.45,0.46 0,0.68 -0.75,1.07 -1.52,1.07 -1.24,0 -2.16,-1.08 -2.16,-2.31 0,-1.27 0.99,-2.25 2.14,-2.25 1.34,0 1.65,1.19 1.65,1.29 0,0.1 -0.1,0.1 -0.13,0.1 -0.09,0 -0.11,-0.04 -0.12,-0.1 -0.29,-0.93 -0.94,-1.05 -1.31,-1.05 -0.53,0 -1.4,0.43 -1.4,2.03 z"
           id="path7035" /><path
           style="fill:#000000;stroke-width:0"
           inkscape:connector-curvature="0"
           d="m 248.95,709.42 0.01,0.21 c 0.06,1.48 0.89,1.73 1.23,1.73 1.02,0 1.12,-1.34 1.12,-1.73 h -2.35 l -0.01,-0.21 h 2.77 c 0.22,0 0.25,0 0.25,0.21 0,0.98 -0.54,1.95 -1.78,1.95 -1.15,0 -2.07,-1.03 -2.07,-2.27 0,-1.33 1.04,-2.29 2.19,-2.29 1.21,0 1.66,1.1 1.66,1.29 0,0.1 -0.08,0.12 -0.13,0.12 -0.09,0 -0.11,-0.06 -0.13,-0.14 -0.35,-1.03 -1.24,-1.03 -1.34,-1.03 -0.5,0 -0.9,0.3 -1.13,0.67 -0.29,0.48 -0.29,1.13 -0.29,1.49 z"
           id="path7037" /></g>      <rect
         style="opacity:0.3;fill:#00a2ff;fill-opacity:1;stroke:#000000;stroke-width:0.26458332;stroke-linecap:round;stroke-miterlimit:4;stroke-dasharray:none;stroke-opacity:1;filter:url(#filter3030-3)"
         id="rect5348-8"
         width="19.276787"
         height="6.4255958"
         x="53.105656"
         y="106.1104"
         ry="3.1182997" />
    </g>
    <g
       id="g7721"
       inkscape:export-xdpi="300"
       inkscape:export-ydpi="300">
      <path
         inkscape:connector-curvature="0"
         id="path3205"
         d="M 166.10718,88.202581 V 112.25684"
         style="fill:none;stroke:#000000;stroke-width:0.26458332;stroke-linecap:butt;stroke-linejoin:miter;stroke-opacity:1;stroke-miterlimit:4;stroke-dasharray:2.11666654, 2.11666654000000021;stroke-dashoffset:0;marker-end:url(#Arrow1Lend)" />
      <path
         style="fill:none;stroke:#000000;stroke-width:0.5291667;stroke-linecap:butt;stroke-linejoin:miter;stroke-miterlimit:4;stroke-dasharray:none;stroke-opacity:1"
         d="m 122.08458,24.652351 h 53.98875"
         id="path3092"
         inkscape:connector-curvature="0" />
      <rect
         style="opacity:0.05;fill:none;fill-opacity:1;stroke:#000000;stroke-width:0.52916664;stroke-linecap:round;stroke-miterlimit:4;stroke-dasharray:none;stroke-dashoffset:0;stroke-opacity:1"
         id="rect3189"
         width="75.102737"
         height="115.99498"
         x="112.44664"
         y="20.108768"
         ry="3.4509075" />
      <path
         inkscape:connector-curvature="0"
         id="path3191"
         d="M 149.07895,24.652351 V 120.06757"
         style="fill:none;stroke:#000000;stroke-width:0.26458332;stroke-linecap:butt;stroke-linejoin:miter;stroke-opacity:1;stroke-miterlimit:4;stroke-dasharray:2.11666654,2.11666654;stroke-dashoffset:0" />
      <path
         inkscape:connector-curvature="0"
         id="path3207"
         d="m 149.07895,24.652351 17.02823,63.55023"
         style="fill:none;stroke:#000000;stroke-width:0.52916667;stroke-linecap:butt;stroke-linejoin:miter;stroke-opacity:1;stroke-miterlimit:4;stroke-dasharray:none" />
      <path
         sodipodi:nodetypes="ccc"
         inkscape:connector-curvature="0"
         id="path3209"
         d="m 166.10718,88.202581 5.59861,22.230659 -5.59861,1.8236"
         style="fill:none;stroke:#000000;stroke-width:0.26458332;stroke-linecap:butt;stroke-linejoin:miter;stroke-opacity:1;stroke-miterlimit:4;stroke-dasharray:2.11666654, 2.11666654000000021;stroke-dashoffset:0;marker-end:url(#marker3691)" />
      <circle
         transform="matrix(0.68750002,0,0,0.68750002,55.858491,24.582147)"
         r="6.4144688"
         cy="92.538811"
         cx="160.36172"
         id="path3155"
         style="opacity:1;fill:#00a2ff;fill-opacity:1;stroke:#000000;stroke-width:0.38484848;stroke-linecap:round;stroke-miterlimit:4;stroke-dasharray:none;stroke-dashoffset:0;stroke-opacity:1;filter:url(#filter3183)" />
      <path
         sodipodi:nodetypes="cc"
         inkscape:connector-curvature="0"
         id="path5356"
         d="m 169.27606,100.96127 0.8018,3.20724"
         style="fill:none;stroke:#000000;stroke-width:0.26499999;stroke-linecap:butt;stroke-linejoin:miter;stroke-miterlimit:4;stroke-dasharray:none;stroke-opacity:1;marker-end:url(#marker5366)" />
      <path
         style="opacity:0.3;fill:none;stroke:#000000;stroke-width:0.5291667;stroke-linecap:butt;stroke-linejoin:miter;stroke-miterlimit:4;stroke-dasharray:none;stroke-opacity:1;filter:url(#filter7657)"
         d="M 149.07895,24.652351 139.53427,85.66352"
         id="path6308"
         inkscape:connector-curvature="0"
         sodipodi:nodetypes="cc" />
      <circle
         style="opacity:0.3;fill:#00a2ff;fill-opacity:1;stroke:#000000;stroke-width:0.38484848;stroke-linecap:round;stroke-miterlimit:4;stroke-dasharray:none;stroke-dashoffset:0;stroke-opacity:1;filter:url(#filter3183-6)"
         id="circle6310-3"
         cx="160.36172"
         cy="92.538811"
         r="6.4144688"
         transform="matrix(-0.68750003,0,0,0.68750003,248.96596,26.4376)" />
    </g>
  </g>
</svg>
