<?xml version="1.0" encoding="UTF-8" standalone="no"?>
<!-- Created with Inkscape (http://www.inkscape.org/) -->

<svg
   xmlns:dc="http://purl.org/dc/elements/1.1/"
   xmlns:cc="http://creativecommons.org/ns#"
   xmlns:rdf="http://www.w3.org/1999/02/22-rdf-syntax-ns#"
   xmlns:svg="http://www.w3.org/2000/svg"
   xmlns="http://www.w3.org/2000/svg"
   xmlns:sodipodi="http://sodipodi.sourceforge.net/DTD/sodipodi-0.dtd"
   xmlns:inkscape="http://www.inkscape.org/namespaces/inkscape"
   width="210mm"
   height="297mm"
   viewBox="0 0 210 297"
   version="1.1"
   id="svg8"
   inkscape:version="0.91 r13725"
   sodipodi:docname="Spruce_budworm_r_large_arrowed.svg"
   inkscape:export-filename="C:\Users\Thomas Woolley - Ad\Dropbox\ODE_course\Pictures\Spruce_budworm_r_large_arrowed.png"
   inkscape:export-xdpi="570.22302"
   inkscape:export-ydpi="570.22302">
  <sodipodi:namedview
     id="base"
     pagecolor="#ffffff"
     bordercolor="#666666"
     borderopacity="1.0"
     inkscape:pageopacity="0.0"
     inkscape:pageshadow="2"
     inkscape:zoom="1.4"
     inkscape:cx="219.35346"
     inkscape:cy="866.25592"
     inkscape:document-units="mm"
     inkscape:current-layer="g4521"
     showgrid="false"
     inkscape:snap-global="false"
     inkscape:snap-bbox="true"
     inkscape:bbox-paths="true"
     inkscape:snap-bbox-edge-midpoints="true"
     inkscape:snap-bbox-midpoints="true"
     inkscape:bbox-nodes="true"
     inkscape:snap-intersection-paths="true"
     inkscape:window-width="1920"
     inkscape:window-height="1017"
     inkscape:window-x="-9"
     inkscape:window-y="-9"
     inkscape:window-maximized="1" />
  <defs
     id="defs2">
    <marker
       inkscape:isstock="true"
       style="overflow:visible;"
       id="marker4486"
       refX="0.0"
       refY="0.0"
       orient="auto"
       inkscape:stockid="Arrow1Lend">
      <path
         transform="scale(0.8) rotate(180) translate(12.5,0)"
         style="fill-rule:evenodd;stroke:#000000;stroke-width:1pt;stroke-opacity:1;fill:#000000;fill-opacity:1"
         d="M 0.0,0.0 L 5.0,-5.0 L -12.5,0.0 L 5.0,5.0 L 0.0,0.0 z "
         id="path4488" />
    </marker>
    <marker
       inkscape:isstock="true"
       style="overflow:visible;"
       id="marker4480"
       refX="0.0"
       refY="0.0"
       orient="auto"
       inkscape:stockid="Arrow1Lend">
      <path
         transform="scale(0.8) rotate(180) translate(12.5,0)"
         style="fill-rule:evenodd;stroke:#000000;stroke-width:1pt;stroke-opacity:1;fill:#000000;fill-opacity:1"
         d="M 0.0,0.0 L 5.0,-5.0 L -12.5,0.0 L 5.0,5.0 L 0.0,0.0 z "
         id="path4482" />
    </marker>
    <marker
       inkscape:collect="always"
       inkscape:isstock="true"
       style="overflow:visible;"
       id="Arrow1Lend"
       refX="0.0"
       refY="0.0"
       orient="auto"
       inkscape:stockid="Arrow1Lend">
      <path
         transform="scale(0.8) rotate(180) translate(12.5,0)"
         style="fill-rule:evenodd;stroke:#000000;stroke-width:1pt;stroke-opacity:1;fill:#000000;fill-opacity:1"
         d="M 0.0,0.0 L 5.0,-5.0 L -12.5,0.0 L 5.0,5.0 L 0.0,0.0 z "
         id="path4209" />
    </marker>
    <marker
       inkscape:isstock="true"
       style="overflow:visible"
       id="Arrow1Mstart"
       refX="0.0"
       refY="0.0"
       orient="auto"
       inkscape:stockid="Arrow1Mstart">
      <path
         transform="scale(0.4) translate(10,0)"
         style="fill-rule:evenodd;stroke:#000000;stroke-width:1pt;stroke-opacity:1;fill:#000000;fill-opacity:1"
         d="M 0.0,0.0 L 5.0,-5.0 L -12.5,0.0 L 5.0,5.0 L 0.0,0.0 z "
         id="path4212" />
    </marker>
  </defs>
  <metadata
     id="metadata5">
    <rdf:RDF>
      <cc:Work
         rdf:about="">
        <dc:format>image/svg+xml</dc:format>
        <dc:type
           rdf:resource="http://purl.org/dc/dcmitype/StillImage" />
        <dc:title />
      </cc:Work>
    </rdf:RDF>
  </metadata>
  <g
     inkscape:label="Layer 1"
     inkscape:groupmode="layer"
     id="layer1">
    <path
       style="fill:none;stroke:#000000;stroke-width:0.52916667;stroke-linecap:butt;stroke-linejoin:miter;stroke-opacity:1;stroke-miterlimit:4;stroke-dasharray:none"
       d="m 35.279578,17.703343 v 61.73926"
       id="path815"
       inkscape:connector-curvature="0" />
    <path
       style="fill:none;stroke:#000000;stroke-width:0.52916667;stroke-linecap:butt;stroke-linejoin:miter;stroke-opacity:1;stroke-miterlimit:4;stroke-dasharray:none"
       d="M 25.657874,61.268276 H 134.70384"
       id="path817"
       inkscape:connector-curvature="0" />
    <path
       style="fill:none;stroke:#000000;stroke-width:0.79400003;stroke-linecap:butt;stroke-linejoin:miter;stroke-miterlimit:4;stroke-dasharray:none;stroke-opacity:1"
       d="m 35.279578,61.268276 c 0,0 3.669181,-37.691305 11.159638,-37.601473 7.490457,0.08983 10.030732,17.345276 18.169787,17.345276 8.139055,0 12.37306,-22.40312 22.258134,-22.40312 9.885073,0 21.161823,70.865489 21.161823,70.865489"
       id="path819"
       inkscape:connector-curvature="0"
       sodipodi:nodetypes="czzzc" />
    <g
       transform="translate(-7.2571429,6.0476191)"
       id="g4152">
      <g
         style="font-style:normal;font-variant:normal;font-weight:normal;font-stretch:normal;letter-spacing:normal;word-spacing:normal;text-anchor:start;fill:none;fill-opacity:1;fill-rule:evenodd;stroke:#000000;stroke-linecap:butt;stroke-linejoin:miter;stroke-miterlimit:10.43299961;stroke-dasharray:none;stroke-dashoffset:0;stroke-opacity:1"
         id="content"
         transform="matrix(0.3,0,0,-0.3,-52.5,222.75)"
         xml:space="preserve"
         stroke-miterlimit="10.433"
         font-style="normal"
         font-variant="normal"
         font-weight="normal"
         font-stretch="normal"
         font-size-adjust="none"
         letter-spacing="normal"
         word-spacing="normal"><path
           style="fill:#000000;stroke-width:0"
           inkscape:connector-curvature="0"
           d="m 640.10205,540.96379 0.0334,-0.1038 0.0401,-0.10381 0.0468,-0.0983 0.0535,-0.0983 0.0535,-0.0929 0.0602,-0.0874 0.0602,-0.0874 0.0669,-0.0874 0.0735,-0.082 0.0736,-0.082 0.0736,-0.0765 0.0869,-0.071 0.0802,-0.071 0.0936,-0.0656 0.0936,-0.0656 0.0936,-0.0601 0.1003,-0.0601 0.10029,-0.0546 0.1003,-0.0492 0.10698,-0.0492 0.11367,-0.0437 0.11367,-0.0382 0.11367,-0.0382 0.12035,-0.0328 0.11367,-0.0328 0.12705,-0.0219 0.12035,-0.0273 0.12704,-0.0164 0.12704,-0.0109 0.13373,-0.0109 0.13373,-0.005 0.12704,-0.005 c 1.16344,0 1.93906,0.62282 2.46729,1.49696 0.56834,0.97795 0.99627,2.64428 0.99627,2.69345 0,0.27317 -0.2942,0.27317 -0.40119,0.27317 -0.33432,0 -0.36106,-0.10927 -0.46804,-0.4917 -0.46137,-1.51882 -1.09657,-3.37091 -2.49403,-3.37091 -0.70207,0 -1.02971,0.35512 -1.02971,1.25111 0,0.60098 0.40119,1.87941 0.66196,2.82457 l 0.93609,2.95023 c 0.1003,0.40976 0.43462,1.44234 0.56835,1.85209 0.16716,0.62283 0.50148,1.65541 0.50148,1.81384 0,0.49717 -0.46805,0.73756 -0.96953,0.73756 -0.16716,0 -1.03639,-0.0273 -1.29716,-0.95063 -0.6419,-1.98867 -2.09953,-6.75274 -2.50072,-8.19508 -0.0401,-0.10926 -1.36403,-2.28369 -3.79788,-2.28369 -1.73846,0 -2.07278,1.22926 -2.07278,2.23452 0,1.51882 0.94278,3.6714 1.81201,5.5508 0.3945,0.81951 0.56166,1.19102 0.56166,1.71551 0,1.21833 -1.06314,2.22359 -2.73474,2.22359 -3.16935,0 -4.39965,-3.9391 -4.39965,-4.19041 0,-0.27317 0.33432,-0.27317 0.40787,-0.27317 0.33432,0 0.36107,0.0601 0.52823,0.49717 0.82911,2.36564 2.09953,3.3709 3.36326,3.3709 0.2942,0 0.8358,-0.0273 0.8358,-0.89599 0,-0.65561 -0.37444,-1.44233 -0.56835,-1.85209 -1.23698,-2.69891 -1.93905,-4.38163 -1.93905,-5.70924 0,-2.58964 2.30012,-3.27256 4.11213,-3.27256 2.19314,0 3.39001,1.2238 3.95836,1.83023 z"
           id="path4155" /><path
           style="fill:#000000;stroke-width:0"
           inkscape:connector-curvature="0"
           d="m 261.32038,689.37578 2.86178,0 c 0.66865,0 1.00297,0 1.00297,0.54634 0,0.30049 -0.33432,0.30049 -0.89598,0.30049 l -2.76817,0 0.69538,3.10866 c 0.14042,0.5682 0.60846,2.49677 0.80906,2.82457 0.30088,0.51903 0.86254,0.92878 1.56462,0.92878 0.12704,0 0.98958,0 1.63148,-0.49717 -1.46432,-0.0983 -1.79864,-1.05443 -1.79864,-1.46419 0,-0.62282 0.59509,-0.95063 1.23029,-0.95063 0.86924,0 1.83208,0.60098 1.83208,1.63356 0,1.25111 -1.53787,1.87394 -2.89521,1.87394 -1.13669,0 -3.23622,-0.48624 -4.2325,-3.17969 -0.1939,-0.57366 -0.30089,-0.84683 -1.09657,-4.27783 l -2.30012,0 c -0.63521,0 -1.00296,0 -1.00296,-0.51356 0,-0.33327 0.30757,-0.33327 0.92941,-0.33327 l 2.20651,0 -2.5074,-10.74647 c -0.59509,-2.63882 -1.15675,-5.12466 -2.89521,-5.12466 -0.13373,0 -0.95616,0 -1.59805,0.49717 1.53787,0.0765 1.83207,1.0599 1.83207,1.46965 0,0.62283 -0.59509,0.95609 -1.23698,0.95609 -0.86255,0 -1.82539,-0.60097 -1.82539,-1.63901 0,-1.2238 1.46432,-1.87941 2.82835,-1.87941 1.83207,0 3.16935,1.60624 3.76444,2.64428 1.06314,1.7155 1.83876,5.00446 1.8722,5.20114 z"
           id="path4157" /><path
           style="fill:#000000;stroke-width:0"
           inkscape:connector-curvature="0"
           d="m 280.01557,671.96398 0,0.0109 0,0.0164 0,0.005 0,0.0109 0,0.005 -0.007,0.0109 0,0.005 -0.007,0.0109 -0.007,0.0109 -0.007,0.0109 -0.007,0.0109 -0.0134,0.0164 -0.007,0.0109 -0.0134,0.0164 -0.0134,0.0164 -0.0201,0.0164 -0.0134,0.0164 -0.0201,0.0219 -0.0134,0.0109 -0.007,0.0109 -0.0134,0.0109 -0.0134,0.0109 -0.0134,0.0109 -0.0134,0.0164 -0.0134,0.0109 -0.0134,0.0109 -0.0134,0.0164 -0.0201,0.0109 -0.0134,0.0164 -0.0201,0.0164 -0.0201,0.0164 -0.0134,0.0164 -0.0201,0.0164 -0.0201,0.0164 -0.0201,0.0164 -0.0201,0.0164 -0.0267,0.0218 -0.0201,0.0164 -0.0267,0.0219 -0.0201,0.0164 -0.0267,0.0218 -0.0267,0.0219 c -4.15894,3.431 -5.22208,8.57205 -5.22208,12.73515 0,4.73675 1.26373,9.47897 5.35581,12.87173 0.42793,0.33327 0.42793,0.3879 0.42793,0.46985 0,0.19122 -0.12036,0.26771 -0.32095,0.26771 -0.33432,0 -3.33651,-1.84663 -5.29563,-5.29949 -1.70503,-2.9994 -2.09953,-6.02065 -2.09953,-8.3098 0,-2.12526 0.36106,-5.40876 2.19314,-8.4901 1.99255,-3.34906 4.8677,-5.11373 5.20202,-5.11373 0.20059,0 0.32095,0.0765 0.32095,0.27317 z"
           id="path4159" /><path
           style="fill:#000000;stroke-width:0"
           inkscape:connector-curvature="0"
           d="m 293.56891,680.02247 0.0401,-0.10381 0.0401,-0.1038 0.0468,-0.0983 0.0468,-0.0983 0.0602,-0.0929 0.0535,-0.0874 0.0669,-0.0874 0.0669,-0.0874 0.0669,-0.082 0.0736,-0.082 0.0802,-0.0765 0.0802,-0.071 0.0869,-0.071 0.0869,-0.0656 0.0936,-0.0656 0.10029,-0.0601 0.0936,-0.0601 0.1003,-0.0546 0.10698,-0.0492 0.10698,-0.0492 0.11367,-0.0437 0.10699,-0.0382 0.12035,-0.0382 0.11367,-0.0328 0.12036,-0.0328 0.12035,-0.0219 0.12704,-0.0273 0.12704,-0.0164 0.12705,-0.0109 0.12704,-0.0109 0.13373,-0.005 0.13372,-0.005 c 1.16344,0 1.93237,0.62282 2.46729,1.49696 0.56165,0.97795 0.98958,2.64428 0.98958,2.69345 0,0.27317 -0.28751,0.27317 -0.39449,0.27317 -0.33432,0 -0.36776,-0.10927 -0.46805,-0.4917 -0.46136,-1.51883 -1.09657,-3.37091 -2.50072,-3.37091 -0.69538,0 -1.02302,0.35512 -1.02302,1.25111 0,0.60097 0.3945,1.87941 0.66196,2.82457 l 0.93609,2.95023 c 0.0936,0.40975 0.42793,1.44233 0.56835,1.85209 0.16716,0.62282 0.50148,1.6554 0.50148,1.81384 0,0.49717 -0.47474,0.73756 -0.97622,0.73756 -0.16716,0 -1.0297,-0.0273 -1.29716,-0.95063 -0.63521,-1.98867 -2.09953,-6.75274 -2.49403,-8.19508 -0.0401,-0.10927 -1.37071,-2.28369 -3.80456,-2.28369 -1.73178,0 -2.0661,1.22926 -2.0661,2.23452 0,1.51882 0.94278,3.6714 1.80533,5.5508 0.40118,0.81951 0.56834,1.19102 0.56834,1.7155 0,1.21834 -1.06982,2.2236 -2.74142,2.2236 -3.16267,0 -4.39966,-3.9391 -4.39966,-4.19042 0,-0.27316 0.33432,-0.27316 0.40787,-0.27316 0.33432,0 0.36776,0.0601 0.53492,0.49716 0.82242,2.36565 2.09953,3.37091 3.36326,3.37091 0.2942,0 0.8358,-0.0273 0.8358,-0.89599 0,-0.65561 -0.37444,-1.44234 -0.57503,-1.85209 -1.2303,-2.69891 -1.93237,-4.38164 -1.93237,-5.70924 0,-2.58964 2.30012,-3.27256 4.10545,-3.27256 2.19314,0 3.39669,1.22379 3.95835,1.83023 z"
           id="path4161" /><path
           style="fill:#000000;stroke-width:0"
           inkscape:connector-curvature="0"
           d="m 310.62593,685.29464 0,0.20214 0,0.21307 -0.007,0.21307 -0.007,0.224 -0.0267,0.45893 -0.0401,0.48078 -0.0602,0.50263 -0.0669,0.51902 -0.0936,0.52995 -0.10698,0.5518 -0.13373,0.55726 -0.15379,0.56273 -0.17385,0.57366 -0.20727,0.57912 -0.23403,0.58458 -0.26077,0.58458 -0.14041,0.28956 -0.15379,0.28956 -0.16047,0.28956 -0.16716,0.28956 c -1.99255,3.34359 -4.85433,5.11373 -5.18865,5.11373 -0.2006,0 -0.33432,-0.10381 -0.33432,-0.26771 0,-0.082 0,-0.13658 0.62852,-0.62829 3.26965,-2.68798 5.16859,-7.02045 5.16859,-12.71329 0,-4.64935 -1.2303,-9.44073 -5.36918,-12.87174 -0.42793,-0.32234 -0.42793,-0.38244 -0.42793,-0.45892 0,-0.1639 0.13372,-0.27317 0.33432,-0.27317 0.33432,0 3.32314,1.85208 5.29563,5.30494 1.69166,2.98848 2.08616,6.00973 2.08616,8.29889 z"
           id="path4163" /><path
           style="fill:#000000;stroke-width:0"
           inkscape:connector-curvature="0"
           d="m 330.91928,544.26784 0.0334,-0.10381 0.0468,-0.1038 0.0401,-0.0983 0.0535,-0.0983 0.0535,-0.0929 0.0602,-0.0874 0.0602,-0.0874 0.0669,-0.0874 0.0736,-0.082 0.0736,-0.082 0.0802,-0.0765 0.0802,-0.071 0.0869,-0.071 0.0869,-0.0656 0.0936,-0.0656 0.0936,-0.0601 0.10029,-0.0601 0.1003,-0.0546 0.10698,-0.0492 0.10699,-0.0492 0.10698,-0.0437 0.11367,-0.0382 0.11367,-0.0382 0.12035,-0.0328 0.12036,-0.0328 0.12035,-0.0219 0.12036,-0.0273 0.12704,-0.0164 0.13373,-0.0109 0.12704,-0.0109 0.13373,-0.005 0.13372,-0.005 c 1.15675,0 1.93237,0.62283 2.4606,1.49697 0.56835,0.97795 0.99628,2.64428 0.99628,2.69345 0,0.27317 -0.29421,0.27317 -0.40119,0.27317 -0.33432,0 -0.36107,-0.10927 -0.46805,-0.4917 -0.46136,-1.51883 -1.09657,-3.37091 -2.49403,-3.37091 -0.70207,0 -1.02302,0.35512 -1.02302,1.25111 0,0.60097 0.3945,1.87941 0.65527,2.82457 l 0.94278,2.95023 c 0.0936,0.40975 0.42793,1.44233 0.56166,1.85209 0.16716,0.62282 0.50148,1.6554 0.50148,1.81384 0,0.49717 -0.46805,0.73756 -0.96953,0.73756 -0.16716,0 -1.03639,-0.0273 -1.29716,-0.95063 -0.63521,-1.98867 -2.09953,-6.75274 -2.49403,-8.19508 -0.0468,-0.10927 -1.37071,-2.28369 -3.80456,-2.28369 -1.73847,0 -2.07279,1.22926 -2.07279,2.23452 0,1.51882 0.94279,3.6714 1.81202,5.5508 0.3945,0.81951 0.56166,1.19102 0.56166,1.7155 0,1.21834 -1.06314,2.2236 -2.73474,2.2236 -3.16936,0 -4.39966,-3.9391 -4.39966,-4.19042 0,-0.27316 0.33432,-0.27316 0.40788,-0.27316 0.33432,0 0.36775,0.0601 0.53491,0.49716 0.82243,2.36565 2.09953,3.37091 3.36326,3.37091 0.28751,0 0.8358,-0.0273 0.8358,-0.89599 0,-0.65561 -0.38113,-1.44234 -0.57503,-1.85209 -1.23699,-2.69891 -1.93237,-4.38164 -1.93237,-5.70924 0,-2.58964 2.29343,-3.27257 4.10545,-3.27257 2.19314,0 3.39669,1.2238 3.95835,1.83024 z"
           id="path4165" /><path
           style="fill:#000000;stroke-width:0"
           inkscape:connector-curvature="0"
           d="m 350.39009,544.74315 -0.007,0.3879 -0.0134,0.37151 -0.0201,0.36059 -0.0267,0.34965 -0.0401,0.33873 -0.0468,0.32781 -0.0602,0.31141 -0.0736,0.30595 -0.0869,0.30048 -0.1003,0.28956 -0.11366,0.27864 -0.12705,0.27317 -0.14041,0.2677 -0.16047,0.26224 -0.17385,0.25678 -0.0936,0.12566 -0.1003,0.12566 c -0.71544,0.8796 -2.1597,1.63901 -4.0319,1.63901 l 0,-0.53541 c 1.26373,0 2.48066,-0.62282 2.89521,-1.73189 0.37444,-1.02712 0.3945,-2.39843 0.3945,-4.05929 0,-1.40409 0,-2.81365 -0.30089,-4.01013 -0.46804,-1.73189 -2.04604,-2.15257 -2.98882,-2.15257 l 0,0 c -1.06314,0 -2.48734,0.51356 -2.95539,2.07608 -0.32095,1.12 -0.32095,2.68253 -0.32095,4.08662 0,1.39316 0,2.84642 0.34101,3.88446 0.49479,1.50243 1.98586,1.90672 2.93533,1.90672 l 0,0.53541 c -5.40261,0 -5.40261,-5.19567 -5.40261,-6.57245 0,-1.36584 0,-6.45225 5.40261,-6.45225 5.41599,0 5.41599,5.08641 5.41599,6.45225 z"
           id="path4167" /></g>    </g>
    <path
       inkscape:connector-curvature="0"
       id="path4468"
       d="m 97.981823,40.951872 0.348869,2.085294"
       style="fill:none;fill-rule:evenodd;stroke:#000000;stroke-width:0.49690738;stroke-linecap:butt;stroke-linejoin:miter;stroke-miterlimit:4;stroke-dasharray:none;stroke-opacity:1;marker-end:url(#Arrow1Lend)" />
    <path
       inkscape:transform-center-x="0.47920501"
       inkscape:transform-center-y="-2.5528473"
       inkscape:connector-curvature="0"
       id="path4484"
       d="M 105.21347,73.832091 104.8234,71.7541"
       style="fill:none;fill-rule:evenodd;stroke:#000000;stroke-width:0.49690738;stroke-linecap:butt;stroke-linejoin:miter;stroke-miterlimit:4;stroke-dasharray:none;stroke-opacity:1;marker-end:url(#marker4486)" />
    <g
       id="g4519"
       transform="matrix(0.62542819,0,0,0.62542819,-42.639607,30.722909)">
      <g
         word-spacing="normal"
         letter-spacing="normal"
         font-size-adjust="none"
         font-stretch="normal"
         font-weight="normal"
         font-variant="normal"
         font-style="normal"
         stroke-miterlimit="10.433"
         xml:space="preserve"
         transform="matrix(0.3,0,0,-0.3,-52.5,222.75)"
         id="g4521"
         style="font-style:normal;font-variant:normal;font-weight:normal;font-stretch:normal;letter-spacing:normal;word-spacing:normal;text-anchor:start;fill:none;fill-opacity:1;fill-rule:evenodd;stroke:#000000;stroke-linecap:butt;stroke-linejoin:miter;stroke-miterlimit:10.43299961;stroke-dasharray:none;stroke-dashoffset:0;stroke-opacity:1"><path
           id="path4545"
           d="m 964.38088,605.61451 0.05,-0.19 0.06,-0.19 0.07,-0.18 0.08,-0.18 0.08,-0.17 0.09,-0.16 0.09,-0.16 0.1,-0.16 0.1,-0.15 0.12,-0.15 0.11,-0.14 0.13,-0.13 0.12,-0.13 0.14,-0.12 0.13,-0.12 0.15,-0.11 0.14,-0.11 0.16,-0.1 0.15,-0.09 0.16,-0.09 0.17,-0.08 0.17,-0.07 0.17,-0.07 0.17,-0.06 0.18,-0.06 0.19,-0.04 0.18,-0.05 0.19,-0.03 0.19,-0.02 0.2,-0.02 0.19,-0.01 0.2,-0.01 c 1.74,0 2.9,1.14 3.69,2.74 0.84,1.79 1.49,4.84 1.49,4.93 0,0.5 -0.44,0.5 -0.6,0.5 -0.5,0 -0.55,-0.2 -0.7,-0.9 -0.69,-2.78 -1.64,-6.17 -3.73,-6.17 -1.05,0 -1.54,0.65 -1.54,2.29 0,1.1 0.6,3.44 0.99,5.17 l 1.4,5.4 c 0.15,0.75 0.65,2.64 0.85,3.39 0.25,1.14 0.75,3.03 0.75,3.32 0,0.91 -0.7,1.35 -1.45,1.35 -0.25,0 -1.55,-0.05 -1.94,-1.74 -0.96,-3.64 -3.14,-12.36 -3.74,-15 -0.06,-0.2 -2.04,-4.18 -5.69,-4.18 -2.59,0 -3.09,2.25 -3.09,4.09 0,2.78 1.41,6.72 2.71,10.16 0.59,1.5 0.84,2.18 0.84,3.14 0,2.23 -1.59,4.07 -4.09,4.07 -4.74,0 -6.58,-7.21 -6.58,-7.67 0,-0.5 0.5,-0.5 0.61,-0.5 0.5,0 0.54,0.11 0.79,0.91 1.24,4.33 3.14,6.17 5.03,6.17 0.44,0 1.25,-0.05 1.25,-1.64 0,-1.2 -0.56,-2.64 -0.85,-3.39 -1.85,-4.94 -2.9,-8.02 -2.9,-10.45 0,-4.74 3.44,-5.99 6.15,-5.99 3.28,0 5.07,2.24 5.92,3.35 z"
           inkscape:connector-curvature="0"
           style="fill:#000000;stroke-width:0" /><path
           id="path4547"
           d="m 991.64088,603.25451 10.66002,0 c 0.45,0 1.28,0 1.28,0.84 0,0.86 -0.8,0.86 -1.28,0.86 l -10.66002,0 0,10.7 c 0,0.46 0,1.28 -0.84,1.28 -0.88,0 -0.88,-0.79 -0.88,-1.28 l 0,-10.7 -10.68,0 c -0.46,0 -1.3,0 -1.3,-0.83 0,-0.87 0.8,-0.87 1.3,-0.87 l 10.68,0 0,-10.71 c 0,-0.45 0,-1.28 0.85,-1.28 0.87,0 0.87,0.8 0.87,1.28 z"
           inkscape:connector-curvature="0"
           style="fill:#000000;stroke-width:0" /></g>    </g>
  </g>
</svg>
